%TF.GenerationSoftware,KiCad,Pcbnew,5.0.2-bee76a0~70~ubuntu18.04.1*%
%TF.CreationDate,2019-08-07T21:41:43+02:00*%
%TF.ProjectId,lohpi,6c6f6870-692e-46b6-9963-61645f706362,rev?*%
%TF.SameCoordinates,Original*%
%TF.FileFunction,Legend,Top*%
%TF.FilePolarity,Positive*%
%FSLAX46Y46*%
G04 Gerber Fmt 4.6, Leading zero omitted, Abs format (unit mm)*
G04 Created by KiCad (PCBNEW 5.0.2-bee76a0~70~ubuntu18.04.1) date Wed 07 Aug 2019 21:41:43 SAST*
%MOMM*%
%LPD*%
G01*
G04 APERTURE LIST*
%ADD10C,0.100000*%
%ADD11C,0.150000*%
%ADD12C,0.120000*%
%ADD13C,0.090000*%
G04 APERTURE END LIST*
D10*
X148647214Y-134347000D02*
X148571023Y-134308904D01*
X148456738Y-134308904D01*
X148342452Y-134347000D01*
X148266261Y-134423190D01*
X148228166Y-134499380D01*
X148190071Y-134651761D01*
X148190071Y-134766047D01*
X148228166Y-134918428D01*
X148266261Y-134994619D01*
X148342452Y-135070809D01*
X148456738Y-135108904D01*
X148532928Y-135108904D01*
X148647214Y-135070809D01*
X148685309Y-135032714D01*
X148685309Y-134766047D01*
X148532928Y-134766047D01*
X149028166Y-134575571D02*
X149028166Y-135108904D01*
X149028166Y-134651761D02*
X149066261Y-134613666D01*
X149142452Y-134575571D01*
X149256738Y-134575571D01*
X149332928Y-134613666D01*
X149371023Y-134689857D01*
X149371023Y-135108904D01*
X150094833Y-135108904D02*
X150094833Y-134308904D01*
X150094833Y-135070809D02*
X150018642Y-135108904D01*
X149866261Y-135108904D01*
X149790071Y-135070809D01*
X149751976Y-135032714D01*
X149713880Y-134956523D01*
X149713880Y-134727952D01*
X149751976Y-134651761D01*
X149790071Y-134613666D01*
X149866261Y-134575571D01*
X150018642Y-134575571D01*
X150094833Y-134613666D01*
X143827642Y-132657904D02*
X144322880Y-132657904D01*
X144056214Y-132962666D01*
X144170500Y-132962666D01*
X144246690Y-133000761D01*
X144284785Y-133038857D01*
X144322880Y-133115047D01*
X144322880Y-133305523D01*
X144284785Y-133381714D01*
X144246690Y-133419809D01*
X144170500Y-133457904D01*
X143941928Y-133457904D01*
X143865738Y-133419809D01*
X143827642Y-133381714D01*
X144665738Y-133381714D02*
X144703833Y-133419809D01*
X144665738Y-133457904D01*
X144627642Y-133419809D01*
X144665738Y-133381714D01*
X144665738Y-133457904D01*
X144970500Y-132657904D02*
X145465738Y-132657904D01*
X145199071Y-132962666D01*
X145313357Y-132962666D01*
X145389547Y-133000761D01*
X145427642Y-133038857D01*
X145465738Y-133115047D01*
X145465738Y-133305523D01*
X145427642Y-133381714D01*
X145389547Y-133419809D01*
X145313357Y-133457904D01*
X145084785Y-133457904D01*
X145008595Y-133419809D01*
X144970500Y-133381714D01*
X145732404Y-132924571D02*
X145922880Y-133457904D01*
X146113357Y-132924571D01*
X140500309Y-134791404D02*
X140233642Y-134410452D01*
X140043166Y-134791404D02*
X140043166Y-133991404D01*
X140347928Y-133991404D01*
X140424119Y-134029500D01*
X140462214Y-134067595D01*
X140500309Y-134143785D01*
X140500309Y-134258071D01*
X140462214Y-134334261D01*
X140424119Y-134372357D01*
X140347928Y-134410452D01*
X140043166Y-134410452D01*
X141186023Y-134791404D02*
X141186023Y-134372357D01*
X141147928Y-134296166D01*
X141071738Y-134258071D01*
X140919357Y-134258071D01*
X140843166Y-134296166D01*
X141186023Y-134753309D02*
X141109833Y-134791404D01*
X140919357Y-134791404D01*
X140843166Y-134753309D01*
X140805071Y-134677119D01*
X140805071Y-134600928D01*
X140843166Y-134524738D01*
X140919357Y-134486642D01*
X141109833Y-134486642D01*
X141186023Y-134448547D01*
X141909833Y-134791404D02*
X141909833Y-133991404D01*
X141909833Y-134753309D02*
X141833642Y-134791404D01*
X141681261Y-134791404D01*
X141605071Y-134753309D01*
X141566976Y-134715214D01*
X141528880Y-134639023D01*
X141528880Y-134410452D01*
X141566976Y-134334261D01*
X141605071Y-134296166D01*
X141681261Y-134258071D01*
X141833642Y-134258071D01*
X141909833Y-134296166D01*
X142290785Y-134791404D02*
X142290785Y-134258071D01*
X142290785Y-133991404D02*
X142252690Y-134029500D01*
X142290785Y-134067595D01*
X142328880Y-134029500D01*
X142290785Y-133991404D01*
X142290785Y-134067595D01*
X142786023Y-134791404D02*
X142709833Y-134753309D01*
X142671738Y-134715214D01*
X142633642Y-134639023D01*
X142633642Y-134410452D01*
X142671738Y-134334261D01*
X142709833Y-134296166D01*
X142786023Y-134258071D01*
X142900309Y-134258071D01*
X142976500Y-134296166D01*
X143014595Y-134334261D01*
X143052690Y-134410452D01*
X143052690Y-134639023D01*
X143014595Y-134715214D01*
X142976500Y-134753309D01*
X142900309Y-134791404D01*
X142786023Y-134791404D01*
X143966976Y-134562833D02*
X144347928Y-134562833D01*
X143890785Y-134791404D02*
X144157452Y-133991404D01*
X144424119Y-134791404D01*
X126841500Y-165487404D02*
X127108166Y-166287404D01*
X127374833Y-165487404D01*
X127984357Y-166249309D02*
X127908166Y-166287404D01*
X127755785Y-166287404D01*
X127679595Y-166249309D01*
X127641500Y-166211214D01*
X127603404Y-166135023D01*
X127603404Y-165906452D01*
X127641500Y-165830261D01*
X127679595Y-165792166D01*
X127755785Y-165754071D01*
X127908166Y-165754071D01*
X127984357Y-165792166D01*
X128670071Y-166249309D02*
X128593880Y-166287404D01*
X128441500Y-166287404D01*
X128365309Y-166249309D01*
X128327214Y-166211214D01*
X128289119Y-166135023D01*
X128289119Y-165906452D01*
X128327214Y-165830261D01*
X128365309Y-165792166D01*
X128441500Y-165754071D01*
X128593880Y-165754071D01*
X128670071Y-165792166D01*
X128822452Y-166363595D02*
X129431976Y-166363595D01*
X129622452Y-166287404D02*
X129622452Y-165487404D01*
X129927214Y-165487404D01*
X130003404Y-165525500D01*
X130041500Y-165563595D01*
X130079595Y-165639785D01*
X130079595Y-165754071D01*
X130041500Y-165830261D01*
X130003404Y-165868357D01*
X129927214Y-165906452D01*
X129622452Y-165906452D01*
X130384357Y-166058833D02*
X130765309Y-166058833D01*
X130308166Y-166287404D02*
X130574833Y-165487404D01*
X130841500Y-166287404D01*
X120219690Y-143183904D02*
X120486357Y-143983904D01*
X120753023Y-143183904D01*
X121362547Y-143945809D02*
X121286357Y-143983904D01*
X121133976Y-143983904D01*
X121057785Y-143945809D01*
X121019690Y-143907714D01*
X120981595Y-143831523D01*
X120981595Y-143602952D01*
X121019690Y-143526761D01*
X121057785Y-143488666D01*
X121133976Y-143450571D01*
X121286357Y-143450571D01*
X121362547Y-143488666D01*
X122048261Y-143945809D02*
X121972071Y-143983904D01*
X121819690Y-143983904D01*
X121743500Y-143945809D01*
X121705404Y-143907714D01*
X121667309Y-143831523D01*
X121667309Y-143602952D01*
X121705404Y-143526761D01*
X121743500Y-143488666D01*
X121819690Y-143450571D01*
X121972071Y-143450571D01*
X122048261Y-143488666D01*
X120791119Y-145283904D02*
X120524452Y-144902952D01*
X120333976Y-145283904D02*
X120333976Y-144483904D01*
X120638738Y-144483904D01*
X120714928Y-144522000D01*
X120753023Y-144560095D01*
X120791119Y-144636285D01*
X120791119Y-144750571D01*
X120753023Y-144826761D01*
X120714928Y-144864857D01*
X120638738Y-144902952D01*
X120333976Y-144902952D01*
X121476833Y-145283904D02*
X121476833Y-144864857D01*
X121438738Y-144788666D01*
X121362547Y-144750571D01*
X121210166Y-144750571D01*
X121133976Y-144788666D01*
X121476833Y-145245809D02*
X121400642Y-145283904D01*
X121210166Y-145283904D01*
X121133976Y-145245809D01*
X121095880Y-145169619D01*
X121095880Y-145093428D01*
X121133976Y-145017238D01*
X121210166Y-144979142D01*
X121400642Y-144979142D01*
X121476833Y-144941047D01*
X122200642Y-145283904D02*
X122200642Y-144483904D01*
X122200642Y-145245809D02*
X122124452Y-145283904D01*
X121972071Y-145283904D01*
X121895880Y-145245809D01*
X121857785Y-145207714D01*
X121819690Y-145131523D01*
X121819690Y-144902952D01*
X121857785Y-144826761D01*
X121895880Y-144788666D01*
X121972071Y-144750571D01*
X122124452Y-144750571D01*
X122200642Y-144788666D01*
X122581595Y-145283904D02*
X122581595Y-144750571D01*
X122581595Y-144483904D02*
X122543500Y-144522000D01*
X122581595Y-144560095D01*
X122619690Y-144522000D01*
X122581595Y-144483904D01*
X122581595Y-144560095D01*
X123076833Y-145283904D02*
X123000642Y-145245809D01*
X122962547Y-145207714D01*
X122924452Y-145131523D01*
X122924452Y-144902952D01*
X122962547Y-144826761D01*
X123000642Y-144788666D01*
X123076833Y-144750571D01*
X123191119Y-144750571D01*
X123267309Y-144788666D01*
X123305404Y-144826761D01*
X123343500Y-144902952D01*
X123343500Y-145131523D01*
X123305404Y-145207714D01*
X123267309Y-145245809D01*
X123191119Y-145283904D01*
X123076833Y-145283904D01*
X123495880Y-145360095D02*
X124105404Y-145360095D01*
X124562547Y-144864857D02*
X124676833Y-144902952D01*
X124714928Y-144941047D01*
X124753023Y-145017238D01*
X124753023Y-145131523D01*
X124714928Y-145207714D01*
X124676833Y-145245809D01*
X124600642Y-145283904D01*
X124295880Y-145283904D01*
X124295880Y-144483904D01*
X124562547Y-144483904D01*
X124638738Y-144522000D01*
X124676833Y-144560095D01*
X124714928Y-144636285D01*
X124714928Y-144712476D01*
X124676833Y-144788666D01*
X124638738Y-144826761D01*
X124562547Y-144864857D01*
X124295880Y-144864857D01*
X101169690Y-149216404D02*
X101436357Y-150016404D01*
X101703023Y-149216404D01*
X102312547Y-149978309D02*
X102236357Y-150016404D01*
X102083976Y-150016404D01*
X102007785Y-149978309D01*
X101969690Y-149940214D01*
X101931595Y-149864023D01*
X101931595Y-149635452D01*
X101969690Y-149559261D01*
X102007785Y-149521166D01*
X102083976Y-149483071D01*
X102236357Y-149483071D01*
X102312547Y-149521166D01*
X102998261Y-149978309D02*
X102922071Y-150016404D01*
X102769690Y-150016404D01*
X102693500Y-149978309D01*
X102655404Y-149940214D01*
X102617309Y-149864023D01*
X102617309Y-149635452D01*
X102655404Y-149559261D01*
X102693500Y-149521166D01*
X102769690Y-149483071D01*
X102922071Y-149483071D01*
X102998261Y-149521166D01*
X101664928Y-151316404D02*
X101283976Y-151316404D01*
X101283976Y-150516404D01*
X101931595Y-151316404D02*
X101931595Y-150516404D01*
X102388738Y-151316404D01*
X102388738Y-150516404D01*
X102731595Y-151087833D02*
X103112547Y-151087833D01*
X102655404Y-151316404D02*
X102922071Y-150516404D01*
X103188738Y-151316404D01*
X103264928Y-151392595D02*
X103874452Y-151392595D01*
X104026833Y-151087833D02*
X104407785Y-151087833D01*
X103950642Y-151316404D02*
X104217309Y-150516404D01*
X104483976Y-151316404D01*
D11*
%TO.C,L1*%
X128270000Y-124206000D02*
X134112000Y-124206000D01*
X134112000Y-124206000D02*
X134112000Y-120142000D01*
X134112000Y-120142000D02*
X128270000Y-120142000D01*
X128270000Y-120142000D02*
X128270000Y-124206000D01*
%TO.C,U10*%
X144399000Y-151244000D02*
X144399000Y-152514000D01*
X142367000Y-152514000D02*
X142367000Y-151244000D01*
X142113000Y-152514000D02*
G75*
G03X142113000Y-152514000I-127000J0D01*
G01*
%TO.C,X1*%
X102946594Y-124976195D02*
G75*
G03X102946594Y-124976195I-179605J0D01*
G01*
X102512989Y-125357195D02*
X105052989Y-125357195D01*
X105052989Y-128659195D02*
X105052989Y-125357195D01*
X102512989Y-128659195D02*
X105052989Y-128659195D01*
X102512989Y-125357195D02*
X102512989Y-128659195D01*
%TO.C,X2*%
X134926605Y-139065000D02*
G75*
G03X134926605Y-139065000I-179605J0D01*
G01*
X135128000Y-139319000D02*
X135128000Y-136779000D01*
X138430000Y-136779000D02*
X135128000Y-136779000D01*
X138430000Y-139319000D02*
X138430000Y-136779000D01*
X135128000Y-139319000D02*
X138430000Y-139319000D01*
%TO.C,J7*%
X95508000Y-135128000D02*
G75*
G03X95508000Y-135128000I-2000000J0D01*
G01*
X90908000Y-132528000D02*
X96108000Y-132528000D01*
X90908000Y-137728000D02*
X90908000Y-132528000D01*
X96108000Y-137728000D02*
X90908000Y-137728000D01*
X96108000Y-137728000D02*
X96108000Y-132528000D01*
%TO.C,U15*%
X113347500Y-157861000D02*
X115379500Y-157861000D01*
X115379500Y-157861000D02*
X115379500Y-153797000D01*
X115379500Y-153797000D02*
X111315500Y-153797000D01*
X111315500Y-153797000D02*
X111315500Y-157861000D01*
X111315500Y-157861000D02*
X113347500Y-157861000D01*
%TO.C,U11*%
X140589000Y-157861000D02*
X142621000Y-157861000D01*
X142621000Y-157861000D02*
X142621000Y-153797000D01*
X142621000Y-153797000D02*
X138557000Y-153797000D01*
X138557000Y-153797000D02*
X138557000Y-157861000D01*
X138557000Y-157861000D02*
X140589000Y-157861000D01*
%TO.C,U17*%
X109982000Y-160909000D02*
X109982000Y-158877000D01*
X109982000Y-158877000D02*
X105918000Y-158877000D01*
X105918000Y-158877000D02*
X105918000Y-162941000D01*
X105918000Y-162941000D02*
X109982000Y-162941000D01*
X109982000Y-162941000D02*
X109982000Y-160909000D01*
%TO.C,U12*%
X119253000Y-146685000D02*
X117221000Y-146685000D01*
X117221000Y-146685000D02*
X117221000Y-150749000D01*
X117221000Y-150749000D02*
X121285000Y-150749000D01*
X121285000Y-150749000D02*
X121285000Y-146685000D01*
X121285000Y-146685000D02*
X119253000Y-146685000D01*
%TO.C,U16*%
X107113605Y-156210000D02*
G75*
G03X107113605Y-156210000I-179605J0D01*
G01*
%TO.C,U13*%
X108839000Y-152273000D02*
X107061000Y-152273000D01*
X108839000Y-151257000D02*
X108839000Y-151384000D01*
X108839000Y-151638000D02*
X108839000Y-151257000D01*
X107061000Y-151638000D02*
X107061000Y-150876000D01*
X107061000Y-150241000D02*
X108839000Y-150241000D01*
%TO.C,U18*%
X100965000Y-141478000D02*
X100711000Y-141478000D01*
X100965000Y-151003000D02*
X100965000Y-141478000D01*
X100711000Y-151003000D02*
X100965000Y-151003000D01*
X90678000Y-141478000D02*
X90932000Y-141478000D01*
X90678000Y-151003000D02*
X90678000Y-141478000D01*
X90932000Y-151003000D02*
X90678000Y-151003000D01*
D12*
%TO.C,R13*%
X117610000Y-118954000D02*
X118610000Y-118954000D01*
X118610000Y-120314000D02*
X117610000Y-120314000D01*
%TO.C,R14*%
X120732000Y-120769000D02*
X120732000Y-119769000D01*
X122092000Y-119769000D02*
X122092000Y-120769000D01*
%TO.C,D4*%
X90902000Y-125230000D02*
X90902000Y-126230000D01*
X90902000Y-126230000D02*
X93002000Y-126230000D01*
X90902000Y-125230000D02*
X93002000Y-125230000D01*
%TO.C,C28*%
X109112000Y-136941000D02*
X109812000Y-136941000D01*
X109812000Y-138141000D02*
X109112000Y-138141000D01*
%TO.C,L5*%
X110214000Y-150372000D02*
X110214000Y-150872000D01*
X111274000Y-150872000D02*
X111274000Y-150372000D01*
%TO.C,L13*%
X109991000Y-145634000D02*
X109991000Y-144434000D01*
X111751000Y-144434000D02*
X111751000Y-145634000D01*
%TO.C,J5*%
X117415000Y-142815000D02*
X118745000Y-142815000D01*
X117415000Y-144145000D02*
X117415000Y-142815000D01*
X117415000Y-145415000D02*
X120075000Y-145415000D01*
X120075000Y-145415000D02*
X120075000Y-145475000D01*
X117415000Y-145415000D02*
X117415000Y-145475000D01*
X117415000Y-145475000D02*
X120075000Y-145475000D01*
%TO.C,J6*%
X103318000Y-150301000D02*
X105978000Y-150301000D01*
X103318000Y-150241000D02*
X103318000Y-150301000D01*
X105978000Y-150241000D02*
X105978000Y-150301000D01*
X103318000Y-150241000D02*
X105978000Y-150241000D01*
X103318000Y-148971000D02*
X103318000Y-147641000D01*
X103318000Y-147641000D02*
X104648000Y-147641000D01*
%TO.C,U6*%
X105675000Y-143297000D02*
X103225000Y-143297000D01*
X103875000Y-146517000D02*
X105675000Y-146517000D01*
%TO.C,L10*%
X127924000Y-161172000D02*
X129124000Y-161172000D01*
X129124000Y-162932000D02*
X127924000Y-162932000D01*
%TO.C,C14*%
X128301000Y-163230000D02*
X129001000Y-163230000D01*
X129001000Y-164430000D02*
X128301000Y-164430000D01*
%TO.C,R12*%
X110609000Y-142920000D02*
X109609000Y-142920000D01*
X109609000Y-141560000D02*
X110609000Y-141560000D01*
%TO.C,R33*%
X120986000Y-126738000D02*
X120986000Y-125738000D01*
X122346000Y-125738000D02*
X122346000Y-126738000D01*
%TO.C,R35*%
X131437000Y-137459000D02*
X130437000Y-137459000D01*
X130437000Y-136099000D02*
X131437000Y-136099000D01*
D11*
%TO.C,U7*%
X107314000Y-125475000D02*
X107314000Y-126050000D01*
X116714000Y-125475000D02*
X116714000Y-126050000D01*
X116714000Y-134875000D02*
X116714000Y-134300000D01*
X107314000Y-134875000D02*
X107314000Y-134300000D01*
X116714000Y-125475000D02*
X116139000Y-125475000D01*
X116714000Y-134875000D02*
X116139000Y-134875000D01*
X107314000Y-125475000D02*
X107889000Y-125475000D01*
D12*
%TO.C,C79*%
X112487000Y-137052000D02*
X112487000Y-137752000D01*
X111287000Y-137752000D02*
X111287000Y-137052000D01*
%TO.C,C24*%
X120238000Y-131283000D02*
X119538000Y-131283000D01*
X119538000Y-130083000D02*
X120238000Y-130083000D01*
%TO.C,U5*%
X118291000Y-139167000D02*
X115841000Y-139167000D01*
X116491000Y-142387000D02*
X118291000Y-142387000D01*
%TO.C,R25*%
X111297000Y-139581000D02*
X111297000Y-140581000D01*
X109937000Y-140581000D02*
X109937000Y-139581000D01*
%TO.C,C37*%
X120238000Y-129886000D02*
X119538000Y-129886000D01*
X119538000Y-128686000D02*
X120238000Y-128686000D01*
%TO.C,U4*%
X128005000Y-135722000D02*
X129805000Y-135722000D01*
X129805000Y-132502000D02*
X127355000Y-132502000D01*
%TO.C,L7*%
X120628000Y-156277500D02*
X120628000Y-156777500D01*
X121688000Y-156777500D02*
X121688000Y-156277500D01*
%TO.C,R32*%
X124468000Y-126828000D02*
X125468000Y-126828000D01*
X125468000Y-128188000D02*
X124468000Y-128188000D01*
%TO.C,C25*%
X113253000Y-124298000D02*
X112553000Y-124298000D01*
X112553000Y-123098000D02*
X113253000Y-123098000D01*
%TO.C,R24*%
X106381000Y-137279000D02*
X106381000Y-136279000D01*
X107741000Y-136279000D02*
X107741000Y-137279000D01*
D11*
%TO.C,U2*%
X141121000Y-123166000D02*
X142371000Y-123166000D01*
X141121000Y-119991000D02*
X137771000Y-119991000D01*
X141121000Y-123341000D02*
X137771000Y-123341000D01*
X141121000Y-119991000D02*
X141121000Y-120241000D01*
X137771000Y-119991000D02*
X137771000Y-120241000D01*
X137771000Y-123341000D02*
X137771000Y-123091000D01*
X141121000Y-123341000D02*
X141121000Y-123166000D01*
D12*
%TO.C,C7*%
X132430000Y-130013000D02*
X131730000Y-130013000D01*
X131730000Y-128813000D02*
X132430000Y-128813000D01*
%TO.C,R9*%
X131945000Y-162732000D02*
X130945000Y-162732000D01*
X130945000Y-161372000D02*
X131945000Y-161372000D01*
D11*
%TO.C,U14*%
X124555000Y-157713500D02*
X125055000Y-157713500D01*
X124555000Y-154463500D02*
X125055000Y-154463500D01*
X127805000Y-154463500D02*
X127305000Y-154463500D01*
X127805000Y-157713500D02*
X127305000Y-157713500D01*
X124555000Y-154463500D02*
X124555000Y-154963500D01*
X127805000Y-154463500D02*
X127805000Y-154963500D01*
X124555000Y-157713500D02*
X124555000Y-157213500D01*
D12*
%TO.C,C15*%
X132426000Y-133127000D02*
X132426000Y-133827000D01*
X131226000Y-133827000D02*
X131226000Y-133127000D01*
%TO.C,R10*%
X132543000Y-133977000D02*
X132543000Y-132977000D01*
X133903000Y-132977000D02*
X133903000Y-133977000D01*
%TO.C,C1*%
X102581000Y-144430000D02*
X102581000Y-145130000D01*
X101381000Y-145130000D02*
X101381000Y-144430000D01*
%TO.C,C2*%
X113573000Y-142197000D02*
X113573000Y-141497000D01*
X114773000Y-141497000D02*
X114773000Y-142197000D01*
%TO.C,C3*%
X133762000Y-124368000D02*
X134462000Y-124368000D01*
X134462000Y-125568000D02*
X133762000Y-125568000D01*
%TO.C,C4*%
X146021500Y-120428500D02*
X146021500Y-119728500D01*
X147221500Y-119728500D02*
X147221500Y-120428500D01*
%TO.C,C5*%
X147285000Y-124999000D02*
X147285000Y-125699000D01*
X146085000Y-125699000D02*
X146085000Y-124999000D01*
%TO.C,C8*%
X128999500Y-124495000D02*
X129699500Y-124495000D01*
X129699500Y-125695000D02*
X128999500Y-125695000D01*
%TO.C,C9*%
X102581000Y-141509000D02*
X102581000Y-142209000D01*
X101381000Y-142209000D02*
X101381000Y-141509000D01*
%TO.C,C10*%
X143923500Y-124869500D02*
X143223500Y-124869500D01*
X143223500Y-123669500D02*
X143923500Y-123669500D01*
%TO.C,C11*%
X143625734Y-161892130D02*
X143625734Y-161192130D01*
X144825734Y-161192130D02*
X144825734Y-161892130D01*
%TO.C,C12*%
X125822000Y-133127000D02*
X125822000Y-133827000D01*
X124622000Y-133827000D02*
X124622000Y-133127000D01*
%TO.C,C16*%
X120681000Y-140878000D02*
X121381000Y-140878000D01*
X121381000Y-142078000D02*
X120681000Y-142078000D01*
%TO.C,C17*%
X108169000Y-144684000D02*
X108169000Y-145384000D01*
X106969000Y-145384000D02*
X106969000Y-144684000D01*
%TO.C,C26*%
X103486000Y-133188000D02*
X102786000Y-133188000D01*
X102786000Y-131988000D02*
X103486000Y-131988000D01*
%TO.C,C27*%
X101969989Y-126658195D02*
X101969989Y-127358195D01*
X100769989Y-127358195D02*
X100769989Y-126658195D01*
%TO.C,C29*%
X128999500Y-126082500D02*
X129699500Y-126082500D01*
X129699500Y-127282500D02*
X128999500Y-127282500D01*
%TO.C,C30*%
X129382000Y-129886000D02*
X128682000Y-129886000D01*
X128682000Y-128686000D02*
X129382000Y-128686000D01*
%TO.C,C31*%
X117510000Y-126969000D02*
X117510000Y-126269000D01*
X118710000Y-126269000D02*
X118710000Y-126969000D01*
%TO.C,C32*%
X106645000Y-125368000D02*
X106645000Y-126068000D01*
X105445000Y-126068000D02*
X105445000Y-125368000D01*
%TO.C,C33*%
X125941000Y-131918000D02*
X125241000Y-131918000D01*
X125241000Y-130718000D02*
X125941000Y-130718000D01*
%TO.C,D1*%
X90902000Y-130183000D02*
X93002000Y-130183000D01*
X90902000Y-131183000D02*
X93002000Y-131183000D01*
X90902000Y-130183000D02*
X90902000Y-131183000D01*
%TO.C,D2*%
X90902000Y-128532000D02*
X90902000Y-129532000D01*
X90902000Y-129532000D02*
X93002000Y-129532000D01*
X90902000Y-128532000D02*
X93002000Y-128532000D01*
%TO.C,D3*%
X90902000Y-126881000D02*
X93002000Y-126881000D01*
X90902000Y-127881000D02*
X93002000Y-127881000D01*
X90902000Y-126881000D02*
X90902000Y-127881000D01*
%TO.C,J1*%
X151040000Y-128490000D02*
X149710000Y-128490000D01*
X151040000Y-127160000D02*
X151040000Y-128490000D01*
X151040000Y-125890000D02*
X148380000Y-125890000D01*
X148380000Y-125890000D02*
X148380000Y-123290000D01*
X151040000Y-125890000D02*
X151040000Y-123290000D01*
X151040000Y-123290000D02*
X148380000Y-123290000D01*
%TO.C,Q1*%
X144782000Y-127198000D02*
X146242000Y-127198000D01*
X144782000Y-130358000D02*
X146942000Y-130358000D01*
X144782000Y-130358000D02*
X144782000Y-129428000D01*
X144782000Y-127198000D02*
X144782000Y-128128000D01*
%TO.C,R2*%
X144227000Y-120578500D02*
X144227000Y-119578500D01*
X145587000Y-119578500D02*
X145587000Y-120578500D01*
%TO.C,R3*%
X144534000Y-130765000D02*
X145534000Y-130765000D01*
X145534000Y-132125000D02*
X144534000Y-132125000D01*
%TO.C,R4*%
X144010000Y-126537000D02*
X143010000Y-126537000D01*
X143010000Y-125177000D02*
X144010000Y-125177000D01*
%TO.C,R5*%
X143899000Y-121748000D02*
X144899000Y-121748000D01*
X144899000Y-123108000D02*
X143899000Y-123108000D01*
%TO.C,R6*%
X131580000Y-130384000D02*
X132580000Y-130384000D01*
X132580000Y-131744000D02*
X131580000Y-131744000D01*
%TO.C,R7*%
X131834000Y-118700000D02*
X132834000Y-118700000D01*
X132834000Y-120060000D02*
X131834000Y-120060000D01*
%TO.C,R8*%
X135871500Y-119388000D02*
X135871500Y-120388000D01*
X134511500Y-120388000D02*
X134511500Y-119388000D01*
%TO.C,R11*%
X120519000Y-139147000D02*
X121519000Y-139147000D01*
X121519000Y-140507000D02*
X120519000Y-140507000D01*
%TO.C,R15*%
X125013000Y-119769000D02*
X125013000Y-120769000D01*
X123653000Y-120769000D02*
X123653000Y-119769000D01*
%TO.C,R16*%
X91649000Y-122928000D02*
X91649000Y-121928000D01*
X93009000Y-121928000D02*
X93009000Y-122928000D01*
%TO.C,R17*%
X94533000Y-121928000D02*
X94533000Y-122928000D01*
X93173000Y-122928000D02*
X93173000Y-121928000D01*
%TO.C,R18*%
X94697000Y-122928000D02*
X94697000Y-121928000D01*
X96057000Y-121928000D02*
X96057000Y-122928000D01*
%TO.C,R19*%
X97581000Y-121928000D02*
X97581000Y-122928000D01*
X96221000Y-122928000D02*
X96221000Y-121928000D01*
%TO.C,R20*%
X97745000Y-122928000D02*
X97745000Y-121928000D01*
X99105000Y-121928000D02*
X99105000Y-122928000D01*
%TO.C,R21*%
X100592000Y-120859000D02*
X101592000Y-120859000D01*
X101592000Y-122219000D02*
X100592000Y-122219000D01*
%TO.C,R22*%
X97020000Y-131363000D02*
X96020000Y-131363000D01*
X96020000Y-130003000D02*
X97020000Y-130003000D01*
%TO.C,R23*%
X96020000Y-128352000D02*
X97020000Y-128352000D01*
X97020000Y-129712000D02*
X96020000Y-129712000D01*
%TO.C,R26*%
X97020000Y-128061000D02*
X96020000Y-128061000D01*
X96020000Y-126701000D02*
X97020000Y-126701000D01*
%TO.C,R27*%
X106053000Y-141179000D02*
X107053000Y-141179000D01*
X107053000Y-142539000D02*
X106053000Y-142539000D01*
%TO.C,R28*%
X96020000Y-125050000D02*
X97020000Y-125050000D01*
X97020000Y-126410000D02*
X96020000Y-126410000D01*
%TO.C,R29*%
X109011000Y-122690000D02*
X109011000Y-123690000D01*
X107651000Y-123690000D02*
X107651000Y-122690000D01*
%TO.C,R30*%
X124468000Y-123780000D02*
X125468000Y-123780000D01*
X125468000Y-125140000D02*
X124468000Y-125140000D01*
%TO.C,R31*%
X125456000Y-126664000D02*
X124456000Y-126664000D01*
X124456000Y-125304000D02*
X125456000Y-125304000D01*
%TO.C,R34*%
X120822000Y-125738000D02*
X120822000Y-126738000D01*
X119462000Y-126738000D02*
X119462000Y-125738000D01*
%TO.C,R36*%
X125468000Y-129712000D02*
X124468000Y-129712000D01*
X124468000Y-128352000D02*
X125468000Y-128352000D01*
D11*
%TO.C,U1*%
X139616000Y-131176000D02*
X141016000Y-131176000D01*
X139616000Y-126076000D02*
X135466000Y-126076000D01*
X139616000Y-131226000D02*
X135466000Y-131226000D01*
X139616000Y-126076000D02*
X139616000Y-126221000D01*
X135466000Y-126076000D02*
X135466000Y-126221000D01*
X135466000Y-131226000D02*
X135466000Y-131081000D01*
X139616000Y-131226000D02*
X139616000Y-131176000D01*
%TO.C,U3*%
X140585734Y-164637130D02*
X140585734Y-164587130D01*
X136435734Y-164637130D02*
X136435734Y-164492130D01*
X136435734Y-159487130D02*
X136435734Y-159632130D01*
X140585734Y-159487130D02*
X140585734Y-159632130D01*
X140585734Y-164637130D02*
X136435734Y-164637130D01*
X140585734Y-159487130D02*
X136435734Y-159487130D01*
X140585734Y-164587130D02*
X141985734Y-164587130D01*
%TO.C,U8*%
X126507500Y-144383500D02*
X127032500Y-144383500D01*
X126507500Y-139133500D02*
X127032500Y-139133500D01*
X131757500Y-139133500D02*
X131232500Y-139133500D01*
X131757500Y-144383500D02*
X131232500Y-144383500D01*
X126507500Y-139133500D02*
X126507500Y-139658500D01*
X131757500Y-139133500D02*
X131757500Y-139658500D01*
X126507500Y-144383500D02*
X126507500Y-143858500D01*
%TO.C,U9*%
X140250000Y-144484000D02*
X140250000Y-143959000D01*
X145500000Y-139234000D02*
X145500000Y-139759000D01*
X140250000Y-139234000D02*
X140250000Y-139759000D01*
X145500000Y-144484000D02*
X144975000Y-144484000D01*
X145500000Y-139234000D02*
X144975000Y-139234000D01*
X140250000Y-139234000D02*
X140775000Y-139234000D01*
X140250000Y-144484000D02*
X140775000Y-144484000D01*
D12*
%TO.C,L2*%
X125218000Y-148949000D02*
X124718000Y-148949000D01*
X124718000Y-150009000D02*
X125218000Y-150009000D01*
%TO.C,L3*%
X125218000Y-147552000D02*
X124718000Y-147552000D01*
X124718000Y-148612000D02*
X125218000Y-148612000D01*
%TO.C,L4*%
X130933000Y-155299000D02*
X130433000Y-155299000D01*
X130433000Y-156359000D02*
X130933000Y-156359000D01*
%TO.C,L8*%
X119693500Y-155235500D02*
X119193500Y-155235500D01*
X119193500Y-156295500D02*
X119693500Y-156295500D01*
%TO.C,J9*%
X99965000Y-166495000D02*
X101965000Y-166495000D01*
X99965000Y-159895000D02*
X101965000Y-159895000D01*
X104265000Y-164195000D02*
X104265000Y-162195000D01*
X97665000Y-164195000D02*
X97665000Y-162195000D01*
%TO.C,L6*%
X126463200Y-159526200D02*
X126463200Y-159026200D01*
X125403200Y-159026200D02*
X125403200Y-159526200D01*
%TO.C,C84*%
X138526000Y-135728000D02*
X137826000Y-135728000D01*
X137826000Y-134528000D02*
X138526000Y-134528000D01*
%TO.C,C85*%
X120123000Y-138903000D02*
X119423000Y-138903000D01*
X119423000Y-137703000D02*
X120123000Y-137703000D01*
%TO.C,C86*%
X109693000Y-144684000D02*
X109693000Y-145384000D01*
X108493000Y-145384000D02*
X108493000Y-144684000D01*
%TO.C,C87*%
X130333000Y-159674000D02*
X131033000Y-159674000D01*
X131033000Y-160874000D02*
X130333000Y-160874000D01*
%TO.C,C89*%
X124606000Y-135417000D02*
X125306000Y-135417000D01*
X125306000Y-136617000D02*
X124606000Y-136617000D01*
%TO.C,C90*%
X113610000Y-147285000D02*
X112910000Y-147285000D01*
X112910000Y-146085000D02*
X113610000Y-146085000D01*
%TO.C,C91*%
X118776000Y-158531000D02*
X119476000Y-158531000D01*
X119476000Y-159731000D02*
X118776000Y-159731000D01*
%TO.C,J2*%
X140910000Y-133918000D02*
X143570000Y-133918000D01*
X140910000Y-133858000D02*
X140910000Y-133918000D01*
X143570000Y-133858000D02*
X143570000Y-133918000D01*
X140910000Y-133858000D02*
X143570000Y-133858000D01*
X140910000Y-132588000D02*
X140910000Y-131258000D01*
X140910000Y-131258000D02*
X142240000Y-131258000D01*
%TO.C,J3*%
X131004000Y-163262000D02*
X132334000Y-163262000D01*
X131004000Y-164592000D02*
X131004000Y-163262000D01*
X131004000Y-165862000D02*
X133664000Y-165862000D01*
X133664000Y-165862000D02*
X133664000Y-165922000D01*
X131004000Y-165862000D02*
X131004000Y-165922000D01*
X131004000Y-165922000D02*
X133664000Y-165922000D01*
%TO.C,J4*%
X137227000Y-133918000D02*
X139887000Y-133918000D01*
X137227000Y-133858000D02*
X137227000Y-133918000D01*
X139887000Y-133858000D02*
X139887000Y-133918000D01*
X137227000Y-133858000D02*
X139887000Y-133858000D01*
X137227000Y-132588000D02*
X137227000Y-131258000D01*
X137227000Y-131258000D02*
X138557000Y-131258000D01*
%TO.C,L9*%
X129632000Y-132071000D02*
X128432000Y-132071000D01*
X128432000Y-130311000D02*
X129632000Y-130311000D01*
%TO.C,L11*%
X136135000Y-133512000D02*
X136135000Y-134712000D01*
X134375000Y-134712000D02*
X134375000Y-133512000D01*
%TO.C,L12*%
X122336000Y-137296000D02*
X123536000Y-137296000D01*
X123536000Y-139056000D02*
X122336000Y-139056000D01*
%TO.C,L14*%
X98175000Y-139087000D02*
X98675000Y-139087000D01*
X98675000Y-138027000D02*
X98175000Y-138027000D01*
%TO.C,R53*%
X94533000Y-154186000D02*
X94533000Y-155186000D01*
X93173000Y-155186000D02*
X93173000Y-154186000D01*
%TO.C,R54*%
X91649000Y-155186000D02*
X91649000Y-154186000D01*
X93009000Y-154186000D02*
X93009000Y-155186000D01*
%TO.C,C38*%
X147031000Y-136937000D02*
X147031000Y-137637000D01*
X145831000Y-137637000D02*
X145831000Y-136937000D01*
%TO.C,C80*%
X133315000Y-138207000D02*
X133315000Y-138907000D01*
X132115000Y-138907000D02*
X132115000Y-138207000D01*
%TO.C,R51*%
X102100000Y-136189000D02*
X101100000Y-136189000D01*
X101100000Y-134829000D02*
X102100000Y-134829000D01*
%TO.C,R55*%
X102100000Y-134665000D02*
X101100000Y-134665000D01*
X101100000Y-133305000D02*
X102100000Y-133305000D01*
%TO.C,J14*%
X148339500Y-131321500D02*
X149669500Y-131321500D01*
X148339500Y-132651500D02*
X148339500Y-131321500D01*
X148339500Y-133921500D02*
X150999500Y-133921500D01*
X150999500Y-133921500D02*
X150999500Y-133981500D01*
X148339500Y-133921500D02*
X148339500Y-133981500D01*
X148339500Y-133981500D02*
X150999500Y-133981500D01*
%TO.C,L1*%
D13*
X128520833Y-119941952D02*
X128330357Y-119941952D01*
X128330357Y-119541952D01*
X128863690Y-119941952D02*
X128635119Y-119941952D01*
X128749404Y-119941952D02*
X128749404Y-119541952D01*
X128711309Y-119599095D01*
X128673214Y-119637190D01*
X128635119Y-119656238D01*
%TO.C,U10*%
X145999261Y-152498452D02*
X145999261Y-152822261D01*
X146018309Y-152860357D01*
X146037357Y-152879404D01*
X146075452Y-152898452D01*
X146151642Y-152898452D01*
X146189738Y-152879404D01*
X146208785Y-152860357D01*
X146227833Y-152822261D01*
X146227833Y-152498452D01*
X146627833Y-152898452D02*
X146399261Y-152898452D01*
X146513547Y-152898452D02*
X146513547Y-152498452D01*
X146475452Y-152555595D01*
X146437357Y-152593690D01*
X146399261Y-152612738D01*
X146875452Y-152498452D02*
X146913547Y-152498452D01*
X146951642Y-152517500D01*
X146970690Y-152536547D01*
X146989738Y-152574642D01*
X147008785Y-152650833D01*
X147008785Y-152746071D01*
X146989738Y-152822261D01*
X146970690Y-152860357D01*
X146951642Y-152879404D01*
X146913547Y-152898452D01*
X146875452Y-152898452D01*
X146837357Y-152879404D01*
X146818309Y-152860357D01*
X146799261Y-152822261D01*
X146780214Y-152746071D01*
X146780214Y-152650833D01*
X146799261Y-152574642D01*
X146818309Y-152536547D01*
X146837357Y-152517500D01*
X146875452Y-152498452D01*
%TO.C,X1*%
X103435190Y-128939952D02*
X103701857Y-129339952D01*
X103701857Y-128939952D02*
X103435190Y-129339952D01*
X104063761Y-129339952D02*
X103835190Y-129339952D01*
X103949476Y-129339952D02*
X103949476Y-128939952D01*
X103911380Y-128997095D01*
X103873285Y-129035190D01*
X103835190Y-129054238D01*
%TO.C,X2*%
X136455190Y-139734952D02*
X136721857Y-140134952D01*
X136721857Y-139734952D02*
X136455190Y-140134952D01*
X136855190Y-139773047D02*
X136874238Y-139754000D01*
X136912333Y-139734952D01*
X137007571Y-139734952D01*
X137045666Y-139754000D01*
X137064714Y-139773047D01*
X137083761Y-139811142D01*
X137083761Y-139849238D01*
X137064714Y-139906380D01*
X136836142Y-140134952D01*
X137083761Y-140134952D01*
%TO.C,J7*%
X96688952Y-135261333D02*
X96974666Y-135261333D01*
X97031809Y-135280380D01*
X97069904Y-135318476D01*
X97088952Y-135375619D01*
X97088952Y-135413714D01*
X96688952Y-135108952D02*
X96688952Y-134842285D01*
X97088952Y-135013714D01*
%TO.C,U15*%
X112852261Y-153196952D02*
X112852261Y-153520761D01*
X112871309Y-153558857D01*
X112890357Y-153577904D01*
X112928452Y-153596952D01*
X113004642Y-153596952D01*
X113042738Y-153577904D01*
X113061785Y-153558857D01*
X113080833Y-153520761D01*
X113080833Y-153196952D01*
X113480833Y-153596952D02*
X113252261Y-153596952D01*
X113366547Y-153596952D02*
X113366547Y-153196952D01*
X113328452Y-153254095D01*
X113290357Y-153292190D01*
X113252261Y-153311238D01*
X113842738Y-153196952D02*
X113652261Y-153196952D01*
X113633214Y-153387428D01*
X113652261Y-153368380D01*
X113690357Y-153349333D01*
X113785595Y-153349333D01*
X113823690Y-153368380D01*
X113842738Y-153387428D01*
X113861785Y-153425523D01*
X113861785Y-153520761D01*
X113842738Y-153558857D01*
X113823690Y-153577904D01*
X113785595Y-153596952D01*
X113690357Y-153596952D01*
X113652261Y-153577904D01*
X113633214Y-153558857D01*
%TO.C,U11*%
X138188761Y-152625452D02*
X138188761Y-152949261D01*
X138207809Y-152987357D01*
X138226857Y-153006404D01*
X138264952Y-153025452D01*
X138341142Y-153025452D01*
X138379238Y-153006404D01*
X138398285Y-152987357D01*
X138417333Y-152949261D01*
X138417333Y-152625452D01*
X138817333Y-153025452D02*
X138588761Y-153025452D01*
X138703047Y-153025452D02*
X138703047Y-152625452D01*
X138664952Y-152682595D01*
X138626857Y-152720690D01*
X138588761Y-152739738D01*
X139198285Y-153025452D02*
X138969714Y-153025452D01*
X139084000Y-153025452D02*
X139084000Y-152625452D01*
X139045904Y-152682595D01*
X139007809Y-152720690D01*
X138969714Y-152739738D01*
%TO.C,U17*%
X110778952Y-161467738D02*
X111102761Y-161467738D01*
X111140857Y-161448690D01*
X111159904Y-161429642D01*
X111178952Y-161391547D01*
X111178952Y-161315357D01*
X111159904Y-161277261D01*
X111140857Y-161258214D01*
X111102761Y-161239166D01*
X110778952Y-161239166D01*
X111178952Y-160839166D02*
X111178952Y-161067738D01*
X111178952Y-160953452D02*
X110778952Y-160953452D01*
X110836095Y-160991547D01*
X110874190Y-161029642D01*
X110893238Y-161067738D01*
X110778952Y-160705833D02*
X110778952Y-160439166D01*
X111178952Y-160610595D01*
%TO.C,U12*%
X118757761Y-146084952D02*
X118757761Y-146408761D01*
X118776809Y-146446857D01*
X118795857Y-146465904D01*
X118833952Y-146484952D01*
X118910142Y-146484952D01*
X118948238Y-146465904D01*
X118967285Y-146446857D01*
X118986333Y-146408761D01*
X118986333Y-146084952D01*
X119386333Y-146484952D02*
X119157761Y-146484952D01*
X119272047Y-146484952D02*
X119272047Y-146084952D01*
X119233952Y-146142095D01*
X119195857Y-146180190D01*
X119157761Y-146199238D01*
X119538714Y-146123047D02*
X119557761Y-146104000D01*
X119595857Y-146084952D01*
X119691095Y-146084952D01*
X119729190Y-146104000D01*
X119748238Y-146123047D01*
X119767285Y-146161142D01*
X119767285Y-146199238D01*
X119748238Y-146256380D01*
X119519666Y-146484952D01*
X119767285Y-146484952D01*
%TO.C,U16*%
X108851761Y-153514452D02*
X108851761Y-153838261D01*
X108870809Y-153876357D01*
X108889857Y-153895404D01*
X108927952Y-153914452D01*
X109004142Y-153914452D01*
X109042238Y-153895404D01*
X109061285Y-153876357D01*
X109080333Y-153838261D01*
X109080333Y-153514452D01*
X109480333Y-153914452D02*
X109251761Y-153914452D01*
X109366047Y-153914452D02*
X109366047Y-153514452D01*
X109327952Y-153571595D01*
X109289857Y-153609690D01*
X109251761Y-153628738D01*
X109823190Y-153514452D02*
X109747000Y-153514452D01*
X109708904Y-153533500D01*
X109689857Y-153552547D01*
X109651761Y-153609690D01*
X109632714Y-153685880D01*
X109632714Y-153838261D01*
X109651761Y-153876357D01*
X109670809Y-153895404D01*
X109708904Y-153914452D01*
X109785095Y-153914452D01*
X109823190Y-153895404D01*
X109842238Y-153876357D01*
X109861285Y-153838261D01*
X109861285Y-153743023D01*
X109842238Y-153704928D01*
X109823190Y-153685880D01*
X109785095Y-153666833D01*
X109708904Y-153666833D01*
X109670809Y-153685880D01*
X109651761Y-153704928D01*
X109632714Y-153743023D01*
%TO.C,U13*%
X107454761Y-149640952D02*
X107454761Y-149964761D01*
X107473809Y-150002857D01*
X107492857Y-150021904D01*
X107530952Y-150040952D01*
X107607142Y-150040952D01*
X107645238Y-150021904D01*
X107664285Y-150002857D01*
X107683333Y-149964761D01*
X107683333Y-149640952D01*
X108083333Y-150040952D02*
X107854761Y-150040952D01*
X107969047Y-150040952D02*
X107969047Y-149640952D01*
X107930952Y-149698095D01*
X107892857Y-149736190D01*
X107854761Y-149755238D01*
X108216666Y-149640952D02*
X108464285Y-149640952D01*
X108330952Y-149793333D01*
X108388095Y-149793333D01*
X108426190Y-149812380D01*
X108445238Y-149831428D01*
X108464285Y-149869523D01*
X108464285Y-149964761D01*
X108445238Y-150002857D01*
X108426190Y-150021904D01*
X108388095Y-150040952D01*
X108273809Y-150040952D01*
X108235714Y-150021904D01*
X108216666Y-150002857D01*
%TO.C,U18*%
X101317452Y-147561238D02*
X101641261Y-147561238D01*
X101679357Y-147542190D01*
X101698404Y-147523142D01*
X101717452Y-147485047D01*
X101717452Y-147408857D01*
X101698404Y-147370761D01*
X101679357Y-147351714D01*
X101641261Y-147332666D01*
X101317452Y-147332666D01*
X101717452Y-146932666D02*
X101717452Y-147161238D01*
X101717452Y-147046952D02*
X101317452Y-147046952D01*
X101374595Y-147085047D01*
X101412690Y-147123142D01*
X101431738Y-147161238D01*
X101488880Y-146704095D02*
X101469833Y-146742190D01*
X101450785Y-146761238D01*
X101412690Y-146780285D01*
X101393642Y-146780285D01*
X101355547Y-146761238D01*
X101336500Y-146742190D01*
X101317452Y-146704095D01*
X101317452Y-146627904D01*
X101336500Y-146589809D01*
X101355547Y-146570761D01*
X101393642Y-146551714D01*
X101412690Y-146551714D01*
X101450785Y-146570761D01*
X101469833Y-146589809D01*
X101488880Y-146627904D01*
X101488880Y-146704095D01*
X101507928Y-146742190D01*
X101526976Y-146761238D01*
X101565071Y-146780285D01*
X101641261Y-146780285D01*
X101679357Y-146761238D01*
X101698404Y-146742190D01*
X101717452Y-146704095D01*
X101717452Y-146627904D01*
X101698404Y-146589809D01*
X101679357Y-146570761D01*
X101641261Y-146551714D01*
X101565071Y-146551714D01*
X101526976Y-146570761D01*
X101507928Y-146589809D01*
X101488880Y-146627904D01*
%TO.C,D4*%
X94065761Y-125910952D02*
X94065761Y-125510952D01*
X94161000Y-125510952D01*
X94218142Y-125530000D01*
X94256238Y-125568095D01*
X94275285Y-125606190D01*
X94294333Y-125682380D01*
X94294333Y-125739523D01*
X94275285Y-125815714D01*
X94256238Y-125853809D01*
X94218142Y-125891904D01*
X94161000Y-125910952D01*
X94065761Y-125910952D01*
X94637190Y-125644285D02*
X94637190Y-125910952D01*
X94541952Y-125491904D02*
X94446714Y-125777619D01*
X94694333Y-125777619D01*
%TO.C,U6*%
X104533738Y-142592452D02*
X104533738Y-142916261D01*
X104552785Y-142954357D01*
X104571833Y-142973404D01*
X104609928Y-142992452D01*
X104686119Y-142992452D01*
X104724214Y-142973404D01*
X104743261Y-142954357D01*
X104762309Y-142916261D01*
X104762309Y-142592452D01*
X105124214Y-142592452D02*
X105048023Y-142592452D01*
X105009928Y-142611500D01*
X104990880Y-142630547D01*
X104952785Y-142687690D01*
X104933738Y-142763880D01*
X104933738Y-142916261D01*
X104952785Y-142954357D01*
X104971833Y-142973404D01*
X105009928Y-142992452D01*
X105086119Y-142992452D01*
X105124214Y-142973404D01*
X105143261Y-142954357D01*
X105162309Y-142916261D01*
X105162309Y-142821023D01*
X105143261Y-142782928D01*
X105124214Y-142763880D01*
X105086119Y-142744833D01*
X105009928Y-142744833D01*
X104971833Y-142763880D01*
X104952785Y-142782928D01*
X104933738Y-142821023D01*
%TO.C,U5*%
X115773238Y-138528452D02*
X115773238Y-138852261D01*
X115792285Y-138890357D01*
X115811333Y-138909404D01*
X115849428Y-138928452D01*
X115925619Y-138928452D01*
X115963714Y-138909404D01*
X115982761Y-138890357D01*
X116001809Y-138852261D01*
X116001809Y-138528452D01*
X116382761Y-138528452D02*
X116192285Y-138528452D01*
X116173238Y-138718928D01*
X116192285Y-138699880D01*
X116230380Y-138680833D01*
X116325619Y-138680833D01*
X116363714Y-138699880D01*
X116382761Y-138718928D01*
X116401809Y-138757023D01*
X116401809Y-138852261D01*
X116382761Y-138890357D01*
X116363714Y-138909404D01*
X116325619Y-138928452D01*
X116230380Y-138928452D01*
X116192285Y-138909404D01*
X116173238Y-138890357D01*
%TO.C,U4*%
X128600238Y-135924952D02*
X128600238Y-136248761D01*
X128619285Y-136286857D01*
X128638333Y-136305904D01*
X128676428Y-136324952D01*
X128752619Y-136324952D01*
X128790714Y-136305904D01*
X128809761Y-136286857D01*
X128828809Y-136248761D01*
X128828809Y-135924952D01*
X129190714Y-136058285D02*
X129190714Y-136324952D01*
X129095476Y-135905904D02*
X129000238Y-136191619D01*
X129247857Y-136191619D01*
%TO.C,U2*%
X139077738Y-123605952D02*
X139077738Y-123929761D01*
X139096785Y-123967857D01*
X139115833Y-123986904D01*
X139153928Y-124005952D01*
X139230119Y-124005952D01*
X139268214Y-123986904D01*
X139287261Y-123967857D01*
X139306309Y-123929761D01*
X139306309Y-123605952D01*
X139477738Y-123644047D02*
X139496785Y-123625000D01*
X139534880Y-123605952D01*
X139630119Y-123605952D01*
X139668214Y-123625000D01*
X139687261Y-123644047D01*
X139706309Y-123682142D01*
X139706309Y-123720238D01*
X139687261Y-123777380D01*
X139458690Y-124005952D01*
X139706309Y-124005952D01*
%TO.C,U14*%
X123647261Y-158848452D02*
X123647261Y-159172261D01*
X123666309Y-159210357D01*
X123685357Y-159229404D01*
X123723452Y-159248452D01*
X123799642Y-159248452D01*
X123837738Y-159229404D01*
X123856785Y-159210357D01*
X123875833Y-159172261D01*
X123875833Y-158848452D01*
X124275833Y-159248452D02*
X124047261Y-159248452D01*
X124161547Y-159248452D02*
X124161547Y-158848452D01*
X124123452Y-158905595D01*
X124085357Y-158943690D01*
X124047261Y-158962738D01*
X124618690Y-158981785D02*
X124618690Y-159248452D01*
X124523452Y-158829404D02*
X124428214Y-159115119D01*
X124675833Y-159115119D01*
%TO.C,D1*%
X94065761Y-130927452D02*
X94065761Y-130527452D01*
X94161000Y-130527452D01*
X94218142Y-130546500D01*
X94256238Y-130584595D01*
X94275285Y-130622690D01*
X94294333Y-130698880D01*
X94294333Y-130756023D01*
X94275285Y-130832214D01*
X94256238Y-130870309D01*
X94218142Y-130908404D01*
X94161000Y-130927452D01*
X94065761Y-130927452D01*
X94675285Y-130927452D02*
X94446714Y-130927452D01*
X94561000Y-130927452D02*
X94561000Y-130527452D01*
X94522904Y-130584595D01*
X94484809Y-130622690D01*
X94446714Y-130641738D01*
%TO.C,D2*%
X94129261Y-129212952D02*
X94129261Y-128812952D01*
X94224500Y-128812952D01*
X94281642Y-128832000D01*
X94319738Y-128870095D01*
X94338785Y-128908190D01*
X94357833Y-128984380D01*
X94357833Y-129041523D01*
X94338785Y-129117714D01*
X94319738Y-129155809D01*
X94281642Y-129193904D01*
X94224500Y-129212952D01*
X94129261Y-129212952D01*
X94510214Y-128851047D02*
X94529261Y-128832000D01*
X94567357Y-128812952D01*
X94662595Y-128812952D01*
X94700690Y-128832000D01*
X94719738Y-128851047D01*
X94738785Y-128889142D01*
X94738785Y-128927238D01*
X94719738Y-128984380D01*
X94491166Y-129212952D01*
X94738785Y-129212952D01*
%TO.C,D3*%
X94129261Y-127561952D02*
X94129261Y-127161952D01*
X94224500Y-127161952D01*
X94281642Y-127181000D01*
X94319738Y-127219095D01*
X94338785Y-127257190D01*
X94357833Y-127333380D01*
X94357833Y-127390523D01*
X94338785Y-127466714D01*
X94319738Y-127504809D01*
X94281642Y-127542904D01*
X94224500Y-127561952D01*
X94129261Y-127561952D01*
X94491166Y-127161952D02*
X94738785Y-127161952D01*
X94605452Y-127314333D01*
X94662595Y-127314333D01*
X94700690Y-127333380D01*
X94719738Y-127352428D01*
X94738785Y-127390523D01*
X94738785Y-127485761D01*
X94719738Y-127523857D01*
X94700690Y-127542904D01*
X94662595Y-127561952D01*
X94548309Y-127561952D01*
X94510214Y-127542904D01*
X94491166Y-127523857D01*
%TO.C,U1*%
X135966238Y-131479952D02*
X135966238Y-131803761D01*
X135985285Y-131841857D01*
X136004333Y-131860904D01*
X136042428Y-131879952D01*
X136118619Y-131879952D01*
X136156714Y-131860904D01*
X136175761Y-131841857D01*
X136194809Y-131803761D01*
X136194809Y-131479952D01*
X136594809Y-131879952D02*
X136366238Y-131879952D01*
X136480523Y-131879952D02*
X136480523Y-131479952D01*
X136442428Y-131537095D01*
X136404333Y-131575190D01*
X136366238Y-131594238D01*
%TO.C,U3*%
X138252238Y-164944452D02*
X138252238Y-165268261D01*
X138271285Y-165306357D01*
X138290333Y-165325404D01*
X138328428Y-165344452D01*
X138404619Y-165344452D01*
X138442714Y-165325404D01*
X138461761Y-165306357D01*
X138480809Y-165268261D01*
X138480809Y-164944452D01*
X138633190Y-164944452D02*
X138880809Y-164944452D01*
X138747476Y-165096833D01*
X138804619Y-165096833D01*
X138842714Y-165115880D01*
X138861761Y-165134928D01*
X138880809Y-165173023D01*
X138880809Y-165268261D01*
X138861761Y-165306357D01*
X138842714Y-165325404D01*
X138804619Y-165344452D01*
X138690333Y-165344452D01*
X138652238Y-165325404D01*
X138633190Y-165306357D01*
%TO.C,J9*%
X95745952Y-163328333D02*
X96031666Y-163328333D01*
X96088809Y-163347380D01*
X96126904Y-163385476D01*
X96145952Y-163442619D01*
X96145952Y-163480714D01*
X96145952Y-163118809D02*
X96145952Y-163042619D01*
X96126904Y-163004523D01*
X96107857Y-162985476D01*
X96050714Y-162947380D01*
X95974523Y-162928333D01*
X95822142Y-162928333D01*
X95784047Y-162947380D01*
X95765000Y-162966428D01*
X95745952Y-163004523D01*
X95745952Y-163080714D01*
X95765000Y-163118809D01*
X95784047Y-163137857D01*
X95822142Y-163156904D01*
X95917380Y-163156904D01*
X95955476Y-163137857D01*
X95974523Y-163118809D01*
X95993571Y-163080714D01*
X95993571Y-163004523D01*
X95974523Y-162966428D01*
X95955476Y-162947380D01*
X95917380Y-162928333D01*
%TD*%
M02*
