M48
;DRILL file {KiCad 5.0.2-bee76a0~70~ubuntu18.04.1} date Wed 07 Aug 2019 21:41:45 SAST
;FORMAT={-:-/ absolute / inch / decimal}
FMAT,2
INCH,TZ
T1C0.0118
T2C0.0157
T3C0.0394
T4C0.0591
T5C0.0669
T6C0.1083
%
G90
G05
T1
X3.6Y-4.9
X3.6Y-5.2
X3.6Y-5.5
X3.6Y-5.7
X3.6Y-5.8
X3.6Y-6.1
X3.6Y-6.2
X3.6Y-6.3
X3.605Y-6.015
X3.6678Y-5.46
X3.7Y-5.2
X3.7Y-5.5
X3.7Y-5.7
X3.7Y-5.8
X3.7Y-6.3
X3.7057Y-6.2057
X3.755Y-6.025
X3.765Y-5.37
X3.8Y-5.2
X3.8Y-5.7
X3.8Y-5.8
X3.8Y-6.2
X3.8Y-6.3
X3.8Y-6.4
X3.8Y-6.5
X3.825Y-5.28
X3.825Y-5.385
X3.855Y-5.415
X3.86Y-5.485
X3.86Y-5.515
X3.86Y-6.015
X3.86Y-6.135
X3.865Y-5.32
X3.9Y-4.995
X3.9Y-5.2
X3.9Y-5.3
X3.9Y-5.355
X3.9Y-5.7
X3.9Y-6.2
X3.93Y-5.385
X3.945Y-5.425
X3.945Y-5.47
X3.945Y-5.515
X3.975Y-5.23
X4.Y-6.
X4.Y-6.1
X4.Y-6.2
X4.Y-6.3
X4.01Y-5.07
X4.015Y-5.785
X4.05Y-5.1768
X4.06Y-4.845
X4.065Y-5.285
X4.065Y-5.335
X4.08Y-6.065
X4.085Y-5.475
X4.085Y-5.62
X4.11Y-5.495
X4.12Y-4.91
X4.13Y-6.0098
X4.13Y-6.095
X4.13Y-6.095
X4.1325Y-5.9725
X4.135Y-5.52
X4.135Y-5.585
X4.135Y-5.94
X4.14Y-5.205
X4.15Y-6.395
X4.155Y-6.305
X4.155Y-6.46
X4.16Y-6.35
X4.1625Y-5.915
X4.17Y-5.5422
X4.175Y-5.795
X4.18Y-5.02
X4.1842Y-6.2606
X4.185Y-5.31
X4.185Y-6.1336
X4.19Y-6.0098
X4.1922Y-6.07
X4.1925Y-5.845
X4.2Y-6.5
X4.2025Y-5.895
X4.21Y-5.63
X4.215Y-5.465
X4.22Y-6.18
X4.22Y-6.2245
X4.225Y-6.46
X4.23Y-6.045
X4.235Y-5.79
X4.2425Y-5.895
X4.2475Y-5.8275
X4.25Y-6.01
X4.25Y-6.11
X4.275Y-5.375
X4.277Y-6.1789
X4.285Y-6.225
X4.292Y-5.8805
X4.2985Y-6.1563
X4.3Y-6.045
X4.3Y-6.2695
X4.3Y-6.435
X4.3Y-6.5
X4.305Y-5.375
X4.32Y-5.9
X4.3222Y-5.945
X4.33Y-6.035
X4.335Y-5.37
X4.3364Y-5.875
X4.34Y-6.005
X4.34Y-6.1
X4.34Y-6.17
X4.34Y-6.295
X4.34Y-6.345
X4.34Y-6.4
X4.35Y-5.345
X4.375Y-6.1
X4.375Y-6.175
X4.38Y-6.065
X4.3836Y-5.875
X4.385Y-4.905
X4.385Y-6.215
X4.395Y-5.91
X4.395Y-5.985
X4.4Y-6.3
X4.4Y-6.4
X4.4Y-6.5
X4.415Y-4.91
X4.415Y-6.05
X4.4155Y-5.6797
X4.425Y-6.225
X4.44Y-5.875
X4.448Y-5.345
X4.455Y-6.05
X4.46Y-5.99
X4.47Y-5.845
X4.47Y-6.22
X4.475Y-5.36
X4.495Y-5.66
X4.5Y-5.925
X4.5Y-6.05
X4.5Y-6.3
X4.5Y-6.4
X4.5Y-6.5
X4.505Y-5.955
X4.5068Y-5.8282
X4.51Y-5.995
X4.515Y-5.505
X4.515Y-5.895
X4.515Y-6.22
X4.545Y-5.635
X4.545Y-6.06
X4.55Y-6.1
X4.555Y-6.2
X4.56Y-4.7452
X4.56Y-5.82
X4.5622Y-5.895
X4.565Y-6.165
X4.57Y-5.345
X4.5925Y-5.685
X4.595Y-6.1
X4.6Y-4.865
X4.6Y-5.39
X4.6Y-5.785
X4.6Y-5.9
X4.6Y-6.
X4.6Y-6.2
X4.6Y-6.3
X4.6Y-6.4
X4.6Y-6.5
X4.61Y-6.165
X4.62Y-6.07
X4.635Y-5.775
X4.64Y-5.115
X4.64Y-5.145
X4.64Y-5.355
X4.645Y-5.39
X4.645Y-6.175
X4.65Y-6.04
X4.655Y-6.215
X4.67Y-5.35
X4.685Y-4.955
X4.685Y-5.015
X4.685Y-6.07
X4.69Y-5.775
X4.695Y-6.215
X4.7Y-6.
X4.7Y-6.5
X4.7057Y-5.3543
X4.71Y-6.095
X4.7347Y-5.0291
X4.735Y-5.355
X4.735Y-5.78
X4.745Y-4.66
X4.755Y-6.1
X4.755Y-6.435
X4.77Y-5.19
X4.775Y-5.355
X4.775Y-5.805
X4.78Y-4.7887
X4.78Y-5.9
X4.785Y-5.03
X4.7925Y-5.7525
X4.795Y-5.61
X4.795Y-6.105
X4.8Y-6.5
X4.8003Y-6.0003
X4.805Y-6.435
X4.8093Y-6.1793
X4.82Y-5.045
X4.825Y-5.9
X4.825Y-6.035
X4.825Y-6.085
X4.825Y-6.16
X4.83Y-5.795
X4.83Y-5.795
X4.84Y-6.25
X4.85Y-5.565
X4.855Y-5.2
X4.855Y-5.295
X4.8745Y-5.79
X4.875Y-5.545
X4.88Y-5.1302
X4.88Y-5.915
X4.88Y-6.235
X4.885Y-5.74
X4.89Y-6.04
X4.8925Y-4.8125
X4.9Y-5.525
X4.9Y-6.5
X4.91Y-5.79
X4.92Y-6.245
X4.92Y-6.28
X4.925Y-5.505
X4.935Y-5.92
X4.94Y-6.04
X4.95Y-5.79
X4.95Y-6.1275
X4.95Y-6.1629
X4.955Y-5.395
X4.98Y-5.8
X4.985Y-6.32
X4.985Y-6.36
X4.9854Y-6.1275
X4.9854Y-6.1629
X4.99Y-5.915
X4.995Y-4.93
X4.995Y-4.96
X4.995Y-4.99
X4.9957Y-4.8993
X5.Y-6.5
X5.005Y-5.43
X5.01Y-5.785
X5.015Y-5.855
X5.02Y-5.76
X5.03Y-6.08
X5.035Y-5.915
X5.0375Y-4.8475
X5.045Y-5.43
X5.045Y-5.8448
X5.075Y-5.825
X5.075Y-5.86
X5.08Y-5.915
X5.085Y-5.44
X5.085Y-6.035
X5.1Y-5.7539
X5.1Y-6.19
X5.1Y-6.5
X5.105Y-6.215
X5.115Y-5.825
X5.115Y-5.86
X5.12Y-5.975
X5.12Y-6.06
X5.125Y-6.17
X5.14Y-6.09
X5.145Y-5.7539
X5.145Y-5.8177
X5.16Y-5.85
X5.16Y-5.915
X5.16Y-5.975
X5.165Y-6.17
X5.17Y-5.02
X5.17Y-6.205
X5.1708Y-5.4355
X5.1825Y-4.92
X5.185Y-6.09
X5.2Y-6.
X5.205Y-5.85
X5.205Y-5.915
X5.22Y-5.365
X5.23Y-6.1
X5.2363Y-5.5844
X5.24Y-6.18
X5.24Y-6.21
X5.25Y-5.85
X5.25Y-5.915
X5.27Y-6.1
X5.27Y-6.175
X5.285Y-6.07
X5.295Y-5.3822
X5.295Y-5.495
X5.295Y-5.685
X5.299Y-6.3
X5.3Y-6.2
X5.3Y-6.5
X5.3028Y-6.0028
X5.305Y-5.85
X5.305Y-5.915
X5.315Y-6.175
X5.335Y-4.7925
X5.35Y-6.175
X5.36Y-5.85
X5.36Y-5.915
X5.37Y-6.075
X5.38Y-4.69
X5.39Y-6.175
X5.4Y-6.
X5.4Y-6.205
X5.4Y-6.5
X5.405Y-6.1
X5.415Y-5.85
X5.415Y-5.915
X5.42Y-5.54
X5.42Y-5.57
X5.42Y-5.6009
X5.42Y-5.63
X5.44Y-6.215
X5.445Y-6.09
X5.455Y-5.83
X5.47Y-5.905
X5.47Y-6.045
X5.475Y-6.22
X5.485Y-5.8
X5.5Y-6.
X5.5Y-6.5
X5.505Y-5.87
X5.51Y-6.22
X5.515Y-5.77
X5.52Y-6.045
X5.535Y-5.835
X5.55Y-6.22
X5.56Y-5.725
X5.565Y-6.045
X5.57Y-5.8
X5.58Y-5.96
X5.58Y-5.99
X5.585Y-5.89
X5.585Y-6.22
X5.6Y-5.77
X5.6Y-6.5
X5.61Y-6.05
X5.6205Y-5.0195
X5.625Y-6.165
X5.625Y-6.205
X5.655Y-6.15
X5.66Y-5.42
X5.68Y-6.12
X5.685Y-5.745
X5.685Y-5.785
X5.685Y-6.035
X5.685Y-6.075
X5.69Y-5.825
X5.7Y-6.1
X5.7Y-6.2
X5.7Y-6.3
X5.7Y-6.5
X5.7Y-6.5
X5.705Y-5.855
X5.705Y-5.89
X5.705Y-5.96
X5.705Y-5.995
X5.72Y-5.725
X5.7275Y-4.8925
X5.745Y-5.875
X5.7498Y-4.8225
X5.75Y-5.985
X5.77Y-5.91
X5.77Y-5.95
X5.775Y-4.86
X5.775Y-5.5883
X5.79Y-5.52
X5.8Y-5.8
X5.8Y-5.9
X5.8Y-6.
X5.8Y-6.1
X5.8Y-6.2
X5.8Y-6.3
X5.81Y-5.655
X5.84Y-5.735
X5.89Y-5.56
X5.9Y-5.8
X5.9Y-5.9
X5.9Y-6.
X5.9Y-6.1
X5.9Y-6.2
X5.9Y-6.3
T2
X3.605Y-5.265
X3.605Y-5.315
X3.605Y-5.375
X3.64Y-6.195
X3.6688Y-6.16
X3.88Y-4.895
X4.22Y-4.815
X4.3015Y-5.0165
X4.3015Y-5.0888
X4.3015Y-5.1612
X4.3015Y-5.2341
X4.33Y-4.77
X4.3688Y-5.0165
X4.3688Y-5.0888
X4.3688Y-5.1612
X4.3688Y-5.2341
X4.4519Y-5.0165
X4.4519Y-5.0888
X4.4519Y-5.1612
X4.4519Y-5.2335
X4.5185Y-5.0165
X4.5185Y-5.0888
X4.5185Y-5.1612
X4.5185Y-5.2341
X4.54Y-4.67
X4.5491Y-5.775
X4.58Y-4.67
X4.585Y-5.635
X4.605Y-5.445
X4.642Y-5.445
X4.69Y-6.405
X4.755Y-6.22
X4.84Y-4.81
X4.865Y-6.0025
X4.88Y-6.405
X4.92Y-6.41
X4.98Y-5.24
X4.98Y-5.28
X4.985Y-6.455
X5.Y-5.105
X5.015Y-5.05
X5.0253Y-5.7253
X5.05Y-5.5471
X5.05Y-5.615
X5.05Y-6.285
X5.055Y-6.0025
X5.08Y-5.38
X5.085Y-5.725
X5.1179Y-5.5471
X5.1179Y-5.615
X5.13Y-5.725
X5.16Y-6.25
X5.175Y-5.725
X5.19Y-5.33
X5.205Y-6.23
X5.2132Y-6.2954
X5.22Y-5.75
X5.265Y-5.33
X5.325Y-6.055
X5.51Y-5.32
X5.525Y-5.445
X5.565Y-5.4
X5.565Y-5.44
X5.575Y-4.99
X5.5904Y-5.5516
X5.591Y-5.619
X5.605Y-5.375
X5.6282Y-6.3054
X5.6282Y-6.3554
X5.6282Y-6.4554
X5.645Y-5.375
X5.6584Y-5.6196
X5.6656Y-5.5444
X5.6822Y-5.3897
X5.715Y-5.44
T3
X5.8941Y-4.9063
X5.8941Y-5.0063
X5.8925Y-5.2225
X5.6Y-5.22
X4.675Y-5.675
X5.455Y-5.22
X3.7941Y-4.5063
X3.7941Y-4.5972
X3.8941Y-4.5063
X3.8941Y-4.6063
X3.9941Y-4.5063
X3.9941Y-4.6063
X4.0941Y-4.5063
X4.0941Y-4.6063
X4.1941Y-4.5063
X4.1941Y-4.6063
X4.2941Y-4.5063
X4.2941Y-4.6063
X4.3941Y-4.5063
X4.3941Y-4.6063
X4.4941Y-4.5063
X4.4941Y-4.6063
X4.5941Y-4.5063
X4.5941Y-4.6063
X4.6941Y-4.5063
X4.6941Y-4.6063
X4.7941Y-4.5063
X4.7941Y-4.6063
X4.8941Y-4.5063
X4.8941Y-4.6063
X4.9941Y-4.5063
X4.9941Y-4.6063
X5.0941Y-4.5063
X5.0941Y-4.6063
X5.1941Y-4.5063
X5.1941Y-4.6063
X5.2941Y-4.5063
X5.2941Y-4.6063
X5.3941Y-4.5063
X5.3941Y-4.6063
X5.4941Y-4.5063
X5.4941Y-4.6063
X5.5941Y-4.5063
X5.5941Y-4.6063
X5.6941Y-4.5063
X5.6941Y-4.6063
X5.21Y-6.48
X4.12Y-5.865
T4
X3.975Y-6.425
T5
X3.875Y-6.325
X3.875Y-6.525
X4.075Y-6.325
X4.075Y-6.525
T6
X3.6024Y-6.4764
X3.6024Y-4.5472
X5.8858Y-4.5472
X5.8858Y-6.4764
T0
M30
