%TF.GenerationSoftware,KiCad,Pcbnew,5.0.2-bee76a0~70~ubuntu18.04.1*%
%TF.CreationDate,2019-08-07T21:41:43+02:00*%
%TF.ProjectId,lohpi,6c6f6870-692e-46b6-9963-61645f706362,rev?*%
%TF.SameCoordinates,Original*%
%TF.FileFunction,Soldermask,Top*%
%TF.FilePolarity,Negative*%
%FSLAX46Y46*%
G04 Gerber Fmt 4.6, Leading zero omitted, Abs format (unit mm)*
G04 Created by KiCad (PCBNEW 5.0.2-bee76a0~70~ubuntu18.04.1) date Wed 07 Aug 2019 21:41:43 SAST*
%MOMM*%
%LPD*%
G01*
G04 APERTURE LIST*
%ADD10C,0.100000*%
G04 APERTURE END LIST*
D10*
G36*
X103825857Y-164677272D02*
X104026042Y-164760191D01*
X104206213Y-164880578D01*
X104359422Y-165033787D01*
X104479809Y-165213958D01*
X104562728Y-165414143D01*
X104605000Y-165626658D01*
X104605000Y-165843342D01*
X104562728Y-166055857D01*
X104479809Y-166256042D01*
X104359422Y-166436213D01*
X104206213Y-166589422D01*
X104026042Y-166709809D01*
X103825857Y-166792728D01*
X103613342Y-166835000D01*
X103396658Y-166835000D01*
X103184143Y-166792728D01*
X102983958Y-166709809D01*
X102803787Y-166589422D01*
X102650578Y-166436213D01*
X102530191Y-166256042D01*
X102447272Y-166055857D01*
X102405000Y-165843342D01*
X102405000Y-165626658D01*
X102447272Y-165414143D01*
X102530191Y-165213958D01*
X102650578Y-165033787D01*
X102803787Y-164880578D01*
X102983958Y-164760191D01*
X103184143Y-164677272D01*
X103396658Y-164635000D01*
X103613342Y-164635000D01*
X103825857Y-164677272D01*
X103825857Y-164677272D01*
G37*
G36*
X98745857Y-164677272D02*
X98946042Y-164760191D01*
X99126213Y-164880578D01*
X99279422Y-165033787D01*
X99399809Y-165213958D01*
X99482728Y-165414143D01*
X99525000Y-165626658D01*
X99525000Y-165843342D01*
X99482728Y-166055857D01*
X99399809Y-166256042D01*
X99279422Y-166436213D01*
X99126213Y-166589422D01*
X98946042Y-166709809D01*
X98745857Y-166792728D01*
X98533342Y-166835000D01*
X98316658Y-166835000D01*
X98104143Y-166792728D01*
X97903958Y-166709809D01*
X97723787Y-166589422D01*
X97570578Y-166436213D01*
X97450191Y-166256042D01*
X97367272Y-166055857D01*
X97325000Y-165843342D01*
X97325000Y-165626658D01*
X97367272Y-165414143D01*
X97450191Y-165213958D01*
X97570578Y-165033787D01*
X97723787Y-164880578D01*
X97903958Y-164760191D01*
X98104143Y-164677272D01*
X98316658Y-164635000D01*
X98533342Y-164635000D01*
X98745857Y-164677272D01*
X98745857Y-164677272D01*
G37*
G36*
X133184000Y-165442000D02*
X131484000Y-165442000D01*
X131484000Y-163742000D01*
X133184000Y-163742000D01*
X133184000Y-165442000D01*
X133184000Y-165442000D01*
G37*
G36*
X136585734Y-164267130D02*
X135035734Y-164267130D01*
X135035734Y-163667130D01*
X136585734Y-163667130D01*
X136585734Y-164267130D01*
X136585734Y-164267130D01*
G37*
G36*
X141985734Y-164267130D02*
X140435734Y-164267130D01*
X140435734Y-163667130D01*
X141985734Y-163667130D01*
X141985734Y-164267130D01*
X141985734Y-164267130D01*
G37*
G36*
X129801000Y-164205000D02*
X129001000Y-164205000D01*
X129001000Y-163455000D01*
X129801000Y-163455000D01*
X129801000Y-164205000D01*
X129801000Y-164205000D01*
G37*
G36*
X128301000Y-164205000D02*
X127501000Y-164205000D01*
X127501000Y-163455000D01*
X128301000Y-163455000D01*
X128301000Y-164205000D01*
X128301000Y-164205000D01*
G37*
G36*
X101140770Y-162210372D02*
X101256689Y-162233429D01*
X101438678Y-162308811D01*
X101602463Y-162418249D01*
X101741751Y-162557537D01*
X101851189Y-162721322D01*
X101926571Y-162903311D01*
X101965000Y-163096509D01*
X101965000Y-163293491D01*
X101926571Y-163486689D01*
X101851189Y-163668678D01*
X101741751Y-163832463D01*
X101602463Y-163971751D01*
X101438678Y-164081189D01*
X101256689Y-164156571D01*
X101140770Y-164179628D01*
X101063493Y-164195000D01*
X100866507Y-164195000D01*
X100789230Y-164179628D01*
X100673311Y-164156571D01*
X100491322Y-164081189D01*
X100327537Y-163971751D01*
X100188249Y-163832463D01*
X100078811Y-163668678D01*
X100003429Y-163486689D01*
X99965000Y-163293491D01*
X99965000Y-163096509D01*
X100003429Y-162903311D01*
X100078811Y-162721322D01*
X100188249Y-162557537D01*
X100327537Y-162418249D01*
X100491322Y-162308811D01*
X100673311Y-162233429D01*
X100789230Y-162210372D01*
X100866507Y-162195000D01*
X101063493Y-162195000D01*
X101140770Y-162210372D01*
X101140770Y-162210372D01*
G37*
G36*
X126233200Y-163279000D02*
X125633200Y-163279000D01*
X125633200Y-162879000D01*
X126233200Y-162879000D01*
X126233200Y-163279000D01*
X126233200Y-163279000D01*
G37*
G36*
X123313000Y-163029000D02*
X122813000Y-163029000D01*
X122813000Y-162429000D01*
X123313000Y-162429000D01*
X123313000Y-163029000D01*
X123313000Y-163029000D01*
G37*
G36*
X141985734Y-162997130D02*
X140435734Y-162997130D01*
X140435734Y-162397130D01*
X141985734Y-162397130D01*
X141985734Y-162997130D01*
X141985734Y-162997130D01*
G37*
G36*
X136585734Y-162997130D02*
X135035734Y-162997130D01*
X135035734Y-162397130D01*
X136585734Y-162397130D01*
X136585734Y-162997130D01*
X136585734Y-162997130D01*
G37*
G36*
X120265000Y-162944000D02*
X119765000Y-162944000D01*
X119765000Y-162344000D01*
X120265000Y-162344000D01*
X120265000Y-162944000D01*
X120265000Y-162944000D01*
G37*
G36*
X122347000Y-162829000D02*
X121747000Y-162829000D01*
X121747000Y-162429000D01*
X122347000Y-162429000D01*
X122347000Y-162829000D01*
X122347000Y-162829000D01*
G37*
G36*
X121331000Y-162829000D02*
X120731000Y-162829000D01*
X120731000Y-162429000D01*
X121331000Y-162429000D01*
X121331000Y-162829000D01*
X121331000Y-162829000D01*
G37*
G36*
X127924000Y-162702000D02*
X127224000Y-162702000D01*
X127224000Y-161402000D01*
X127924000Y-161402000D01*
X127924000Y-162702000D01*
X127924000Y-162702000D01*
G37*
G36*
X129824000Y-162702000D02*
X129124000Y-162702000D01*
X129124000Y-161402000D01*
X129824000Y-161402000D01*
X129824000Y-162702000D01*
X129824000Y-162702000D01*
G37*
G36*
X144600734Y-162692130D02*
X143850734Y-162692130D01*
X143850734Y-161892130D01*
X144600734Y-161892130D01*
X144600734Y-162692130D01*
X144600734Y-162692130D01*
G37*
G36*
X109545000Y-162509000D02*
X108735000Y-162509000D01*
X108735000Y-161459000D01*
X109545000Y-161459000D01*
X109545000Y-162509000D01*
X109545000Y-162509000D01*
G37*
G36*
X108355000Y-162509000D02*
X107545000Y-162509000D01*
X107545000Y-161459000D01*
X108355000Y-161459000D01*
X108355000Y-162509000D01*
X108355000Y-162509000D01*
G37*
G36*
X107165000Y-162509000D02*
X106355000Y-162509000D01*
X106355000Y-161459000D01*
X107165000Y-161459000D01*
X107165000Y-162509000D01*
X107165000Y-162509000D01*
G37*
G36*
X130945000Y-162502000D02*
X130445000Y-162502000D01*
X130445000Y-161602000D01*
X130945000Y-161602000D01*
X130945000Y-162502000D01*
X130945000Y-162502000D01*
G37*
G36*
X132445000Y-162502000D02*
X131945000Y-162502000D01*
X131945000Y-161602000D01*
X132445000Y-161602000D01*
X132445000Y-162502000D01*
X132445000Y-162502000D01*
G37*
G36*
X126233200Y-162379000D02*
X125633200Y-162379000D01*
X125633200Y-161979000D01*
X126233200Y-161979000D01*
X126233200Y-162379000D01*
X126233200Y-162379000D01*
G37*
G36*
X123313000Y-161929000D02*
X122813000Y-161929000D01*
X122813000Y-161329000D01*
X123313000Y-161329000D01*
X123313000Y-161929000D01*
X123313000Y-161929000D01*
G37*
G36*
X122347000Y-161929000D02*
X121747000Y-161929000D01*
X121747000Y-161529000D01*
X122347000Y-161529000D01*
X122347000Y-161929000D01*
X122347000Y-161929000D01*
G37*
G36*
X121331000Y-161929000D02*
X120731000Y-161929000D01*
X120731000Y-161529000D01*
X121331000Y-161529000D01*
X121331000Y-161929000D01*
X121331000Y-161929000D01*
G37*
G36*
X120265000Y-161844000D02*
X119765000Y-161844000D01*
X119765000Y-161244000D01*
X120265000Y-161244000D01*
X120265000Y-161844000D01*
X120265000Y-161844000D01*
G37*
G36*
X98745857Y-159597272D02*
X98946042Y-159680191D01*
X99126213Y-159800578D01*
X99279422Y-159953787D01*
X99399809Y-160133958D01*
X99482728Y-160334143D01*
X99525000Y-160546658D01*
X99525000Y-160763342D01*
X99482728Y-160975857D01*
X99399809Y-161176042D01*
X99399807Y-161176045D01*
X99297606Y-161329000D01*
X99279422Y-161356213D01*
X99126213Y-161509422D01*
X98946042Y-161629809D01*
X98745857Y-161712728D01*
X98533342Y-161755000D01*
X98316658Y-161755000D01*
X98104143Y-161712728D01*
X97903958Y-161629809D01*
X97723787Y-161509422D01*
X97570578Y-161356213D01*
X97552395Y-161329000D01*
X97450193Y-161176045D01*
X97450191Y-161176042D01*
X97367272Y-160975857D01*
X97325000Y-160763342D01*
X97325000Y-160546658D01*
X97367272Y-160334143D01*
X97450191Y-160133958D01*
X97570578Y-159953787D01*
X97723787Y-159800578D01*
X97903958Y-159680191D01*
X98104143Y-159597272D01*
X98316658Y-159555000D01*
X98533342Y-159555000D01*
X98745857Y-159597272D01*
X98745857Y-159597272D01*
G37*
G36*
X103825857Y-159597272D02*
X104026042Y-159680191D01*
X104206213Y-159800578D01*
X104359422Y-159953787D01*
X104479809Y-160133958D01*
X104562728Y-160334143D01*
X104605000Y-160546658D01*
X104605000Y-160763342D01*
X104562728Y-160975857D01*
X104479809Y-161176042D01*
X104479807Y-161176045D01*
X104377606Y-161329000D01*
X104359422Y-161356213D01*
X104206213Y-161509422D01*
X104026042Y-161629809D01*
X103825857Y-161712728D01*
X103613342Y-161755000D01*
X103396658Y-161755000D01*
X103184143Y-161712728D01*
X102983958Y-161629809D01*
X102803787Y-161509422D01*
X102650578Y-161356213D01*
X102632395Y-161329000D01*
X102530193Y-161176045D01*
X102530191Y-161176042D01*
X102447272Y-160975857D01*
X102405000Y-160763342D01*
X102405000Y-160546658D01*
X102447272Y-160334143D01*
X102530191Y-160133958D01*
X102650578Y-159953787D01*
X102803787Y-159800578D01*
X102983958Y-159680191D01*
X103184143Y-159597272D01*
X103396658Y-159555000D01*
X103613342Y-159555000D01*
X103825857Y-159597272D01*
X103825857Y-159597272D01*
G37*
G36*
X141985734Y-161727130D02*
X140435734Y-161727130D01*
X140435734Y-161127130D01*
X141985734Y-161127130D01*
X141985734Y-161727130D01*
X141985734Y-161727130D01*
G37*
G36*
X136585734Y-161727130D02*
X135035734Y-161727130D01*
X135035734Y-161127130D01*
X136585734Y-161127130D01*
X136585734Y-161727130D01*
X136585734Y-161727130D01*
G37*
G36*
X124718000Y-161667000D02*
X124118000Y-161667000D01*
X124118000Y-161167000D01*
X124718000Y-161167000D01*
X124718000Y-161667000D01*
X124718000Y-161667000D01*
G37*
G36*
X125818000Y-161667000D02*
X125218000Y-161667000D01*
X125218000Y-161167000D01*
X125818000Y-161167000D01*
X125818000Y-161667000D01*
X125818000Y-161667000D01*
G37*
G36*
X133680734Y-161503130D02*
X133180734Y-161503130D01*
X133180734Y-160903130D01*
X133680734Y-160903130D01*
X133680734Y-161503130D01*
X133680734Y-161503130D01*
G37*
G36*
X144600734Y-161192130D02*
X143850734Y-161192130D01*
X143850734Y-160392130D01*
X144600734Y-160392130D01*
X144600734Y-161192130D01*
X144600734Y-161192130D01*
G37*
G36*
X109545000Y-161009000D02*
X108735000Y-161009000D01*
X108735000Y-159309000D01*
X109545000Y-159309000D01*
X109545000Y-161009000D01*
X109545000Y-161009000D01*
G37*
G36*
X129078000Y-160905000D02*
X128478000Y-160905000D01*
X128478000Y-160405000D01*
X129078000Y-160405000D01*
X129078000Y-160905000D01*
X129078000Y-160905000D01*
G37*
G36*
X127978000Y-160905000D02*
X127378000Y-160905000D01*
X127378000Y-160405000D01*
X127978000Y-160405000D01*
X127978000Y-160905000D01*
X127978000Y-160905000D01*
G37*
G36*
X124718000Y-160778000D02*
X124118000Y-160778000D01*
X124118000Y-160278000D01*
X124718000Y-160278000D01*
X124718000Y-160778000D01*
X124718000Y-160778000D01*
G37*
G36*
X125818000Y-160778000D02*
X125218000Y-160778000D01*
X125218000Y-160278000D01*
X125818000Y-160278000D01*
X125818000Y-160778000D01*
X125818000Y-160778000D01*
G37*
G36*
X130333000Y-160649000D02*
X129533000Y-160649000D01*
X129533000Y-159899000D01*
X130333000Y-159899000D01*
X130333000Y-160649000D01*
X130333000Y-160649000D01*
G37*
G36*
X131833000Y-160649000D02*
X131033000Y-160649000D01*
X131033000Y-159899000D01*
X131833000Y-159899000D01*
X131833000Y-160649000D01*
X131833000Y-160649000D01*
G37*
G36*
X136585734Y-160457130D02*
X135035734Y-160457130D01*
X135035734Y-159857130D01*
X136585734Y-159857130D01*
X136585734Y-160457130D01*
X136585734Y-160457130D01*
G37*
G36*
X141985734Y-160457130D02*
X140435734Y-160457130D01*
X140435734Y-159857130D01*
X141985734Y-159857130D01*
X141985734Y-160457130D01*
X141985734Y-160457130D01*
G37*
G36*
X133680734Y-160403130D02*
X133180734Y-160403130D01*
X133180734Y-159803130D01*
X133680734Y-159803130D01*
X133680734Y-160403130D01*
X133680734Y-160403130D01*
G37*
G36*
X108355000Y-160359000D02*
X107545000Y-160359000D01*
X107545000Y-159309000D01*
X108355000Y-159309000D01*
X108355000Y-160359000D01*
X108355000Y-160359000D01*
G37*
G36*
X107165000Y-160359000D02*
X106355000Y-160359000D01*
X106355000Y-159309000D01*
X107165000Y-159309000D01*
X107165000Y-160359000D01*
X107165000Y-160359000D01*
G37*
G36*
X126233200Y-159926200D02*
X125633200Y-159926200D01*
X125633200Y-159526200D01*
X126233200Y-159526200D01*
X126233200Y-159926200D01*
X126233200Y-159926200D01*
G37*
G36*
X127554000Y-159908000D02*
X126954000Y-159908000D01*
X126954000Y-159508000D01*
X127554000Y-159508000D01*
X127554000Y-159908000D01*
X127554000Y-159908000D01*
G37*
G36*
X118776000Y-159506000D02*
X117976000Y-159506000D01*
X117976000Y-158756000D01*
X118776000Y-158756000D01*
X118776000Y-159506000D01*
X118776000Y-159506000D01*
G37*
G36*
X120276000Y-159506000D02*
X119476000Y-159506000D01*
X119476000Y-158756000D01*
X120276000Y-158756000D01*
X120276000Y-159506000D01*
X120276000Y-159506000D01*
G37*
G36*
X126233200Y-159026200D02*
X125633200Y-159026200D01*
X125633200Y-158626200D01*
X126233200Y-158626200D01*
X126233200Y-159026200D01*
X126233200Y-159026200D01*
G37*
G36*
X127554000Y-159008000D02*
X126954000Y-159008000D01*
X126954000Y-158608000D01*
X127554000Y-158608000D01*
X127554000Y-159008000D01*
X127554000Y-159008000D01*
G37*
G36*
X130517000Y-159000000D02*
X129917000Y-159000000D01*
X129917000Y-158500000D01*
X130517000Y-158500000D01*
X130517000Y-159000000D01*
X130517000Y-159000000D01*
G37*
G36*
X129417000Y-159000000D02*
X128817000Y-159000000D01*
X128817000Y-158500000D01*
X129417000Y-158500000D01*
X129417000Y-159000000D01*
X129417000Y-159000000D01*
G37*
G36*
X108200000Y-158711000D02*
X107700000Y-158711000D01*
X107700000Y-158111000D01*
X108200000Y-158111000D01*
X108200000Y-158711000D01*
X108200000Y-158711000D01*
G37*
G36*
X129028000Y-158076000D02*
X128528000Y-158076000D01*
X128528000Y-157476000D01*
X129028000Y-157476000D01*
X129028000Y-158076000D01*
X129028000Y-158076000D01*
G37*
G36*
X126959405Y-154240671D02*
X126987680Y-154249248D01*
X127013740Y-154263177D01*
X127036579Y-154281921D01*
X127055323Y-154304760D01*
X127069252Y-154330820D01*
X127077829Y-154359095D01*
X127080000Y-154381138D01*
X127080000Y-154845862D01*
X127077829Y-154867905D01*
X127069252Y-154896180D01*
X127055323Y-154922240D01*
X127036582Y-154945076D01*
X127036580Y-154945077D01*
X127036579Y-154945079D01*
X127029550Y-154950847D01*
X127010022Y-154966873D01*
X126992695Y-154984201D01*
X126979081Y-155004575D01*
X126969704Y-155027214D01*
X126964923Y-155051248D01*
X126964923Y-155075752D01*
X126969703Y-155099785D01*
X126979081Y-155122424D01*
X126992694Y-155142799D01*
X127010022Y-155160126D01*
X127030396Y-155173740D01*
X127053035Y-155183117D01*
X127077069Y-155187898D01*
X127080877Y-155188085D01*
X127082402Y-155203565D01*
X127089515Y-155227014D01*
X127101066Y-155248625D01*
X127116612Y-155267567D01*
X127135554Y-155283113D01*
X127157165Y-155294664D01*
X127180614Y-155301777D01*
X127205000Y-155304179D01*
X127229386Y-155301777D01*
X127252835Y-155294664D01*
X127274446Y-155283113D01*
X127293388Y-155267567D01*
X127301627Y-155258478D01*
X127318347Y-155238104D01*
X127323421Y-155231921D01*
X127323423Y-155231920D01*
X127323424Y-155231918D01*
X127346260Y-155213177D01*
X127372320Y-155199248D01*
X127400595Y-155190671D01*
X127422638Y-155188500D01*
X127887362Y-155188500D01*
X127909405Y-155190671D01*
X127937680Y-155199248D01*
X127963740Y-155213177D01*
X127986579Y-155231921D01*
X128005323Y-155254760D01*
X128019252Y-155280820D01*
X128027829Y-155309095D01*
X128030725Y-155338500D01*
X128027829Y-155367905D01*
X128019252Y-155396180D01*
X128005323Y-155422240D01*
X127986579Y-155445079D01*
X127963740Y-155463823D01*
X127936730Y-155478260D01*
X127916355Y-155491874D01*
X127899028Y-155509201D01*
X127885415Y-155529576D01*
X127876037Y-155552215D01*
X127871257Y-155576248D01*
X127871257Y-155600753D01*
X127876038Y-155624786D01*
X127885415Y-155647425D01*
X127899029Y-155667800D01*
X127916356Y-155685127D01*
X127936730Y-155698740D01*
X127963740Y-155713177D01*
X127986579Y-155731921D01*
X128005323Y-155754760D01*
X128019252Y-155780820D01*
X128027829Y-155809095D01*
X128030725Y-155838500D01*
X128027829Y-155867905D01*
X128019252Y-155896180D01*
X128005323Y-155922240D01*
X127986579Y-155945079D01*
X127963740Y-155963823D01*
X127936730Y-155978260D01*
X127916355Y-155991874D01*
X127899028Y-156009201D01*
X127885415Y-156029576D01*
X127876037Y-156052215D01*
X127871257Y-156076248D01*
X127871257Y-156100753D01*
X127876038Y-156124786D01*
X127885415Y-156147425D01*
X127899029Y-156167800D01*
X127916356Y-156185127D01*
X127936730Y-156198740D01*
X127963740Y-156213177D01*
X127986579Y-156231921D01*
X128005323Y-156254760D01*
X128019252Y-156280820D01*
X128027829Y-156309095D01*
X128030725Y-156338500D01*
X128027829Y-156367905D01*
X128019252Y-156396180D01*
X128005323Y-156422240D01*
X127986579Y-156445079D01*
X127963740Y-156463823D01*
X127936730Y-156478260D01*
X127916355Y-156491874D01*
X127899028Y-156509201D01*
X127885415Y-156529576D01*
X127876037Y-156552215D01*
X127871257Y-156576248D01*
X127871257Y-156600753D01*
X127876038Y-156624786D01*
X127885415Y-156647425D01*
X127899029Y-156667800D01*
X127916356Y-156685127D01*
X127936730Y-156698740D01*
X127963740Y-156713177D01*
X127986579Y-156731921D01*
X128005323Y-156754760D01*
X128019252Y-156780820D01*
X128027829Y-156809095D01*
X128030725Y-156838500D01*
X128027829Y-156867905D01*
X128019252Y-156896180D01*
X128005323Y-156922240D01*
X127986579Y-156945079D01*
X127963740Y-156963823D01*
X127937680Y-156977752D01*
X127909405Y-156986329D01*
X127887362Y-156988500D01*
X127422638Y-156988500D01*
X127400595Y-156986329D01*
X127372320Y-156977752D01*
X127346260Y-156963823D01*
X127323424Y-156945082D01*
X127323423Y-156945080D01*
X127323421Y-156945079D01*
X127309713Y-156928375D01*
X127301627Y-156918522D01*
X127284299Y-156901195D01*
X127263925Y-156887581D01*
X127241286Y-156878204D01*
X127217252Y-156873423D01*
X127192748Y-156873423D01*
X127168715Y-156878203D01*
X127146076Y-156887581D01*
X127125701Y-156901194D01*
X127108374Y-156918522D01*
X127094760Y-156938896D01*
X127085383Y-156961535D01*
X127080602Y-156985569D01*
X127080415Y-156989377D01*
X127064935Y-156990902D01*
X127041486Y-156998015D01*
X127019875Y-157009566D01*
X127000933Y-157025112D01*
X126985387Y-157044054D01*
X126973836Y-157065665D01*
X126966723Y-157089114D01*
X126964321Y-157113500D01*
X126966723Y-157137886D01*
X126973836Y-157161335D01*
X126985387Y-157182946D01*
X127000933Y-157201888D01*
X127010022Y-157210127D01*
X127013738Y-157213177D01*
X127036579Y-157231921D01*
X127036580Y-157231923D01*
X127036582Y-157231924D01*
X127055323Y-157254760D01*
X127069252Y-157280820D01*
X127077829Y-157309095D01*
X127080000Y-157331138D01*
X127080000Y-157795862D01*
X127077829Y-157817905D01*
X127069252Y-157846180D01*
X127055323Y-157872240D01*
X127036579Y-157895079D01*
X127013739Y-157913824D01*
X126987682Y-157927751D01*
X126959404Y-157936329D01*
X126930000Y-157939225D01*
X126900595Y-157936329D01*
X126872320Y-157927752D01*
X126872318Y-157927751D01*
X126846260Y-157913823D01*
X126823421Y-157895079D01*
X126804677Y-157872240D01*
X126790240Y-157845230D01*
X126776626Y-157824855D01*
X126759299Y-157807528D01*
X126738924Y-157793915D01*
X126716285Y-157784537D01*
X126692252Y-157779757D01*
X126667747Y-157779757D01*
X126643714Y-157784538D01*
X126621075Y-157793915D01*
X126600700Y-157807529D01*
X126583373Y-157824856D01*
X126569760Y-157845230D01*
X126555323Y-157872240D01*
X126536579Y-157895079D01*
X126513739Y-157913824D01*
X126487682Y-157927751D01*
X126459404Y-157936329D01*
X126430000Y-157939225D01*
X126400595Y-157936329D01*
X126372320Y-157927752D01*
X126372318Y-157927751D01*
X126346260Y-157913823D01*
X126323421Y-157895079D01*
X126304677Y-157872240D01*
X126290240Y-157845230D01*
X126276626Y-157824855D01*
X126259299Y-157807528D01*
X126238924Y-157793915D01*
X126216285Y-157784537D01*
X126192252Y-157779757D01*
X126167747Y-157779757D01*
X126143714Y-157784538D01*
X126121075Y-157793915D01*
X126100700Y-157807529D01*
X126083373Y-157824856D01*
X126069760Y-157845230D01*
X126055323Y-157872240D01*
X126036579Y-157895079D01*
X126013739Y-157913824D01*
X125987682Y-157927751D01*
X125987679Y-157927752D01*
X125959404Y-157936329D01*
X125930000Y-157939225D01*
X125900595Y-157936329D01*
X125872320Y-157927752D01*
X125846260Y-157913823D01*
X125823421Y-157895079D01*
X125804677Y-157872240D01*
X125790240Y-157845230D01*
X125776626Y-157824855D01*
X125759299Y-157807528D01*
X125738924Y-157793915D01*
X125716285Y-157784537D01*
X125692252Y-157779757D01*
X125667747Y-157779757D01*
X125643714Y-157784538D01*
X125621075Y-157793915D01*
X125600700Y-157807529D01*
X125583373Y-157824856D01*
X125569760Y-157845230D01*
X125555323Y-157872240D01*
X125536579Y-157895079D01*
X125513739Y-157913824D01*
X125487682Y-157927751D01*
X125487679Y-157927752D01*
X125459404Y-157936329D01*
X125430000Y-157939225D01*
X125400595Y-157936329D01*
X125372320Y-157927752D01*
X125346260Y-157913823D01*
X125323421Y-157895079D01*
X125304676Y-157872239D01*
X125290749Y-157846182D01*
X125282171Y-157817904D01*
X125280000Y-157795861D01*
X125280000Y-157331143D01*
X125282172Y-157309095D01*
X125290749Y-157280820D01*
X125304678Y-157254760D01*
X125323419Y-157231924D01*
X125323421Y-157231923D01*
X125323422Y-157231921D01*
X125346263Y-157213177D01*
X125349979Y-157210127D01*
X125367306Y-157192799D01*
X125380920Y-157172425D01*
X125390297Y-157149786D01*
X125395078Y-157125752D01*
X125395078Y-157113500D01*
X125464321Y-157113500D01*
X125466723Y-157137886D01*
X125473836Y-157161335D01*
X125485387Y-157182946D01*
X125500933Y-157201888D01*
X125510022Y-157210127D01*
X125513738Y-157213177D01*
X125536579Y-157231921D01*
X125536580Y-157231923D01*
X125536582Y-157231924D01*
X125555324Y-157254762D01*
X125569762Y-157281772D01*
X125583376Y-157302146D01*
X125600703Y-157319473D01*
X125621078Y-157333087D01*
X125643717Y-157342464D01*
X125667751Y-157347244D01*
X125692255Y-157347244D01*
X125716288Y-157342463D01*
X125738927Y-157333085D01*
X125759301Y-157319471D01*
X125776628Y-157302144D01*
X125790242Y-157281770D01*
X125790748Y-157280823D01*
X125790749Y-157280820D01*
X125804678Y-157254762D01*
X125804680Y-157254758D01*
X125823419Y-157231924D01*
X125823421Y-157231923D01*
X125823422Y-157231921D01*
X125846263Y-157213177D01*
X125849979Y-157210127D01*
X125867306Y-157192799D01*
X125880920Y-157172425D01*
X125890297Y-157149786D01*
X125895078Y-157125752D01*
X125895078Y-157113500D01*
X125964321Y-157113500D01*
X125966723Y-157137886D01*
X125973836Y-157161335D01*
X125985387Y-157182946D01*
X126000933Y-157201888D01*
X126010022Y-157210127D01*
X126013738Y-157213177D01*
X126036579Y-157231921D01*
X126036580Y-157231923D01*
X126036582Y-157231924D01*
X126055324Y-157254762D01*
X126069762Y-157281772D01*
X126083376Y-157302146D01*
X126100703Y-157319473D01*
X126121078Y-157333087D01*
X126143717Y-157342464D01*
X126167751Y-157347244D01*
X126192255Y-157347244D01*
X126216288Y-157342463D01*
X126238927Y-157333085D01*
X126259301Y-157319471D01*
X126276628Y-157302144D01*
X126290242Y-157281770D01*
X126290748Y-157280823D01*
X126290749Y-157280820D01*
X126304678Y-157254762D01*
X126304680Y-157254758D01*
X126323419Y-157231924D01*
X126323421Y-157231923D01*
X126323422Y-157231921D01*
X126346263Y-157213177D01*
X126349979Y-157210127D01*
X126367306Y-157192799D01*
X126380920Y-157172425D01*
X126390297Y-157149786D01*
X126395078Y-157125752D01*
X126395078Y-157113500D01*
X126464321Y-157113500D01*
X126466723Y-157137886D01*
X126473836Y-157161335D01*
X126485387Y-157182946D01*
X126500933Y-157201888D01*
X126510022Y-157210127D01*
X126513738Y-157213177D01*
X126536579Y-157231921D01*
X126536580Y-157231923D01*
X126536582Y-157231924D01*
X126555324Y-157254762D01*
X126569762Y-157281772D01*
X126583376Y-157302146D01*
X126600703Y-157319473D01*
X126621078Y-157333087D01*
X126643717Y-157342464D01*
X126667751Y-157347244D01*
X126692255Y-157347244D01*
X126716288Y-157342463D01*
X126738927Y-157333085D01*
X126759301Y-157319471D01*
X126776628Y-157302144D01*
X126790242Y-157281770D01*
X126790748Y-157280823D01*
X126790749Y-157280820D01*
X126804678Y-157254762D01*
X126804680Y-157254758D01*
X126823419Y-157231924D01*
X126823421Y-157231923D01*
X126823422Y-157231921D01*
X126846263Y-157213177D01*
X126849979Y-157210127D01*
X126867306Y-157192799D01*
X126880920Y-157172425D01*
X126890297Y-157149786D01*
X126895078Y-157125752D01*
X126895078Y-157101248D01*
X126890298Y-157077215D01*
X126880920Y-157054576D01*
X126867307Y-157034201D01*
X126849979Y-157016874D01*
X126829605Y-157003260D01*
X126806966Y-156993883D01*
X126782932Y-156989102D01*
X126770680Y-156988500D01*
X126589321Y-156988500D01*
X126564935Y-156990902D01*
X126541486Y-156998015D01*
X126519875Y-157009566D01*
X126500933Y-157025112D01*
X126485387Y-157044054D01*
X126473836Y-157065665D01*
X126466723Y-157089114D01*
X126464321Y-157113500D01*
X126395078Y-157113500D01*
X126395078Y-157101248D01*
X126390298Y-157077215D01*
X126380920Y-157054576D01*
X126367307Y-157034201D01*
X126349979Y-157016874D01*
X126329605Y-157003260D01*
X126306966Y-156993883D01*
X126282932Y-156989102D01*
X126270680Y-156988500D01*
X126089321Y-156988500D01*
X126064935Y-156990902D01*
X126041486Y-156998015D01*
X126019875Y-157009566D01*
X126000933Y-157025112D01*
X125985387Y-157044054D01*
X125973836Y-157065665D01*
X125966723Y-157089114D01*
X125964321Y-157113500D01*
X125895078Y-157113500D01*
X125895078Y-157101248D01*
X125890298Y-157077215D01*
X125880920Y-157054576D01*
X125867307Y-157034201D01*
X125849979Y-157016874D01*
X125829605Y-157003260D01*
X125806966Y-156993883D01*
X125782932Y-156989102D01*
X125770680Y-156988500D01*
X125589321Y-156988500D01*
X125564935Y-156990902D01*
X125541486Y-156998015D01*
X125519875Y-157009566D01*
X125500933Y-157025112D01*
X125485387Y-157044054D01*
X125473836Y-157065665D01*
X125466723Y-157089114D01*
X125464321Y-157113500D01*
X125395078Y-157113500D01*
X125395078Y-157101248D01*
X125390298Y-157077215D01*
X125380920Y-157054576D01*
X125367307Y-157034201D01*
X125349979Y-157016874D01*
X125329605Y-157003260D01*
X125306966Y-156993883D01*
X125282932Y-156989102D01*
X125279123Y-156988915D01*
X125277598Y-156973435D01*
X125270485Y-156949986D01*
X125258934Y-156928375D01*
X125243388Y-156909433D01*
X125224446Y-156893887D01*
X125202835Y-156882336D01*
X125179386Y-156875223D01*
X125155000Y-156872821D01*
X125130614Y-156875223D01*
X125107165Y-156882336D01*
X125085554Y-156893887D01*
X125066612Y-156909433D01*
X125058373Y-156918522D01*
X125050287Y-156928375D01*
X125036579Y-156945079D01*
X125036577Y-156945080D01*
X125036576Y-156945082D01*
X125013740Y-156963823D01*
X124987680Y-156977752D01*
X124959405Y-156986329D01*
X124937362Y-156988500D01*
X124472638Y-156988500D01*
X124450595Y-156986329D01*
X124422320Y-156977752D01*
X124396260Y-156963823D01*
X124373421Y-156945079D01*
X124354677Y-156922240D01*
X124340748Y-156896180D01*
X124332171Y-156867905D01*
X124329275Y-156838500D01*
X124332171Y-156809095D01*
X124340748Y-156780820D01*
X124354677Y-156754760D01*
X124373421Y-156731921D01*
X124396260Y-156713177D01*
X124423270Y-156698740D01*
X124443645Y-156685126D01*
X124460972Y-156667799D01*
X124474585Y-156647424D01*
X124483963Y-156624785D01*
X124488743Y-156600752D01*
X124488743Y-156576248D01*
X124921257Y-156576248D01*
X124921257Y-156600753D01*
X124926038Y-156624786D01*
X124935415Y-156647425D01*
X124949029Y-156667800D01*
X124966356Y-156685127D01*
X124986730Y-156698740D01*
X125013740Y-156713177D01*
X125036576Y-156731918D01*
X125036577Y-156731920D01*
X125036579Y-156731921D01*
X125041653Y-156738104D01*
X125058373Y-156758478D01*
X125075701Y-156775805D01*
X125096075Y-156789419D01*
X125118714Y-156798796D01*
X125142748Y-156803577D01*
X125167252Y-156803577D01*
X125191285Y-156798797D01*
X125213924Y-156789419D01*
X125234299Y-156775806D01*
X125251626Y-156758478D01*
X125265240Y-156738104D01*
X125274617Y-156715465D01*
X125279398Y-156691431D01*
X125280000Y-156679179D01*
X125280000Y-156497821D01*
X127080000Y-156497821D01*
X127080000Y-156679179D01*
X127082402Y-156703565D01*
X127089515Y-156727014D01*
X127101066Y-156748625D01*
X127116612Y-156767567D01*
X127135554Y-156783113D01*
X127157165Y-156794664D01*
X127180614Y-156801777D01*
X127205000Y-156804179D01*
X127229386Y-156801777D01*
X127252835Y-156794664D01*
X127274446Y-156783113D01*
X127293388Y-156767567D01*
X127301627Y-156758478D01*
X127318347Y-156738104D01*
X127323421Y-156731921D01*
X127323423Y-156731920D01*
X127323424Y-156731918D01*
X127346260Y-156713177D01*
X127373270Y-156698740D01*
X127393645Y-156685126D01*
X127410972Y-156667799D01*
X127424585Y-156647424D01*
X127433963Y-156624785D01*
X127438743Y-156600752D01*
X127438743Y-156576247D01*
X127433962Y-156552214D01*
X127424585Y-156529575D01*
X127410971Y-156509200D01*
X127393644Y-156491873D01*
X127373270Y-156478260D01*
X127346260Y-156463823D01*
X127323424Y-156445082D01*
X127323423Y-156445080D01*
X127323421Y-156445079D01*
X127309713Y-156428375D01*
X127301627Y-156418522D01*
X127284299Y-156401195D01*
X127263925Y-156387581D01*
X127241286Y-156378204D01*
X127217252Y-156373423D01*
X127192748Y-156373423D01*
X127168715Y-156378203D01*
X127146076Y-156387581D01*
X127125701Y-156401194D01*
X127108374Y-156418522D01*
X127094760Y-156438896D01*
X127085383Y-156461535D01*
X127080602Y-156485569D01*
X127080000Y-156497821D01*
X125280000Y-156497821D01*
X125277598Y-156473435D01*
X125270485Y-156449986D01*
X125258934Y-156428375D01*
X125243388Y-156409433D01*
X125224446Y-156393887D01*
X125202835Y-156382336D01*
X125179386Y-156375223D01*
X125155000Y-156372821D01*
X125130614Y-156375223D01*
X125107165Y-156382336D01*
X125085554Y-156393887D01*
X125066612Y-156409433D01*
X125058373Y-156418522D01*
X125050287Y-156428375D01*
X125036579Y-156445079D01*
X125036577Y-156445080D01*
X125036576Y-156445082D01*
X125013740Y-156463823D01*
X124986730Y-156478260D01*
X124966355Y-156491874D01*
X124949028Y-156509201D01*
X124935415Y-156529576D01*
X124926037Y-156552215D01*
X124921257Y-156576248D01*
X124488743Y-156576248D01*
X124488743Y-156576247D01*
X124483962Y-156552214D01*
X124474585Y-156529575D01*
X124460971Y-156509200D01*
X124443644Y-156491873D01*
X124423270Y-156478260D01*
X124396260Y-156463823D01*
X124373421Y-156445079D01*
X124354677Y-156422240D01*
X124340748Y-156396180D01*
X124332171Y-156367905D01*
X124329275Y-156338500D01*
X124332171Y-156309095D01*
X124340748Y-156280820D01*
X124354677Y-156254760D01*
X124373421Y-156231921D01*
X124396260Y-156213177D01*
X124423270Y-156198740D01*
X124443645Y-156185126D01*
X124460972Y-156167799D01*
X124474585Y-156147424D01*
X124483963Y-156124785D01*
X124488743Y-156100752D01*
X124488743Y-156076248D01*
X124921257Y-156076248D01*
X124921257Y-156100753D01*
X124926038Y-156124786D01*
X124935415Y-156147425D01*
X124949029Y-156167800D01*
X124966356Y-156185127D01*
X124986730Y-156198740D01*
X125013740Y-156213177D01*
X125036576Y-156231918D01*
X125036577Y-156231920D01*
X125036579Y-156231921D01*
X125038285Y-156234000D01*
X125058373Y-156258478D01*
X125075701Y-156275805D01*
X125096075Y-156289419D01*
X125118714Y-156298796D01*
X125142748Y-156303577D01*
X125167252Y-156303577D01*
X125191285Y-156298797D01*
X125213924Y-156289419D01*
X125234299Y-156275806D01*
X125251626Y-156258478D01*
X125265240Y-156238104D01*
X125274617Y-156215465D01*
X125279398Y-156191431D01*
X125280000Y-156179179D01*
X125280000Y-155997821D01*
X127080000Y-155997821D01*
X127080000Y-156179179D01*
X127082402Y-156203565D01*
X127089515Y-156227014D01*
X127101066Y-156248625D01*
X127116612Y-156267567D01*
X127135554Y-156283113D01*
X127157165Y-156294664D01*
X127180614Y-156301777D01*
X127205000Y-156304179D01*
X127229386Y-156301777D01*
X127252835Y-156294664D01*
X127274446Y-156283113D01*
X127293388Y-156267567D01*
X127301627Y-156258478D01*
X127321715Y-156234000D01*
X127323421Y-156231921D01*
X127323423Y-156231920D01*
X127323424Y-156231918D01*
X127346260Y-156213177D01*
X127373270Y-156198740D01*
X127393645Y-156185126D01*
X127410972Y-156167799D01*
X127424585Y-156147424D01*
X127433963Y-156124785D01*
X127438743Y-156100752D01*
X127438743Y-156076247D01*
X127433962Y-156052214D01*
X127424585Y-156029575D01*
X127410971Y-156009200D01*
X127393644Y-155991873D01*
X127373270Y-155978260D01*
X127346260Y-155963823D01*
X127323424Y-155945082D01*
X127323423Y-155945080D01*
X127323421Y-155945079D01*
X127309713Y-155928375D01*
X127301627Y-155918522D01*
X127284299Y-155901195D01*
X127263925Y-155887581D01*
X127241286Y-155878204D01*
X127217252Y-155873423D01*
X127192748Y-155873423D01*
X127168715Y-155878203D01*
X127146076Y-155887581D01*
X127125701Y-155901194D01*
X127108374Y-155918522D01*
X127094760Y-155938896D01*
X127085383Y-155961535D01*
X127080602Y-155985569D01*
X127080000Y-155997821D01*
X125280000Y-155997821D01*
X125277598Y-155973435D01*
X125270485Y-155949986D01*
X125258934Y-155928375D01*
X125243388Y-155909433D01*
X125224446Y-155893887D01*
X125202835Y-155882336D01*
X125179386Y-155875223D01*
X125155000Y-155872821D01*
X125130614Y-155875223D01*
X125107165Y-155882336D01*
X125085554Y-155893887D01*
X125066612Y-155909433D01*
X125058373Y-155918522D01*
X125050287Y-155928375D01*
X125036579Y-155945079D01*
X125036577Y-155945080D01*
X125036576Y-155945082D01*
X125013740Y-155963823D01*
X124986730Y-155978260D01*
X124966355Y-155991874D01*
X124949028Y-156009201D01*
X124935415Y-156029576D01*
X124926037Y-156052215D01*
X124921257Y-156076248D01*
X124488743Y-156076248D01*
X124488743Y-156076247D01*
X124483962Y-156052214D01*
X124474585Y-156029575D01*
X124460971Y-156009200D01*
X124443644Y-155991873D01*
X124423270Y-155978260D01*
X124396260Y-155963823D01*
X124373421Y-155945079D01*
X124354677Y-155922240D01*
X124340748Y-155896180D01*
X124332171Y-155867905D01*
X124329275Y-155838500D01*
X124332171Y-155809095D01*
X124340748Y-155780820D01*
X124354677Y-155754760D01*
X124373421Y-155731921D01*
X124396260Y-155713177D01*
X124423270Y-155698740D01*
X124443645Y-155685126D01*
X124460972Y-155667799D01*
X124474585Y-155647424D01*
X124483963Y-155624785D01*
X124488743Y-155600752D01*
X124488743Y-155576248D01*
X124921257Y-155576248D01*
X124921257Y-155600753D01*
X124926038Y-155624786D01*
X124935415Y-155647425D01*
X124949029Y-155667800D01*
X124966356Y-155685127D01*
X124986730Y-155698740D01*
X125013740Y-155713177D01*
X125036576Y-155731918D01*
X125036577Y-155731920D01*
X125036579Y-155731921D01*
X125041653Y-155738104D01*
X125058373Y-155758478D01*
X125075701Y-155775805D01*
X125096075Y-155789419D01*
X125118714Y-155798796D01*
X125142748Y-155803577D01*
X125167252Y-155803577D01*
X125191285Y-155798797D01*
X125213924Y-155789419D01*
X125234299Y-155775806D01*
X125251626Y-155758478D01*
X125265240Y-155738104D01*
X125274617Y-155715465D01*
X125279398Y-155691431D01*
X125280000Y-155679179D01*
X125280000Y-155497821D01*
X127080000Y-155497821D01*
X127080000Y-155679179D01*
X127082402Y-155703565D01*
X127089515Y-155727014D01*
X127101066Y-155748625D01*
X127116612Y-155767567D01*
X127135554Y-155783113D01*
X127157165Y-155794664D01*
X127180614Y-155801777D01*
X127205000Y-155804179D01*
X127229386Y-155801777D01*
X127252835Y-155794664D01*
X127274446Y-155783113D01*
X127293388Y-155767567D01*
X127301627Y-155758478D01*
X127318347Y-155738104D01*
X127323421Y-155731921D01*
X127323423Y-155731920D01*
X127323424Y-155731918D01*
X127346260Y-155713177D01*
X127373270Y-155698740D01*
X127393645Y-155685126D01*
X127410972Y-155667799D01*
X127424585Y-155647424D01*
X127433963Y-155624785D01*
X127438743Y-155600752D01*
X127438743Y-155576247D01*
X127433962Y-155552214D01*
X127424585Y-155529575D01*
X127410971Y-155509200D01*
X127393644Y-155491873D01*
X127373270Y-155478260D01*
X127346260Y-155463823D01*
X127323424Y-155445082D01*
X127323423Y-155445080D01*
X127323421Y-155445079D01*
X127306123Y-155424000D01*
X127301627Y-155418522D01*
X127284299Y-155401195D01*
X127263925Y-155387581D01*
X127241286Y-155378204D01*
X127217252Y-155373423D01*
X127192748Y-155373423D01*
X127168715Y-155378203D01*
X127146076Y-155387581D01*
X127125701Y-155401194D01*
X127108374Y-155418522D01*
X127094760Y-155438896D01*
X127085383Y-155461535D01*
X127080602Y-155485569D01*
X127080000Y-155497821D01*
X125280000Y-155497821D01*
X125277598Y-155473435D01*
X125270485Y-155449986D01*
X125258934Y-155428375D01*
X125243388Y-155409433D01*
X125224446Y-155393887D01*
X125202835Y-155382336D01*
X125179386Y-155375223D01*
X125155000Y-155372821D01*
X125130614Y-155375223D01*
X125107165Y-155382336D01*
X125085554Y-155393887D01*
X125066612Y-155409433D01*
X125058373Y-155418522D01*
X125053877Y-155424000D01*
X125036579Y-155445079D01*
X125036577Y-155445080D01*
X125036576Y-155445082D01*
X125013740Y-155463823D01*
X124986730Y-155478260D01*
X124966355Y-155491874D01*
X124949028Y-155509201D01*
X124935415Y-155529576D01*
X124926037Y-155552215D01*
X124921257Y-155576248D01*
X124488743Y-155576248D01*
X124488743Y-155576247D01*
X124483962Y-155552214D01*
X124474585Y-155529575D01*
X124460971Y-155509200D01*
X124443644Y-155491873D01*
X124423270Y-155478260D01*
X124396260Y-155463823D01*
X124373421Y-155445079D01*
X124354677Y-155422240D01*
X124340748Y-155396180D01*
X124332171Y-155367905D01*
X124329275Y-155338500D01*
X124332171Y-155309095D01*
X124340748Y-155280820D01*
X124354677Y-155254760D01*
X124373421Y-155231921D01*
X124396260Y-155213177D01*
X124422320Y-155199248D01*
X124450595Y-155190671D01*
X124472638Y-155188500D01*
X124937362Y-155188500D01*
X124959405Y-155190671D01*
X124987680Y-155199248D01*
X125013740Y-155213177D01*
X125036576Y-155231918D01*
X125036577Y-155231920D01*
X125036579Y-155231921D01*
X125041653Y-155238104D01*
X125058373Y-155258478D01*
X125075701Y-155275805D01*
X125096075Y-155289419D01*
X125118714Y-155298796D01*
X125142748Y-155303577D01*
X125167252Y-155303577D01*
X125191285Y-155298797D01*
X125213924Y-155289419D01*
X125234299Y-155275806D01*
X125251626Y-155258478D01*
X125265240Y-155238104D01*
X125274617Y-155215465D01*
X125279398Y-155191431D01*
X125279585Y-155187623D01*
X125295065Y-155186098D01*
X125318514Y-155178985D01*
X125340125Y-155167434D01*
X125359067Y-155151888D01*
X125374613Y-155132946D01*
X125386164Y-155111335D01*
X125393277Y-155087886D01*
X125395679Y-155063500D01*
X125394473Y-155051248D01*
X125464923Y-155051248D01*
X125464923Y-155075752D01*
X125469703Y-155099785D01*
X125479081Y-155122424D01*
X125492694Y-155142799D01*
X125510022Y-155160126D01*
X125530396Y-155173740D01*
X125553035Y-155183117D01*
X125577069Y-155187898D01*
X125589321Y-155188500D01*
X125770679Y-155188500D01*
X125795065Y-155186098D01*
X125818514Y-155178985D01*
X125840125Y-155167434D01*
X125859067Y-155151888D01*
X125874613Y-155132946D01*
X125886164Y-155111335D01*
X125893277Y-155087886D01*
X125895679Y-155063500D01*
X125894473Y-155051248D01*
X125964923Y-155051248D01*
X125964923Y-155075752D01*
X125969703Y-155099785D01*
X125979081Y-155122424D01*
X125992694Y-155142799D01*
X126010022Y-155160126D01*
X126030396Y-155173740D01*
X126053035Y-155183117D01*
X126077069Y-155187898D01*
X126089321Y-155188500D01*
X126270679Y-155188500D01*
X126295065Y-155186098D01*
X126318514Y-155178985D01*
X126340125Y-155167434D01*
X126359067Y-155151888D01*
X126374613Y-155132946D01*
X126386164Y-155111335D01*
X126393277Y-155087886D01*
X126395679Y-155063500D01*
X126394473Y-155051248D01*
X126464923Y-155051248D01*
X126464923Y-155075752D01*
X126469703Y-155099785D01*
X126479081Y-155122424D01*
X126492694Y-155142799D01*
X126510022Y-155160126D01*
X126530396Y-155173740D01*
X126553035Y-155183117D01*
X126577069Y-155187898D01*
X126589321Y-155188500D01*
X126770679Y-155188500D01*
X126795065Y-155186098D01*
X126818514Y-155178985D01*
X126840125Y-155167434D01*
X126859067Y-155151888D01*
X126874613Y-155132946D01*
X126886164Y-155111335D01*
X126893277Y-155087886D01*
X126895679Y-155063500D01*
X126893277Y-155039114D01*
X126886164Y-155015665D01*
X126874613Y-154994054D01*
X126859067Y-154975112D01*
X126849978Y-154966873D01*
X126836668Y-154955950D01*
X126823421Y-154945079D01*
X126823420Y-154945077D01*
X126823418Y-154945076D01*
X126804677Y-154922240D01*
X126790240Y-154895230D01*
X126776626Y-154874855D01*
X126759299Y-154857528D01*
X126738924Y-154843915D01*
X126716285Y-154834537D01*
X126692252Y-154829757D01*
X126667747Y-154829757D01*
X126643714Y-154834538D01*
X126621075Y-154843915D01*
X126600700Y-154857529D01*
X126583373Y-154874856D01*
X126569760Y-154895230D01*
X126555323Y-154922240D01*
X126536582Y-154945076D01*
X126536580Y-154945077D01*
X126536579Y-154945079D01*
X126529550Y-154950847D01*
X126510022Y-154966873D01*
X126492695Y-154984201D01*
X126479081Y-155004575D01*
X126469704Y-155027214D01*
X126464923Y-155051248D01*
X126394473Y-155051248D01*
X126393277Y-155039114D01*
X126386164Y-155015665D01*
X126374613Y-154994054D01*
X126359067Y-154975112D01*
X126349978Y-154966873D01*
X126336668Y-154955950D01*
X126323421Y-154945079D01*
X126323420Y-154945077D01*
X126323418Y-154945076D01*
X126304677Y-154922240D01*
X126290240Y-154895230D01*
X126276626Y-154874855D01*
X126259299Y-154857528D01*
X126238924Y-154843915D01*
X126216285Y-154834537D01*
X126192252Y-154829757D01*
X126167747Y-154829757D01*
X126143714Y-154834538D01*
X126121075Y-154843915D01*
X126100700Y-154857529D01*
X126083373Y-154874856D01*
X126069760Y-154895230D01*
X126055323Y-154922240D01*
X126036582Y-154945076D01*
X126036580Y-154945077D01*
X126036579Y-154945079D01*
X126029550Y-154950847D01*
X126010022Y-154966873D01*
X125992695Y-154984201D01*
X125979081Y-155004575D01*
X125969704Y-155027214D01*
X125964923Y-155051248D01*
X125894473Y-155051248D01*
X125893277Y-155039114D01*
X125886164Y-155015665D01*
X125874613Y-154994054D01*
X125859067Y-154975112D01*
X125849978Y-154966873D01*
X125836668Y-154955950D01*
X125823421Y-154945079D01*
X125823420Y-154945077D01*
X125823418Y-154945076D01*
X125804677Y-154922240D01*
X125790240Y-154895230D01*
X125776626Y-154874855D01*
X125759299Y-154857528D01*
X125738924Y-154843915D01*
X125716285Y-154834537D01*
X125692252Y-154829757D01*
X125667747Y-154829757D01*
X125643714Y-154834538D01*
X125621075Y-154843915D01*
X125600700Y-154857529D01*
X125583373Y-154874856D01*
X125569760Y-154895230D01*
X125555323Y-154922240D01*
X125536582Y-154945076D01*
X125536580Y-154945077D01*
X125536579Y-154945079D01*
X125529550Y-154950847D01*
X125510022Y-154966873D01*
X125492695Y-154984201D01*
X125479081Y-155004575D01*
X125469704Y-155027214D01*
X125464923Y-155051248D01*
X125394473Y-155051248D01*
X125393277Y-155039114D01*
X125386164Y-155015665D01*
X125374613Y-154994054D01*
X125359067Y-154975112D01*
X125349978Y-154966873D01*
X125336668Y-154955950D01*
X125323421Y-154945079D01*
X125323420Y-154945077D01*
X125323418Y-154945076D01*
X125304676Y-154922239D01*
X125290749Y-154896182D01*
X125282171Y-154867904D01*
X125280000Y-154845861D01*
X125280000Y-154381143D01*
X125282172Y-154359095D01*
X125290749Y-154330820D01*
X125304678Y-154304760D01*
X125323422Y-154281921D01*
X125346261Y-154263177D01*
X125372321Y-154249248D01*
X125400596Y-154240671D01*
X125430000Y-154237775D01*
X125459405Y-154240671D01*
X125487680Y-154249248D01*
X125513740Y-154263177D01*
X125536579Y-154281921D01*
X125555324Y-154304762D01*
X125569762Y-154331772D01*
X125583376Y-154352146D01*
X125600703Y-154369473D01*
X125621078Y-154383087D01*
X125643717Y-154392464D01*
X125667751Y-154397244D01*
X125692255Y-154397244D01*
X125716288Y-154392463D01*
X125738927Y-154383085D01*
X125759301Y-154369471D01*
X125776628Y-154352144D01*
X125790242Y-154331770D01*
X125790748Y-154330823D01*
X125790749Y-154330820D01*
X125804678Y-154304762D01*
X125804680Y-154304758D01*
X125823422Y-154281921D01*
X125846261Y-154263177D01*
X125872321Y-154249248D01*
X125900596Y-154240671D01*
X125930000Y-154237775D01*
X125959405Y-154240671D01*
X125987680Y-154249248D01*
X126013740Y-154263177D01*
X126036579Y-154281921D01*
X126055324Y-154304762D01*
X126069762Y-154331772D01*
X126083376Y-154352146D01*
X126100703Y-154369473D01*
X126121078Y-154383087D01*
X126143717Y-154392464D01*
X126167751Y-154397244D01*
X126192255Y-154397244D01*
X126216288Y-154392463D01*
X126238927Y-154383085D01*
X126259301Y-154369471D01*
X126276628Y-154352144D01*
X126290242Y-154331770D01*
X126290748Y-154330823D01*
X126290749Y-154330820D01*
X126304678Y-154304762D01*
X126304680Y-154304758D01*
X126323422Y-154281921D01*
X126346261Y-154263177D01*
X126372321Y-154249248D01*
X126400596Y-154240671D01*
X126430000Y-154237775D01*
X126459405Y-154240671D01*
X126487680Y-154249248D01*
X126513740Y-154263177D01*
X126536579Y-154281921D01*
X126555324Y-154304762D01*
X126569762Y-154331772D01*
X126583376Y-154352146D01*
X126600703Y-154369473D01*
X126621078Y-154383087D01*
X126643717Y-154392464D01*
X126667751Y-154397244D01*
X126692255Y-154397244D01*
X126716288Y-154392463D01*
X126738927Y-154383085D01*
X126759301Y-154369471D01*
X126776628Y-154352144D01*
X126790242Y-154331770D01*
X126790748Y-154330823D01*
X126790749Y-154330820D01*
X126804678Y-154304762D01*
X126804680Y-154304758D01*
X126823422Y-154281921D01*
X126846261Y-154263177D01*
X126872321Y-154249248D01*
X126900596Y-154240671D01*
X126930000Y-154237775D01*
X126959405Y-154240671D01*
X126959405Y-154240671D01*
G37*
G36*
X108200000Y-157611000D02*
X107700000Y-157611000D01*
X107700000Y-157011000D01*
X108200000Y-157011000D01*
X108200000Y-157611000D01*
X108200000Y-157611000D01*
G37*
G36*
X132457000Y-157568000D02*
X131957000Y-157568000D01*
X131957000Y-156968000D01*
X132457000Y-156968000D01*
X132457000Y-157568000D01*
X132457000Y-157568000D01*
G37*
G36*
X112797500Y-157424000D02*
X111747500Y-157424000D01*
X111747500Y-156614000D01*
X112797500Y-156614000D01*
X112797500Y-157424000D01*
X112797500Y-157424000D01*
G37*
G36*
X114947500Y-157424000D02*
X113247500Y-157424000D01*
X113247500Y-156614000D01*
X114947500Y-156614000D01*
X114947500Y-157424000D01*
X114947500Y-157424000D01*
G37*
G36*
X142189000Y-157424000D02*
X140489000Y-157424000D01*
X140489000Y-156614000D01*
X142189000Y-156614000D01*
X142189000Y-157424000D01*
X142189000Y-157424000D01*
G37*
G36*
X140039000Y-157424000D02*
X138989000Y-157424000D01*
X138989000Y-156614000D01*
X140039000Y-156614000D01*
X140039000Y-157424000D01*
X140039000Y-157424000D01*
G37*
G36*
X119130000Y-157222000D02*
X118530000Y-157222000D01*
X118530000Y-156722000D01*
X119130000Y-156722000D01*
X119130000Y-157222000D01*
X119130000Y-157222000D01*
G37*
G36*
X120230000Y-157222000D02*
X119630000Y-157222000D01*
X119630000Y-156722000D01*
X120230000Y-156722000D01*
X120230000Y-157222000D01*
X120230000Y-157222000D01*
G37*
G36*
X138349000Y-157183000D02*
X137749000Y-157183000D01*
X137749000Y-156783000D01*
X138349000Y-156783000D01*
X138349000Y-157183000D01*
X138349000Y-157183000D01*
G37*
G36*
X121458000Y-157177500D02*
X120858000Y-157177500D01*
X120858000Y-156777500D01*
X121458000Y-156777500D01*
X121458000Y-157177500D01*
X121458000Y-157177500D01*
G37*
G36*
X129028000Y-156976000D02*
X128528000Y-156976000D01*
X128528000Y-156376000D01*
X129028000Y-156376000D01*
X129028000Y-156976000D01*
X129028000Y-156976000D01*
G37*
G36*
X132457000Y-156468000D02*
X131957000Y-156468000D01*
X131957000Y-155868000D01*
X132457000Y-155868000D01*
X132457000Y-156468000D01*
X132457000Y-156468000D01*
G37*
G36*
X108600000Y-154419000D02*
X108602402Y-154443386D01*
X108609515Y-154466835D01*
X108621066Y-154488446D01*
X108636612Y-154507388D01*
X108655554Y-154522934D01*
X108677165Y-154534485D01*
X108700614Y-154541598D01*
X108725000Y-154544000D01*
X109100000Y-154544000D01*
X109100000Y-155844000D01*
X108725000Y-155844000D01*
X108700614Y-155846402D01*
X108677165Y-155853515D01*
X108655554Y-155865066D01*
X108636612Y-155880612D01*
X108621066Y-155899554D01*
X108609515Y-155921165D01*
X108602402Y-155944614D01*
X108600000Y-155969000D01*
X108600000Y-156344000D01*
X107300000Y-156344000D01*
X107300000Y-155969000D01*
X107297598Y-155944614D01*
X107290485Y-155921165D01*
X107278934Y-155899554D01*
X107263388Y-155880612D01*
X107244446Y-155865066D01*
X107222835Y-155853515D01*
X107199386Y-155846402D01*
X107175000Y-155844000D01*
X106800000Y-155844000D01*
X106800000Y-154544000D01*
X107175000Y-154544000D01*
X107199386Y-154541598D01*
X107222835Y-154534485D01*
X107244446Y-154522934D01*
X107263388Y-154507388D01*
X107278934Y-154488446D01*
X107290485Y-154466835D01*
X107297598Y-154443386D01*
X107300000Y-154419000D01*
X107300000Y-154044000D01*
X108600000Y-154044000D01*
X108600000Y-154419000D01*
X108600000Y-154419000D01*
G37*
G36*
X138349000Y-156283000D02*
X137749000Y-156283000D01*
X137749000Y-155883000D01*
X138349000Y-155883000D01*
X138349000Y-156283000D01*
X138349000Y-156283000D01*
G37*
G36*
X121458000Y-156277500D02*
X120858000Y-156277500D01*
X120858000Y-155877500D01*
X121458000Y-155877500D01*
X121458000Y-156277500D01*
X121458000Y-156277500D01*
G37*
G36*
X112797500Y-156234000D02*
X111747500Y-156234000D01*
X111747500Y-155424000D01*
X112797500Y-155424000D01*
X112797500Y-156234000D01*
X112797500Y-156234000D01*
G37*
G36*
X142189000Y-156234000D02*
X141139000Y-156234000D01*
X141139000Y-155424000D01*
X142189000Y-155424000D01*
X142189000Y-156234000D01*
X142189000Y-156234000D01*
G37*
G36*
X140039000Y-156234000D02*
X138989000Y-156234000D01*
X138989000Y-155424000D01*
X140039000Y-155424000D01*
X140039000Y-156234000D01*
X140039000Y-156234000D01*
G37*
G36*
X114947500Y-156234000D02*
X113897500Y-156234000D01*
X113897500Y-155424000D01*
X114947500Y-155424000D01*
X114947500Y-156234000D01*
X114947500Y-156234000D01*
G37*
G36*
X137302000Y-156129000D02*
X136902000Y-156129000D01*
X136902000Y-155529000D01*
X137302000Y-155529000D01*
X137302000Y-156129000D01*
X137302000Y-156129000D01*
G37*
G36*
X130433000Y-156129000D02*
X130033000Y-156129000D01*
X130033000Y-155529000D01*
X130433000Y-155529000D01*
X130433000Y-156129000D01*
X130433000Y-156129000D01*
G37*
G36*
X136402000Y-156129000D02*
X136002000Y-156129000D01*
X136002000Y-155529000D01*
X136402000Y-155529000D01*
X136402000Y-156129000D01*
X136402000Y-156129000D01*
G37*
G36*
X131333000Y-156129000D02*
X130933000Y-156129000D01*
X130933000Y-155529000D01*
X131333000Y-155529000D01*
X131333000Y-156129000D01*
X131333000Y-156129000D01*
G37*
G36*
X134581000Y-156079000D02*
X133981000Y-156079000D01*
X133981000Y-155579000D01*
X134581000Y-155579000D01*
X134581000Y-156079000D01*
X134581000Y-156079000D01*
G37*
G36*
X133481000Y-156079000D02*
X132881000Y-156079000D01*
X132881000Y-155579000D01*
X133481000Y-155579000D01*
X133481000Y-156079000D01*
X133481000Y-156079000D01*
G37*
G36*
X111213000Y-156079000D02*
X110613000Y-156079000D01*
X110613000Y-155579000D01*
X111213000Y-155579000D01*
X111213000Y-156079000D01*
X111213000Y-156079000D01*
G37*
G36*
X116082000Y-156079000D02*
X115482000Y-156079000D01*
X115482000Y-155579000D01*
X116082000Y-155579000D01*
X116082000Y-156079000D01*
X116082000Y-156079000D01*
G37*
G36*
X117182000Y-156079000D02*
X116582000Y-156079000D01*
X116582000Y-155579000D01*
X117182000Y-155579000D01*
X117182000Y-156079000D01*
X117182000Y-156079000D01*
G37*
G36*
X110113000Y-156079000D02*
X109513000Y-156079000D01*
X109513000Y-155579000D01*
X110113000Y-155579000D01*
X110113000Y-156079000D01*
X110113000Y-156079000D01*
G37*
G36*
X120093500Y-156065500D02*
X119693500Y-156065500D01*
X119693500Y-155465500D01*
X120093500Y-155465500D01*
X120093500Y-156065500D01*
X120093500Y-156065500D01*
G37*
G36*
X119193500Y-156065500D02*
X118793500Y-156065500D01*
X118793500Y-155465500D01*
X119193500Y-155465500D01*
X119193500Y-156065500D01*
X119193500Y-156065500D01*
G37*
G36*
X103882000Y-156044000D02*
X103382000Y-156044000D01*
X103382000Y-155444000D01*
X103882000Y-155444000D01*
X103882000Y-156044000D01*
X103882000Y-156044000D01*
G37*
G36*
X118360000Y-155790000D02*
X117860000Y-155790000D01*
X117860000Y-155190000D01*
X118360000Y-155190000D01*
X118360000Y-155790000D01*
X118360000Y-155790000D01*
G37*
G36*
X123567000Y-155748000D02*
X123067000Y-155748000D01*
X123067000Y-155148000D01*
X123567000Y-155148000D01*
X123567000Y-155748000D01*
X123567000Y-155748000D01*
G37*
G36*
X129409000Y-155748000D02*
X128909000Y-155748000D01*
X128909000Y-155148000D01*
X129409000Y-155148000D01*
X129409000Y-155748000D01*
X129409000Y-155748000D01*
G37*
G36*
X135555000Y-155717000D02*
X134955000Y-155717000D01*
X134955000Y-155317000D01*
X135555000Y-155317000D01*
X135555000Y-155717000D01*
X135555000Y-155717000D01*
G37*
G36*
X94303000Y-155686000D02*
X93403000Y-155686000D01*
X93403000Y-155186000D01*
X94303000Y-155186000D01*
X94303000Y-155686000D01*
X94303000Y-155686000D01*
G37*
G36*
X92779000Y-155686000D02*
X91879000Y-155686000D01*
X91879000Y-155186000D01*
X92779000Y-155186000D01*
X92779000Y-155686000D01*
X92779000Y-155686000D01*
G37*
G36*
X98294000Y-155155000D02*
X97794000Y-155155000D01*
X97794000Y-154555000D01*
X98294000Y-154555000D01*
X98294000Y-155155000D01*
X98294000Y-155155000D01*
G37*
G36*
X97278000Y-155155000D02*
X96778000Y-155155000D01*
X96778000Y-154555000D01*
X97278000Y-154555000D01*
X97278000Y-155155000D01*
X97278000Y-155155000D01*
G37*
G36*
X112797500Y-155044000D02*
X111747500Y-155044000D01*
X111747500Y-154234000D01*
X112797500Y-154234000D01*
X112797500Y-155044000D01*
X112797500Y-155044000D01*
G37*
G36*
X114947500Y-155044000D02*
X113897500Y-155044000D01*
X113897500Y-154234000D01*
X114947500Y-154234000D01*
X114947500Y-155044000D01*
X114947500Y-155044000D01*
G37*
G36*
X142189000Y-155044000D02*
X141139000Y-155044000D01*
X141139000Y-154234000D01*
X142189000Y-154234000D01*
X142189000Y-155044000D01*
X142189000Y-155044000D01*
G37*
G36*
X140039000Y-155044000D02*
X138989000Y-155044000D01*
X138989000Y-154234000D01*
X140039000Y-154234000D01*
X140039000Y-155044000D01*
X140039000Y-155044000D01*
G37*
G36*
X103882000Y-154944000D02*
X103382000Y-154944000D01*
X103382000Y-154344000D01*
X103882000Y-154344000D01*
X103882000Y-154944000D01*
X103882000Y-154944000D01*
G37*
G36*
X143633000Y-154901000D02*
X143133000Y-154901000D01*
X143133000Y-154301000D01*
X143633000Y-154301000D01*
X143633000Y-154901000D01*
X143633000Y-154901000D01*
G37*
G36*
X135555000Y-154817000D02*
X134955000Y-154817000D01*
X134955000Y-154417000D01*
X135555000Y-154417000D01*
X135555000Y-154817000D01*
X135555000Y-154817000D01*
G37*
G36*
X106041000Y-154732000D02*
X105541000Y-154732000D01*
X105541000Y-154132000D01*
X106041000Y-154132000D01*
X106041000Y-154732000D01*
X106041000Y-154732000D01*
G37*
G36*
X118360000Y-154690000D02*
X117860000Y-154690000D01*
X117860000Y-154090000D01*
X118360000Y-154090000D01*
X118360000Y-154690000D01*
X118360000Y-154690000D01*
G37*
G36*
X123567000Y-154648000D02*
X123067000Y-154648000D01*
X123067000Y-154048000D01*
X123567000Y-154048000D01*
X123567000Y-154648000D01*
X123567000Y-154648000D01*
G37*
G36*
X129409000Y-154648000D02*
X128909000Y-154648000D01*
X128909000Y-154048000D01*
X129409000Y-154048000D01*
X129409000Y-154648000D01*
X129409000Y-154648000D01*
G37*
G36*
X94303000Y-154186000D02*
X93403000Y-154186000D01*
X93403000Y-153686000D01*
X94303000Y-153686000D01*
X94303000Y-154186000D01*
X94303000Y-154186000D01*
G37*
G36*
X92779000Y-154186000D02*
X91879000Y-154186000D01*
X91879000Y-153686000D01*
X92779000Y-153686000D01*
X92779000Y-154186000D01*
X92779000Y-154186000D01*
G37*
G36*
X98294000Y-154055000D02*
X97794000Y-154055000D01*
X97794000Y-153455000D01*
X98294000Y-153455000D01*
X98294000Y-154055000D01*
X98294000Y-154055000D01*
G37*
G36*
X97278000Y-154055000D02*
X96778000Y-154055000D01*
X96778000Y-153455000D01*
X97278000Y-153455000D01*
X97278000Y-154055000D01*
X97278000Y-154055000D01*
G37*
G36*
X103882000Y-153885000D02*
X103382000Y-153885000D01*
X103382000Y-153285000D01*
X103882000Y-153285000D01*
X103882000Y-153885000D01*
X103882000Y-153885000D01*
G37*
G36*
X143633000Y-153801000D02*
X143133000Y-153801000D01*
X143133000Y-153201000D01*
X143633000Y-153201000D01*
X143633000Y-153801000D01*
X143633000Y-153801000D01*
G37*
G36*
X106041000Y-153632000D02*
X105541000Y-153632000D01*
X105541000Y-153032000D01*
X106041000Y-153032000D01*
X106041000Y-153632000D01*
X106041000Y-153632000D01*
G37*
G36*
X126835000Y-153602500D02*
X126235000Y-153602500D01*
X126235000Y-153102500D01*
X126835000Y-153102500D01*
X126835000Y-153602500D01*
X126835000Y-153602500D01*
G37*
G36*
X127935000Y-153602500D02*
X127335000Y-153602500D01*
X127335000Y-153102500D01*
X127935000Y-153102500D01*
X127935000Y-153602500D01*
X127935000Y-153602500D01*
G37*
G36*
X103882000Y-152785000D02*
X103382000Y-152785000D01*
X103382000Y-152185000D01*
X103882000Y-152185000D01*
X103882000Y-152785000D01*
X103882000Y-152785000D01*
G37*
G36*
X127777000Y-152763500D02*
X127377000Y-152763500D01*
X127377000Y-152163500D01*
X127777000Y-152163500D01*
X127777000Y-152763500D01*
X127777000Y-152763500D01*
G37*
G36*
X126877000Y-152763500D02*
X126477000Y-152763500D01*
X126477000Y-152163500D01*
X126877000Y-152163500D01*
X126877000Y-152763500D01*
X126877000Y-152763500D01*
G37*
G36*
X124845000Y-152713500D02*
X124245000Y-152713500D01*
X124245000Y-152213500D01*
X124845000Y-152213500D01*
X124845000Y-152713500D01*
X124845000Y-152713500D01*
G37*
G36*
X125945000Y-152713500D02*
X125345000Y-152713500D01*
X125345000Y-152213500D01*
X125945000Y-152213500D01*
X125945000Y-152713500D01*
X125945000Y-152713500D01*
G37*
G36*
X144248000Y-152539000D02*
X142518000Y-152539000D01*
X142518000Y-152209000D01*
X144248000Y-152209000D01*
X144248000Y-152539000D01*
X144248000Y-152539000D01*
G37*
G36*
X107565000Y-152057000D02*
X106665000Y-152057000D01*
X106665000Y-151757000D01*
X107565000Y-151757000D01*
X107565000Y-152057000D01*
X107565000Y-152057000D01*
G37*
G36*
X109235000Y-152057000D02*
X108335000Y-152057000D01*
X108335000Y-151757000D01*
X109235000Y-151757000D01*
X109235000Y-152057000D01*
X109235000Y-152057000D01*
G37*
G36*
X99540000Y-151903000D02*
X98740000Y-151903000D01*
X98740000Y-150103000D01*
X99540000Y-150103000D01*
X99540000Y-151903000D01*
X99540000Y-151903000D01*
G37*
G36*
X98440000Y-151903000D02*
X97640000Y-151903000D01*
X97640000Y-150103000D01*
X98440000Y-150103000D01*
X98440000Y-151903000D01*
X98440000Y-151903000D01*
G37*
G36*
X97340000Y-151903000D02*
X96540000Y-151903000D01*
X96540000Y-150103000D01*
X97340000Y-150103000D01*
X97340000Y-151903000D01*
X97340000Y-151903000D01*
G37*
G36*
X96240000Y-151903000D02*
X95440000Y-151903000D01*
X95440000Y-150103000D01*
X96240000Y-150103000D01*
X96240000Y-151903000D01*
X96240000Y-151903000D01*
G37*
G36*
X94040000Y-151903000D02*
X93240000Y-151903000D01*
X93240000Y-150103000D01*
X94040000Y-150103000D01*
X94040000Y-151903000D01*
X94040000Y-151903000D01*
G37*
G36*
X92940000Y-151903000D02*
X92140000Y-151903000D01*
X92140000Y-150103000D01*
X92940000Y-150103000D01*
X92940000Y-151903000D01*
X92940000Y-151903000D01*
G37*
G36*
X100590000Y-151903000D02*
X99890000Y-151903000D01*
X99890000Y-150103000D01*
X100590000Y-150103000D01*
X100590000Y-151903000D01*
X100590000Y-151903000D01*
G37*
G36*
X91790000Y-151903000D02*
X91090000Y-151903000D01*
X91090000Y-150103000D01*
X91790000Y-150103000D01*
X91790000Y-151903000D01*
X91790000Y-151903000D01*
G37*
G36*
X95140000Y-151903000D02*
X94340000Y-151903000D01*
X94340000Y-150103000D01*
X95140000Y-150103000D01*
X95140000Y-151903000D01*
X95140000Y-151903000D01*
G37*
G36*
X144248000Y-151549000D02*
X143838000Y-151549000D01*
X143838000Y-151219000D01*
X144248000Y-151219000D01*
X144248000Y-151549000D01*
X144248000Y-151549000D01*
G37*
G36*
X143537200Y-151549000D02*
X142518000Y-151549000D01*
X142518000Y-151219000D01*
X143537200Y-151219000D01*
X143537200Y-151549000D01*
X143537200Y-151549000D01*
G37*
G36*
X113753000Y-151380000D02*
X113153000Y-151380000D01*
X113153000Y-150880000D01*
X113753000Y-150880000D01*
X113753000Y-151380000D01*
X113753000Y-151380000D01*
G37*
G36*
X112653000Y-151380000D02*
X112053000Y-151380000D01*
X112053000Y-150880000D01*
X112653000Y-150880000D01*
X112653000Y-151380000D01*
X112653000Y-151380000D01*
G37*
G36*
X111044000Y-151272000D02*
X110444000Y-151272000D01*
X110444000Y-150872000D01*
X111044000Y-150872000D01*
X111044000Y-151272000D01*
X111044000Y-151272000D01*
G37*
G36*
X130298000Y-151218000D02*
X129798000Y-151218000D01*
X129798000Y-150618000D01*
X130298000Y-150618000D01*
X130298000Y-151218000D01*
X130298000Y-151218000D01*
G37*
G36*
X109235000Y-151157000D02*
X108335000Y-151157000D01*
X108335000Y-150457000D01*
X109235000Y-150457000D01*
X109235000Y-151157000D01*
X109235000Y-151157000D01*
G37*
G36*
X107565000Y-150757000D02*
X106665000Y-150757000D01*
X106665000Y-150457000D01*
X107565000Y-150457000D01*
X107565000Y-150757000D01*
X107565000Y-150757000D01*
G37*
G36*
X141482000Y-150745000D02*
X140882000Y-150745000D01*
X140882000Y-150245000D01*
X141482000Y-150245000D01*
X141482000Y-150745000D01*
X141482000Y-150745000D01*
G37*
G36*
X142582000Y-150745000D02*
X141982000Y-150745000D01*
X141982000Y-150245000D01*
X142582000Y-150245000D01*
X142582000Y-150745000D01*
X142582000Y-150745000D01*
G37*
G36*
X145884000Y-150745000D02*
X145284000Y-150745000D01*
X145284000Y-150245000D01*
X145884000Y-150245000D01*
X145884000Y-150745000D01*
X145884000Y-150745000D01*
G37*
G36*
X144784000Y-150745000D02*
X144184000Y-150745000D01*
X144184000Y-150245000D01*
X144784000Y-150245000D01*
X144784000Y-150745000D01*
X144784000Y-150745000D01*
G37*
G36*
X113426000Y-150414000D02*
X113026000Y-150414000D01*
X113026000Y-149814000D01*
X113426000Y-149814000D01*
X113426000Y-150414000D01*
X113426000Y-150414000D01*
G37*
G36*
X112526000Y-150414000D02*
X112126000Y-150414000D01*
X112126000Y-149814000D01*
X112526000Y-149814000D01*
X112526000Y-150414000D01*
X112526000Y-150414000D01*
G37*
G36*
X111044000Y-150372000D02*
X110444000Y-150372000D01*
X110444000Y-149972000D01*
X111044000Y-149972000D01*
X111044000Y-150372000D01*
X111044000Y-150372000D01*
G37*
G36*
X118703000Y-150312000D02*
X117653000Y-150312000D01*
X117653000Y-149502000D01*
X118703000Y-149502000D01*
X118703000Y-150312000D01*
X118703000Y-150312000D01*
G37*
G36*
X120853000Y-150312000D02*
X119803000Y-150312000D01*
X119803000Y-149502000D01*
X120853000Y-149502000D01*
X120853000Y-150312000D01*
X120853000Y-150312000D01*
G37*
G36*
X130298000Y-150118000D02*
X129798000Y-150118000D01*
X129798000Y-149518000D01*
X130298000Y-149518000D01*
X130298000Y-150118000D01*
X130298000Y-150118000D01*
G37*
G36*
X144318000Y-149824200D02*
X143718000Y-149824200D01*
X143718000Y-149424200D01*
X144318000Y-149424200D01*
X144318000Y-149824200D01*
X144318000Y-149824200D01*
G37*
G36*
X143048000Y-149824200D02*
X142448000Y-149824200D01*
X142448000Y-149424200D01*
X143048000Y-149424200D01*
X143048000Y-149824200D01*
X143048000Y-149824200D01*
G37*
G36*
X105498000Y-149821000D02*
X103798000Y-149821000D01*
X103798000Y-148121000D01*
X105498000Y-148121000D01*
X105498000Y-149821000D01*
X105498000Y-149821000D01*
G37*
G36*
X125618000Y-149779000D02*
X125218000Y-149779000D01*
X125218000Y-149179000D01*
X125618000Y-149179000D01*
X125618000Y-149779000D01*
X125618000Y-149779000D01*
G37*
G36*
X124718000Y-149779000D02*
X124318000Y-149779000D01*
X124318000Y-149179000D01*
X124718000Y-149179000D01*
X124718000Y-149779000D01*
X124718000Y-149779000D01*
G37*
G36*
X126792000Y-149436000D02*
X126192000Y-149436000D01*
X126192000Y-149036000D01*
X126792000Y-149036000D01*
X126792000Y-149436000D01*
X126792000Y-149436000D01*
G37*
G36*
X115066000Y-149144000D02*
X114666000Y-149144000D01*
X114666000Y-148544000D01*
X115066000Y-148544000D01*
X115066000Y-149144000D01*
X115066000Y-149144000D01*
G37*
G36*
X115966000Y-149144000D02*
X115566000Y-149144000D01*
X115566000Y-148544000D01*
X115966000Y-148544000D01*
X115966000Y-149144000D01*
X115966000Y-149144000D01*
G37*
G36*
X118703000Y-149122000D02*
X117653000Y-149122000D01*
X117653000Y-148312000D01*
X118703000Y-148312000D01*
X118703000Y-149122000D01*
X118703000Y-149122000D01*
G37*
G36*
X120853000Y-148342000D02*
X120855402Y-148366386D01*
X120862515Y-148389835D01*
X120874066Y-148411446D01*
X120889612Y-148430388D01*
X120908554Y-148445934D01*
X120930165Y-148457485D01*
X120953614Y-148464598D01*
X120978000Y-148467000D01*
X121670000Y-148467000D01*
X121670000Y-148967000D01*
X120978000Y-148967000D01*
X120953614Y-148969402D01*
X120930165Y-148976515D01*
X120908554Y-148988066D01*
X120889612Y-149003612D01*
X120874066Y-149022554D01*
X120862515Y-149044165D01*
X120855402Y-149067614D01*
X120853000Y-149092000D01*
X120853000Y-149122000D01*
X119803000Y-149122000D01*
X119803000Y-148312000D01*
X120853000Y-148312000D01*
X120853000Y-148342000D01*
X120853000Y-148342000D01*
G37*
G36*
X122770000Y-148967000D02*
X122170000Y-148967000D01*
X122170000Y-148467000D01*
X122770000Y-148467000D01*
X122770000Y-148967000D01*
X122770000Y-148967000D01*
G37*
G36*
X144318000Y-148924200D02*
X143718000Y-148924200D01*
X143718000Y-148524200D01*
X144318000Y-148524200D01*
X144318000Y-148924200D01*
X144318000Y-148924200D01*
G37*
G36*
X143048000Y-148924200D02*
X142448000Y-148924200D01*
X142448000Y-148524200D01*
X143048000Y-148524200D01*
X143048000Y-148924200D01*
X143048000Y-148924200D01*
G37*
G36*
X117140000Y-148801000D02*
X116540000Y-148801000D01*
X116540000Y-148401000D01*
X117140000Y-148401000D01*
X117140000Y-148801000D01*
X117140000Y-148801000D01*
G37*
G36*
X110959000Y-148713000D02*
X110359000Y-148713000D01*
X110359000Y-148213000D01*
X110959000Y-148213000D01*
X110959000Y-148713000D01*
X110959000Y-148713000D01*
G37*
G36*
X109859000Y-148713000D02*
X109259000Y-148713000D01*
X109259000Y-148213000D01*
X109859000Y-148213000D01*
X109859000Y-148713000D01*
X109859000Y-148713000D01*
G37*
G36*
X126792000Y-148536000D02*
X126192000Y-148536000D01*
X126192000Y-148136000D01*
X126792000Y-148136000D01*
X126792000Y-148536000D01*
X126792000Y-148536000D01*
G37*
G36*
X125618000Y-148382000D02*
X125218000Y-148382000D01*
X125218000Y-147782000D01*
X125618000Y-147782000D01*
X125618000Y-148382000D01*
X125618000Y-148382000D01*
G37*
G36*
X124718000Y-148382000D02*
X124318000Y-148382000D01*
X124318000Y-147782000D01*
X124718000Y-147782000D01*
X124718000Y-148382000D01*
X124718000Y-148382000D01*
G37*
G36*
X120853000Y-147932000D02*
X119803000Y-147932000D01*
X119803000Y-147122000D01*
X120853000Y-147122000D01*
X120853000Y-147932000D01*
X120853000Y-147932000D01*
G37*
G36*
X119353000Y-147932000D02*
X117653000Y-147932000D01*
X117653000Y-147122000D01*
X119353000Y-147122000D01*
X119353000Y-147932000D01*
X119353000Y-147932000D01*
G37*
G36*
X117140000Y-147901000D02*
X116540000Y-147901000D01*
X116540000Y-147501000D01*
X117140000Y-147501000D01*
X117140000Y-147901000D01*
X117140000Y-147901000D01*
G37*
G36*
X131822000Y-147789000D02*
X131322000Y-147789000D01*
X131322000Y-147189000D01*
X131822000Y-147189000D01*
X131822000Y-147789000D01*
X131822000Y-147789000D01*
G37*
G36*
X110959000Y-147697000D02*
X110359000Y-147697000D01*
X110359000Y-147197000D01*
X110959000Y-147197000D01*
X110959000Y-147697000D01*
X110959000Y-147697000D01*
G37*
G36*
X109859000Y-147697000D02*
X109259000Y-147697000D01*
X109259000Y-147197000D01*
X109859000Y-147197000D01*
X109859000Y-147697000D01*
X109859000Y-147697000D01*
G37*
G36*
X130221000Y-147316000D02*
X129621000Y-147316000D01*
X129621000Y-146816000D01*
X130221000Y-146816000D01*
X130221000Y-147316000D01*
X130221000Y-147316000D01*
G37*
G36*
X129121000Y-147316000D02*
X128521000Y-147316000D01*
X128521000Y-146816000D01*
X129121000Y-146816000D01*
X129121000Y-147316000D01*
X129121000Y-147316000D01*
G37*
G36*
X112910000Y-147060000D02*
X112110000Y-147060000D01*
X112110000Y-146310000D01*
X112910000Y-146310000D01*
X112910000Y-147060000D01*
X112910000Y-147060000D01*
G37*
G36*
X114410000Y-147060000D02*
X113610000Y-147060000D01*
X113610000Y-146310000D01*
X114410000Y-146310000D01*
X114410000Y-147060000D01*
X114410000Y-147060000D01*
G37*
G36*
X131822000Y-146689000D02*
X131322000Y-146689000D01*
X131322000Y-146089000D01*
X131822000Y-146089000D01*
X131822000Y-146689000D01*
X131822000Y-146689000D01*
G37*
G36*
X111521000Y-146334000D02*
X110221000Y-146334000D01*
X110221000Y-145634000D01*
X111521000Y-145634000D01*
X111521000Y-146334000D01*
X111521000Y-146334000D01*
G37*
G36*
X107944000Y-146184000D02*
X107194000Y-146184000D01*
X107194000Y-145384000D01*
X107944000Y-145384000D01*
X107944000Y-146184000D01*
X107944000Y-146184000D01*
G37*
G36*
X109468000Y-146184000D02*
X108718000Y-146184000D01*
X108718000Y-145384000D01*
X109468000Y-145384000D01*
X109468000Y-146184000D01*
X109468000Y-146184000D01*
G37*
G36*
X106405000Y-146182000D02*
X105345000Y-146182000D01*
X105345000Y-145532000D01*
X106405000Y-145532000D01*
X106405000Y-146182000D01*
X106405000Y-146182000D01*
G37*
G36*
X104205000Y-146182000D02*
X103145000Y-146182000D01*
X103145000Y-145532000D01*
X104205000Y-145532000D01*
X104205000Y-146182000D01*
X104205000Y-146182000D01*
G37*
G36*
X102356000Y-145930000D02*
X101606000Y-145930000D01*
X101606000Y-145130000D01*
X102356000Y-145130000D01*
X102356000Y-145930000D01*
X102356000Y-145930000D01*
G37*
G36*
X146562000Y-145919000D02*
X145962000Y-145919000D01*
X145962000Y-145419000D01*
X146562000Y-145419000D01*
X146562000Y-145919000D01*
X146562000Y-145919000D01*
G37*
G36*
X147662000Y-145919000D02*
X147062000Y-145919000D01*
X147062000Y-145419000D01*
X147662000Y-145419000D01*
X147662000Y-145919000D01*
X147662000Y-145919000D01*
G37*
G36*
X133854000Y-145884000D02*
X133354000Y-145884000D01*
X133354000Y-145284000D01*
X133854000Y-145284000D01*
X133854000Y-145884000D01*
X133854000Y-145884000D01*
G37*
G36*
X139619000Y-145665000D02*
X139019000Y-145665000D01*
X139019000Y-145165000D01*
X139619000Y-145165000D01*
X139619000Y-145665000D01*
X139619000Y-145665000D01*
G37*
G36*
X138519000Y-145665000D02*
X137919000Y-145665000D01*
X137919000Y-145165000D01*
X138519000Y-145165000D01*
X138519000Y-145665000D01*
X138519000Y-145665000D01*
G37*
G36*
X125861000Y-145665000D02*
X125261000Y-145665000D01*
X125261000Y-145165000D01*
X125861000Y-145165000D01*
X125861000Y-145665000D01*
X125861000Y-145665000D01*
G37*
G36*
X126961000Y-145665000D02*
X126361000Y-145665000D01*
X126361000Y-145165000D01*
X126961000Y-145165000D01*
X126961000Y-145665000D01*
X126961000Y-145665000D01*
G37*
G36*
X115785000Y-145538000D02*
X115185000Y-145538000D01*
X115185000Y-145038000D01*
X115785000Y-145038000D01*
X115785000Y-145538000D01*
X115785000Y-145538000D01*
G37*
G36*
X114685000Y-145538000D02*
X114085000Y-145538000D01*
X114085000Y-145038000D01*
X114685000Y-145038000D01*
X114685000Y-145538000D01*
X114685000Y-145538000D01*
G37*
G36*
X132838000Y-145376000D02*
X132338000Y-145376000D01*
X132338000Y-144776000D01*
X132838000Y-144776000D01*
X132838000Y-145376000D01*
X132838000Y-145376000D01*
G37*
G36*
X104205000Y-145232000D02*
X103145000Y-145232000D01*
X103145000Y-144582000D01*
X104205000Y-144582000D01*
X104205000Y-145232000D01*
X104205000Y-145232000D01*
G37*
G36*
X119595000Y-144995000D02*
X117895000Y-144995000D01*
X117895000Y-143295000D01*
X119595000Y-143295000D01*
X119595000Y-144995000D01*
X119595000Y-144995000D01*
G37*
G36*
X147028000Y-144903000D02*
X146428000Y-144903000D01*
X146428000Y-144403000D01*
X147028000Y-144403000D01*
X147028000Y-144903000D01*
X147028000Y-144903000D01*
G37*
G36*
X148128000Y-144903000D02*
X147528000Y-144903000D01*
X147528000Y-144403000D01*
X148128000Y-144403000D01*
X148128000Y-144903000D01*
X148128000Y-144903000D01*
G37*
G36*
X133854000Y-144784000D02*
X133354000Y-144784000D01*
X133354000Y-144184000D01*
X133854000Y-144184000D01*
X133854000Y-144784000D01*
X133854000Y-144784000D01*
G37*
G36*
X107944000Y-144684000D02*
X107194000Y-144684000D01*
X107194000Y-143884000D01*
X107944000Y-143884000D01*
X107944000Y-144684000D01*
X107944000Y-144684000D01*
G37*
G36*
X109468000Y-144684000D02*
X108718000Y-144684000D01*
X108718000Y-143884000D01*
X109468000Y-143884000D01*
X109468000Y-144684000D01*
X109468000Y-144684000D01*
G37*
G36*
X144750000Y-144609000D02*
X141000000Y-144609000D01*
X141000000Y-143909000D01*
X144750000Y-143909000D01*
X144750000Y-144609000D01*
X144750000Y-144609000D01*
G37*
G36*
X131007500Y-144508500D02*
X127257500Y-144508500D01*
X127257500Y-143808500D01*
X131007500Y-143808500D01*
X131007500Y-144508500D01*
X131007500Y-144508500D01*
G37*
G36*
X111521000Y-144434000D02*
X110221000Y-144434000D01*
X110221000Y-143734000D01*
X111521000Y-143734000D01*
X111521000Y-144434000D01*
X111521000Y-144434000D01*
G37*
G36*
X102356000Y-144430000D02*
X101606000Y-144430000D01*
X101606000Y-143630000D01*
X102356000Y-143630000D01*
X102356000Y-144430000D01*
X102356000Y-144430000D01*
G37*
G36*
X106405000Y-144282000D02*
X105345000Y-144282000D01*
X105345000Y-143632000D01*
X106405000Y-143632000D01*
X106405000Y-144282000D01*
X106405000Y-144282000D01*
G37*
G36*
X104205000Y-144282000D02*
X103145000Y-144282000D01*
X103145000Y-143632000D01*
X104205000Y-143632000D01*
X104205000Y-144282000D01*
X104205000Y-144282000D01*
G37*
G36*
X132838000Y-144276000D02*
X132338000Y-144276000D01*
X132338000Y-143676000D01*
X132838000Y-143676000D01*
X132838000Y-144276000D01*
X132838000Y-144276000D01*
G37*
G36*
X140825000Y-143734000D02*
X140125000Y-143734000D01*
X140125000Y-139984000D01*
X140825000Y-139984000D01*
X140825000Y-143734000D01*
X140825000Y-143734000D01*
G37*
G36*
X145625000Y-143734000D02*
X144925000Y-143734000D01*
X144925000Y-139984000D01*
X145625000Y-139984000D01*
X145625000Y-143734000D01*
X145625000Y-143734000D01*
G37*
G36*
X127082500Y-143633500D02*
X126382500Y-143633500D01*
X126382500Y-139883500D01*
X127082500Y-139883500D01*
X127082500Y-143633500D01*
X127082500Y-143633500D01*
G37*
G36*
X131882500Y-143633500D02*
X131182500Y-143633500D01*
X131182500Y-139883500D01*
X131882500Y-139883500D01*
X131882500Y-143633500D01*
X131882500Y-143633500D01*
G37*
G36*
X144600000Y-143584000D02*
X141150000Y-143584000D01*
X141150000Y-140134000D01*
X144600000Y-140134000D01*
X144600000Y-143584000D01*
X144600000Y-143584000D01*
G37*
G36*
X130857500Y-143483500D02*
X127407500Y-143483500D01*
X127407500Y-140033500D01*
X130857500Y-140033500D01*
X130857500Y-143483500D01*
X130857500Y-143483500D01*
G37*
G36*
X102356000Y-143009000D02*
X101606000Y-143009000D01*
X101606000Y-142209000D01*
X102356000Y-142209000D01*
X102356000Y-143009000D01*
X102356000Y-143009000D01*
G37*
G36*
X114548000Y-142997000D02*
X113798000Y-142997000D01*
X113798000Y-142197000D01*
X114548000Y-142197000D01*
X114548000Y-142997000D01*
X114548000Y-142997000D01*
G37*
G36*
X148001000Y-142871000D02*
X147401000Y-142871000D01*
X147401000Y-142371000D01*
X148001000Y-142371000D01*
X148001000Y-142871000D01*
X148001000Y-142871000D01*
G37*
G36*
X149101000Y-142871000D02*
X148501000Y-142871000D01*
X148501000Y-142371000D01*
X149101000Y-142371000D01*
X149101000Y-142871000D01*
X149101000Y-142871000D01*
G37*
G36*
X135131000Y-142744000D02*
X134531000Y-142744000D01*
X134531000Y-142244000D01*
X135131000Y-142244000D01*
X135131000Y-142744000D01*
X135131000Y-142744000D01*
G37*
G36*
X134031000Y-142744000D02*
X133431000Y-142744000D01*
X133431000Y-142244000D01*
X134031000Y-142244000D01*
X134031000Y-142744000D01*
X134031000Y-142744000D01*
G37*
G36*
X111109000Y-142690000D02*
X110609000Y-142690000D01*
X110609000Y-141790000D01*
X111109000Y-141790000D01*
X111109000Y-142690000D01*
X111109000Y-142690000D01*
G37*
G36*
X109609000Y-142690000D02*
X109109000Y-142690000D01*
X109109000Y-141790000D01*
X109609000Y-141790000D01*
X109609000Y-142690000D01*
X109609000Y-142690000D01*
G37*
G36*
X95140000Y-142403000D02*
X94340000Y-142403000D01*
X94340000Y-140603000D01*
X95140000Y-140603000D01*
X95140000Y-142403000D01*
X95140000Y-142403000D01*
G37*
G36*
X99540000Y-142403000D02*
X98740000Y-142403000D01*
X98740000Y-140603000D01*
X99540000Y-140603000D01*
X99540000Y-142403000D01*
X99540000Y-142403000D01*
G37*
G36*
X98440000Y-142403000D02*
X97640000Y-142403000D01*
X97640000Y-140603000D01*
X98440000Y-140603000D01*
X98440000Y-142403000D01*
X98440000Y-142403000D01*
G37*
G36*
X91790000Y-142403000D02*
X91090000Y-142403000D01*
X91090000Y-140603000D01*
X91790000Y-140603000D01*
X91790000Y-142403000D01*
X91790000Y-142403000D01*
G37*
G36*
X92940000Y-142403000D02*
X92140000Y-142403000D01*
X92140000Y-140603000D01*
X92940000Y-140603000D01*
X92940000Y-142403000D01*
X92940000Y-142403000D01*
G37*
G36*
X97340000Y-142403000D02*
X96540000Y-142403000D01*
X96540000Y-140603000D01*
X97340000Y-140603000D01*
X97340000Y-142403000D01*
X97340000Y-142403000D01*
G37*
G36*
X96240000Y-142403000D02*
X95440000Y-142403000D01*
X95440000Y-140603000D01*
X96240000Y-140603000D01*
X96240000Y-142403000D01*
X96240000Y-142403000D01*
G37*
G36*
X94040000Y-142403000D02*
X93240000Y-142403000D01*
X93240000Y-140603000D01*
X94040000Y-140603000D01*
X94040000Y-142403000D01*
X94040000Y-142403000D01*
G37*
G36*
X100590000Y-142403000D02*
X99890000Y-142403000D01*
X99890000Y-140603000D01*
X100590000Y-140603000D01*
X100590000Y-142403000D01*
X100590000Y-142403000D01*
G37*
G36*
X106053000Y-142309000D02*
X105553000Y-142309000D01*
X105553000Y-141409000D01*
X106053000Y-141409000D01*
X106053000Y-142309000D01*
X106053000Y-142309000D01*
G37*
G36*
X107553000Y-142309000D02*
X107053000Y-142309000D01*
X107053000Y-141409000D01*
X107553000Y-141409000D01*
X107553000Y-142309000D01*
X107553000Y-142309000D01*
G37*
G36*
X119021000Y-142052000D02*
X117961000Y-142052000D01*
X117961000Y-141402000D01*
X119021000Y-141402000D01*
X119021000Y-142052000D01*
X119021000Y-142052000D01*
G37*
G36*
X116821000Y-142052000D02*
X115761000Y-142052000D01*
X115761000Y-141402000D01*
X116821000Y-141402000D01*
X116821000Y-142052000D01*
X116821000Y-142052000D01*
G37*
G36*
X120681000Y-141853000D02*
X119881000Y-141853000D01*
X119881000Y-141103000D01*
X120681000Y-141103000D01*
X120681000Y-141853000D01*
X120681000Y-141853000D01*
G37*
G36*
X122181000Y-141853000D02*
X121381000Y-141853000D01*
X121381000Y-141103000D01*
X122181000Y-141103000D01*
X122181000Y-141853000D01*
X122181000Y-141853000D01*
G37*
G36*
X102356000Y-141509000D02*
X101606000Y-141509000D01*
X101606000Y-140709000D01*
X102356000Y-140709000D01*
X102356000Y-141509000D01*
X102356000Y-141509000D01*
G37*
G36*
X114548000Y-141497000D02*
X113798000Y-141497000D01*
X113798000Y-140697000D01*
X114548000Y-140697000D01*
X114548000Y-141497000D01*
X114548000Y-141497000D01*
G37*
G36*
X147917000Y-141474000D02*
X147317000Y-141474000D01*
X147317000Y-140974000D01*
X147917000Y-140974000D01*
X147917000Y-141474000D01*
X147917000Y-141474000D01*
G37*
G36*
X149017000Y-141474000D02*
X148417000Y-141474000D01*
X148417000Y-140974000D01*
X149017000Y-140974000D01*
X149017000Y-141474000D01*
X149017000Y-141474000D01*
G37*
G36*
X135258000Y-141347000D02*
X134658000Y-141347000D01*
X134658000Y-140847000D01*
X135258000Y-140847000D01*
X135258000Y-141347000D01*
X135258000Y-141347000D01*
G37*
G36*
X134158000Y-141347000D02*
X133558000Y-141347000D01*
X133558000Y-140847000D01*
X134158000Y-140847000D01*
X134158000Y-141347000D01*
X134158000Y-141347000D01*
G37*
G36*
X103501000Y-141185000D02*
X103001000Y-141185000D01*
X103001000Y-140585000D01*
X103501000Y-140585000D01*
X103501000Y-141185000D01*
X103501000Y-141185000D01*
G37*
G36*
X116821000Y-141102000D02*
X115761000Y-141102000D01*
X115761000Y-140452000D01*
X116821000Y-140452000D01*
X116821000Y-141102000D01*
X116821000Y-141102000D01*
G37*
G36*
X111067000Y-141081000D02*
X110167000Y-141081000D01*
X110167000Y-140581000D01*
X111067000Y-140581000D01*
X111067000Y-141081000D01*
X111067000Y-141081000D01*
G37*
G36*
X120519000Y-140277000D02*
X120019000Y-140277000D01*
X120019000Y-139377000D01*
X120519000Y-139377000D01*
X120519000Y-140277000D01*
X120519000Y-140277000D01*
G37*
G36*
X122019000Y-140277000D02*
X121519000Y-140277000D01*
X121519000Y-139377000D01*
X122019000Y-139377000D01*
X122019000Y-140277000D01*
X122019000Y-140277000D01*
G37*
G36*
X119021000Y-140152000D02*
X117961000Y-140152000D01*
X117961000Y-139502000D01*
X119021000Y-139502000D01*
X119021000Y-140152000D01*
X119021000Y-140152000D01*
G37*
G36*
X116821000Y-140152000D02*
X115761000Y-140152000D01*
X115761000Y-139502000D01*
X116821000Y-139502000D01*
X116821000Y-140152000D01*
X116821000Y-140152000D01*
G37*
G36*
X103501000Y-140085000D02*
X103001000Y-140085000D01*
X103001000Y-139485000D01*
X103501000Y-139485000D01*
X103501000Y-140085000D01*
X103501000Y-140085000D01*
G37*
G36*
X97201000Y-139969000D02*
X96601000Y-139969000D01*
X96601000Y-139569000D01*
X97201000Y-139569000D01*
X97201000Y-139969000D01*
X97201000Y-139969000D01*
G37*
G36*
X144750000Y-139809000D02*
X141000000Y-139809000D01*
X141000000Y-139109000D01*
X144750000Y-139109000D01*
X144750000Y-139809000D01*
X144750000Y-139809000D01*
G37*
G36*
X131007500Y-139708500D02*
X127257500Y-139708500D01*
X127257500Y-139008500D01*
X131007500Y-139008500D01*
X131007500Y-139708500D01*
X131007500Y-139708500D01*
G37*
G36*
X133090000Y-139707000D02*
X132340000Y-139707000D01*
X132340000Y-138907000D01*
X133090000Y-138907000D01*
X133090000Y-139707000D01*
X133090000Y-139707000D01*
G37*
G36*
X111067000Y-139581000D02*
X110167000Y-139581000D01*
X110167000Y-139081000D01*
X111067000Y-139081000D01*
X111067000Y-139581000D01*
X111067000Y-139581000D01*
G37*
G36*
X136179000Y-139499000D02*
X135279000Y-139499000D01*
X135279000Y-138499000D01*
X136179000Y-138499000D01*
X136179000Y-139499000D01*
X136179000Y-139499000D01*
G37*
G36*
X138279000Y-139499000D02*
X137379000Y-139499000D01*
X137379000Y-138499000D01*
X138279000Y-138499000D01*
X138279000Y-139499000D01*
X138279000Y-139499000D01*
G37*
G36*
X97201000Y-139069000D02*
X96601000Y-139069000D01*
X96601000Y-138669000D01*
X97201000Y-138669000D01*
X97201000Y-139069000D01*
X97201000Y-139069000D01*
G37*
G36*
X134743000Y-138899000D02*
X134243000Y-138899000D01*
X134243000Y-138299000D01*
X134743000Y-138299000D01*
X134743000Y-138899000D01*
X134743000Y-138899000D01*
G37*
G36*
X99075000Y-138857000D02*
X98675000Y-138857000D01*
X98675000Y-138257000D01*
X99075000Y-138257000D01*
X99075000Y-138857000D01*
X99075000Y-138857000D01*
G37*
G36*
X98175000Y-138857000D02*
X97775000Y-138857000D01*
X97775000Y-138257000D01*
X98175000Y-138257000D01*
X98175000Y-138857000D01*
X98175000Y-138857000D01*
G37*
G36*
X124236000Y-138826000D02*
X123536000Y-138826000D01*
X123536000Y-137526000D01*
X124236000Y-137526000D01*
X124236000Y-138826000D01*
X124236000Y-138826000D01*
G37*
G36*
X122336000Y-138826000D02*
X121636000Y-138826000D01*
X121636000Y-137526000D01*
X122336000Y-137526000D01*
X122336000Y-138826000D01*
X122336000Y-138826000D01*
G37*
G36*
X96100000Y-138807000D02*
X95500000Y-138807000D01*
X95500000Y-138307000D01*
X96100000Y-138307000D01*
X96100000Y-138807000D01*
X96100000Y-138807000D01*
G37*
G36*
X95000000Y-138807000D02*
X94400000Y-138807000D01*
X94400000Y-138307000D01*
X95000000Y-138307000D01*
X95000000Y-138807000D01*
X95000000Y-138807000D01*
G37*
G36*
X119423000Y-138678000D02*
X118623000Y-138678000D01*
X118623000Y-137928000D01*
X119423000Y-137928000D01*
X119423000Y-138678000D01*
X119423000Y-138678000D01*
G37*
G36*
X120923000Y-138678000D02*
X120123000Y-138678000D01*
X120123000Y-137928000D01*
X120923000Y-137928000D01*
X120923000Y-138678000D01*
X120923000Y-138678000D01*
G37*
G36*
X112262000Y-138552000D02*
X111512000Y-138552000D01*
X111512000Y-137752000D01*
X112262000Y-137752000D01*
X112262000Y-138552000D01*
X112262000Y-138552000D01*
G37*
G36*
X146806000Y-138437000D02*
X146056000Y-138437000D01*
X146056000Y-137637000D01*
X146806000Y-137637000D01*
X146806000Y-138437000D01*
X146806000Y-138437000D01*
G37*
G36*
X105202000Y-138318000D02*
X104602000Y-138318000D01*
X104602000Y-137918000D01*
X105202000Y-137918000D01*
X105202000Y-138318000D01*
X105202000Y-138318000D01*
G37*
G36*
X106218000Y-138318000D02*
X105618000Y-138318000D01*
X105618000Y-137918000D01*
X106218000Y-137918000D01*
X106218000Y-138318000D01*
X106218000Y-138318000D01*
G37*
G36*
X103170000Y-138318000D02*
X102570000Y-138318000D01*
X102570000Y-137918000D01*
X103170000Y-137918000D01*
X103170000Y-138318000D01*
X103170000Y-138318000D01*
G37*
G36*
X104186000Y-138318000D02*
X103586000Y-138318000D01*
X103586000Y-137918000D01*
X104186000Y-137918000D01*
X104186000Y-138318000D01*
X104186000Y-138318000D01*
G37*
G36*
X133090000Y-138207000D02*
X132340000Y-138207000D01*
X132340000Y-137407000D01*
X133090000Y-137407000D01*
X133090000Y-138207000D01*
X133090000Y-138207000D01*
G37*
G36*
X109112000Y-137916000D02*
X108312000Y-137916000D01*
X108312000Y-137166000D01*
X109112000Y-137166000D01*
X109112000Y-137916000D01*
X109112000Y-137916000D01*
G37*
G36*
X110612000Y-137916000D02*
X109812000Y-137916000D01*
X109812000Y-137166000D01*
X110612000Y-137166000D01*
X110612000Y-137916000D01*
X110612000Y-137916000D01*
G37*
G36*
X134743000Y-137799000D02*
X134243000Y-137799000D01*
X134243000Y-137199000D01*
X134743000Y-137199000D01*
X134743000Y-137799000D01*
X134743000Y-137799000D01*
G37*
G36*
X107511000Y-137779000D02*
X106611000Y-137779000D01*
X106611000Y-137279000D01*
X107511000Y-137279000D01*
X107511000Y-137779000D01*
X107511000Y-137779000D01*
G37*
G36*
X94608000Y-137653000D02*
X92408000Y-137653000D01*
X92408000Y-136603000D01*
X94608000Y-136603000D01*
X94608000Y-137653000D01*
X94608000Y-137653000D01*
G37*
G36*
X136179000Y-137599000D02*
X135279000Y-137599000D01*
X135279000Y-136599000D01*
X136179000Y-136599000D01*
X136179000Y-137599000D01*
X136179000Y-137599000D01*
G37*
G36*
X138279000Y-137599000D02*
X137379000Y-137599000D01*
X137379000Y-136599000D01*
X138279000Y-136599000D01*
X138279000Y-137599000D01*
X138279000Y-137599000D01*
G37*
G36*
X103170000Y-137418000D02*
X102570000Y-137418000D01*
X102570000Y-137018000D01*
X103170000Y-137018000D01*
X103170000Y-137418000D01*
X103170000Y-137418000D01*
G37*
G36*
X105202000Y-137418000D02*
X104602000Y-137418000D01*
X104602000Y-137018000D01*
X105202000Y-137018000D01*
X105202000Y-137418000D01*
X105202000Y-137418000D01*
G37*
G36*
X104186000Y-137418000D02*
X103586000Y-137418000D01*
X103586000Y-137018000D01*
X104186000Y-137018000D01*
X104186000Y-137418000D01*
X104186000Y-137418000D01*
G37*
G36*
X106218000Y-137418000D02*
X105618000Y-137418000D01*
X105618000Y-137018000D01*
X106218000Y-137018000D01*
X106218000Y-137418000D01*
X106218000Y-137418000D01*
G37*
G36*
X127089000Y-137283000D02*
X126489000Y-137283000D01*
X126489000Y-136783000D01*
X127089000Y-136783000D01*
X127089000Y-137283000D01*
X127089000Y-137283000D01*
G37*
G36*
X128189000Y-137283000D02*
X127589000Y-137283000D01*
X127589000Y-136783000D01*
X128189000Y-136783000D01*
X128189000Y-137283000D01*
X128189000Y-137283000D01*
G37*
G36*
X131937000Y-137229000D02*
X131437000Y-137229000D01*
X131437000Y-136329000D01*
X131937000Y-136329000D01*
X131937000Y-137229000D01*
X131937000Y-137229000D01*
G37*
G36*
X130437000Y-137229000D02*
X129937000Y-137229000D01*
X129937000Y-136329000D01*
X130437000Y-136329000D01*
X130437000Y-137229000D01*
X130437000Y-137229000D01*
G37*
G36*
X112262000Y-137052000D02*
X111512000Y-137052000D01*
X111512000Y-136252000D01*
X112262000Y-136252000D01*
X112262000Y-137052000D01*
X112262000Y-137052000D01*
G37*
G36*
X146806000Y-136937000D02*
X146056000Y-136937000D01*
X146056000Y-136137000D01*
X146806000Y-136137000D01*
X146806000Y-136937000D01*
X146806000Y-136937000D01*
G37*
G36*
X124606000Y-136392000D02*
X123806000Y-136392000D01*
X123806000Y-135642000D01*
X124606000Y-135642000D01*
X124606000Y-136392000D01*
X124606000Y-136392000D01*
G37*
G36*
X126106000Y-136392000D02*
X125306000Y-136392000D01*
X125306000Y-135642000D01*
X126106000Y-135642000D01*
X126106000Y-136392000D01*
X126106000Y-136392000D01*
G37*
G36*
X107511000Y-136279000D02*
X106611000Y-136279000D01*
X106611000Y-135779000D01*
X107511000Y-135779000D01*
X107511000Y-136279000D01*
X107511000Y-136279000D01*
G37*
G36*
X102600000Y-135959000D02*
X102100000Y-135959000D01*
X102100000Y-135059000D01*
X102600000Y-135059000D01*
X102600000Y-135959000D01*
X102600000Y-135959000D01*
G37*
G36*
X101100000Y-135959000D02*
X100600000Y-135959000D01*
X100600000Y-135059000D01*
X101100000Y-135059000D01*
X101100000Y-135959000D01*
X101100000Y-135959000D01*
G37*
G36*
X96083000Y-135628000D02*
X95033000Y-135628000D01*
X95033000Y-134628000D01*
X96083000Y-134628000D01*
X96083000Y-135628000D01*
X96083000Y-135628000D01*
G37*
G36*
X139326000Y-135503000D02*
X138526000Y-135503000D01*
X138526000Y-134753000D01*
X139326000Y-134753000D01*
X139326000Y-135503000D01*
X139326000Y-135503000D01*
G37*
G36*
X137826000Y-135503000D02*
X137026000Y-135503000D01*
X137026000Y-134753000D01*
X137826000Y-134753000D01*
X137826000Y-135503000D01*
X137826000Y-135503000D01*
G37*
G36*
X135905000Y-135412000D02*
X134605000Y-135412000D01*
X134605000Y-134712000D01*
X135905000Y-134712000D01*
X135905000Y-135412000D01*
X135905000Y-135412000D01*
G37*
G36*
X128335000Y-135387000D02*
X127275000Y-135387000D01*
X127275000Y-134737000D01*
X128335000Y-134737000D01*
X128335000Y-135387000D01*
X128335000Y-135387000D01*
G37*
G36*
X130535000Y-135387000D02*
X129475000Y-135387000D01*
X129475000Y-134737000D01*
X130535000Y-134737000D01*
X130535000Y-135387000D01*
X130535000Y-135387000D01*
G37*
G36*
X115914000Y-135050000D02*
X108114000Y-135050000D01*
X108114000Y-134200000D01*
X115914000Y-134200000D01*
X115914000Y-135050000D01*
X115914000Y-135050000D01*
G37*
G36*
X119934000Y-134889000D02*
X119334000Y-134889000D01*
X119334000Y-134489000D01*
X119934000Y-134489000D01*
X119934000Y-134889000D01*
X119934000Y-134889000D01*
G37*
G36*
X122093000Y-134889000D02*
X121493000Y-134889000D01*
X121493000Y-134489000D01*
X122093000Y-134489000D01*
X122093000Y-134889000D01*
X122093000Y-134889000D01*
G37*
G36*
X118918000Y-134889000D02*
X118318000Y-134889000D01*
X118318000Y-134489000D01*
X118918000Y-134489000D01*
X118918000Y-134889000D01*
X118918000Y-134889000D01*
G37*
G36*
X120950000Y-134889000D02*
X120350000Y-134889000D01*
X120350000Y-134489000D01*
X120950000Y-134489000D01*
X120950000Y-134889000D01*
X120950000Y-134889000D01*
G37*
G36*
X125597000Y-134627000D02*
X124847000Y-134627000D01*
X124847000Y-133827000D01*
X125597000Y-133827000D01*
X125597000Y-134627000D01*
X125597000Y-134627000D01*
G37*
G36*
X132201000Y-134627000D02*
X131451000Y-134627000D01*
X131451000Y-133827000D01*
X132201000Y-133827000D01*
X132201000Y-134627000D01*
X132201000Y-134627000D01*
G37*
G36*
X133673000Y-134477000D02*
X132773000Y-134477000D01*
X132773000Y-133977000D01*
X133673000Y-133977000D01*
X133673000Y-134477000D01*
X133673000Y-134477000D01*
G37*
G36*
X128335000Y-134437000D02*
X127275000Y-134437000D01*
X127275000Y-133787000D01*
X128335000Y-133787000D01*
X128335000Y-134437000D01*
X128335000Y-134437000D01*
G37*
G36*
X101100000Y-134435000D02*
X100600000Y-134435000D01*
X100600000Y-133535000D01*
X101100000Y-133535000D01*
X101100000Y-134435000D01*
X101100000Y-134435000D01*
G37*
G36*
X102600000Y-134435000D02*
X102100000Y-134435000D01*
X102100000Y-133535000D01*
X102600000Y-133535000D01*
X102600000Y-134435000D01*
X102600000Y-134435000D01*
G37*
G36*
X107989000Y-134075000D02*
X107139000Y-134075000D01*
X107139000Y-126275000D01*
X107989000Y-126275000D01*
X107989000Y-134075000D01*
X107989000Y-134075000D01*
G37*
G36*
X116889000Y-134075000D02*
X116039000Y-134075000D01*
X116039000Y-126275000D01*
X116889000Y-126275000D01*
X116889000Y-134075000D01*
X116889000Y-134075000D01*
G37*
G36*
X123617000Y-134000000D02*
X123017000Y-134000000D01*
X123017000Y-133600000D01*
X123617000Y-133600000D01*
X123617000Y-134000000D01*
X123617000Y-134000000D01*
G37*
G36*
X122093000Y-133989000D02*
X121493000Y-133989000D01*
X121493000Y-133589000D01*
X122093000Y-133589000D01*
X122093000Y-133989000D01*
X122093000Y-133989000D01*
G37*
G36*
X120950000Y-133989000D02*
X120350000Y-133989000D01*
X120350000Y-133589000D01*
X120950000Y-133589000D01*
X120950000Y-133989000D01*
X120950000Y-133989000D01*
G37*
G36*
X119934000Y-133989000D02*
X119334000Y-133989000D01*
X119334000Y-133589000D01*
X119934000Y-133589000D01*
X119934000Y-133989000D01*
X119934000Y-133989000D01*
G37*
G36*
X118918000Y-133989000D02*
X118318000Y-133989000D01*
X118318000Y-133589000D01*
X118918000Y-133589000D01*
X118918000Y-133989000D01*
X118918000Y-133989000D01*
G37*
G36*
X115689000Y-133850000D02*
X108339000Y-133850000D01*
X108339000Y-126500000D01*
X115689000Y-126500000D01*
X115689000Y-133850000D01*
X115689000Y-133850000D01*
G37*
G36*
X94608000Y-133653000D02*
X92408000Y-133653000D01*
X92408000Y-132603000D01*
X94608000Y-132603000D01*
X94608000Y-133653000D01*
X94608000Y-133653000D01*
G37*
G36*
X135905000Y-133512000D02*
X134605000Y-133512000D01*
X134605000Y-132812000D01*
X135905000Y-132812000D01*
X135905000Y-133512000D01*
X135905000Y-133512000D01*
G37*
G36*
X150519500Y-133501500D02*
X148819500Y-133501500D01*
X148819500Y-131801500D01*
X150519500Y-131801500D01*
X150519500Y-133501500D01*
X150519500Y-133501500D01*
G37*
G36*
X130535000Y-133487000D02*
X129475000Y-133487000D01*
X129475000Y-132837000D01*
X130535000Y-132837000D01*
X130535000Y-133487000D01*
X130535000Y-133487000D01*
G37*
G36*
X128335000Y-133487000D02*
X127275000Y-133487000D01*
X127275000Y-132837000D01*
X128335000Y-132837000D01*
X128335000Y-133487000D01*
X128335000Y-133487000D01*
G37*
G36*
X143090000Y-133438000D02*
X141390000Y-133438000D01*
X141390000Y-131738000D01*
X143090000Y-131738000D01*
X143090000Y-133438000D01*
X143090000Y-133438000D01*
G37*
G36*
X139407000Y-133438000D02*
X137707000Y-133438000D01*
X137707000Y-131738000D01*
X139407000Y-131738000D01*
X139407000Y-133438000D01*
X139407000Y-133438000D01*
G37*
G36*
X125597000Y-133127000D02*
X124847000Y-133127000D01*
X124847000Y-132327000D01*
X125597000Y-132327000D01*
X125597000Y-133127000D01*
X125597000Y-133127000D01*
G37*
G36*
X132201000Y-133127000D02*
X131451000Y-133127000D01*
X131451000Y-132327000D01*
X132201000Y-132327000D01*
X132201000Y-133127000D01*
X132201000Y-133127000D01*
G37*
G36*
X123617000Y-133100000D02*
X123017000Y-133100000D01*
X123017000Y-132700000D01*
X123617000Y-132700000D01*
X123617000Y-133100000D01*
X123617000Y-133100000D01*
G37*
G36*
X133673000Y-132977000D02*
X132773000Y-132977000D01*
X132773000Y-132477000D01*
X133673000Y-132477000D01*
X133673000Y-132977000D01*
X133673000Y-132977000D01*
G37*
G36*
X102786000Y-132963000D02*
X101986000Y-132963000D01*
X101986000Y-132213000D01*
X102786000Y-132213000D01*
X102786000Y-132963000D01*
X102786000Y-132963000D01*
G37*
G36*
X104286000Y-132963000D02*
X103486000Y-132963000D01*
X103486000Y-132213000D01*
X104286000Y-132213000D01*
X104286000Y-132963000D01*
X104286000Y-132963000D01*
G37*
G36*
X144534000Y-131895000D02*
X144034000Y-131895000D01*
X144034000Y-130995000D01*
X144534000Y-130995000D01*
X144534000Y-131895000D01*
X144534000Y-131895000D01*
G37*
G36*
X146034000Y-131895000D02*
X145534000Y-131895000D01*
X145534000Y-130995000D01*
X146034000Y-130995000D01*
X146034000Y-131895000D01*
X146034000Y-131895000D01*
G37*
G36*
X128432000Y-131841000D02*
X127732000Y-131841000D01*
X127732000Y-130541000D01*
X128432000Y-130541000D01*
X128432000Y-131841000D01*
X128432000Y-131841000D01*
G37*
G36*
X130332000Y-131841000D02*
X129632000Y-131841000D01*
X129632000Y-130541000D01*
X130332000Y-130541000D01*
X130332000Y-131841000D01*
X130332000Y-131841000D01*
G37*
G36*
X126741000Y-131693000D02*
X125941000Y-131693000D01*
X125941000Y-130943000D01*
X126741000Y-130943000D01*
X126741000Y-131693000D01*
X126741000Y-131693000D01*
G37*
G36*
X125241000Y-131693000D02*
X124441000Y-131693000D01*
X124441000Y-130943000D01*
X125241000Y-130943000D01*
X125241000Y-131693000D01*
X125241000Y-131693000D01*
G37*
G36*
X133080000Y-131514000D02*
X132580000Y-131514000D01*
X132580000Y-130614000D01*
X133080000Y-130614000D01*
X133080000Y-131514000D01*
X133080000Y-131514000D01*
G37*
G36*
X131580000Y-131514000D02*
X131080000Y-131514000D01*
X131080000Y-130614000D01*
X131580000Y-130614000D01*
X131580000Y-131514000D01*
X131580000Y-131514000D01*
G37*
G36*
X96020000Y-131133000D02*
X95520000Y-131133000D01*
X95520000Y-130233000D01*
X96020000Y-130233000D01*
X96020000Y-131133000D01*
X96020000Y-131133000D01*
G37*
G36*
X97520000Y-131133000D02*
X97020000Y-131133000D01*
X97020000Y-130233000D01*
X97520000Y-130233000D01*
X97520000Y-131133000D01*
X97520000Y-131133000D01*
G37*
G36*
X93402000Y-131083000D02*
X92602000Y-131083000D01*
X92602000Y-130283000D01*
X93402000Y-130283000D01*
X93402000Y-131083000D01*
X93402000Y-131083000D01*
G37*
G36*
X91802000Y-131083000D02*
X91002000Y-131083000D01*
X91002000Y-130283000D01*
X91802000Y-130283000D01*
X91802000Y-131083000D01*
X91802000Y-131083000D01*
G37*
G36*
X121038000Y-131058000D02*
X120238000Y-131058000D01*
X120238000Y-130308000D01*
X121038000Y-130308000D01*
X121038000Y-131058000D01*
X121038000Y-131058000D01*
G37*
G36*
X119538000Y-131058000D02*
X118738000Y-131058000D01*
X118738000Y-130308000D01*
X119538000Y-130308000D01*
X119538000Y-131058000D01*
X119538000Y-131058000D01*
G37*
G36*
X135616000Y-130856000D02*
X134066000Y-130856000D01*
X134066000Y-130256000D01*
X135616000Y-130256000D01*
X135616000Y-130856000D01*
X135616000Y-130856000D01*
G37*
G36*
X141016000Y-130856000D02*
X139466000Y-130856000D01*
X139466000Y-130256000D01*
X141016000Y-130256000D01*
X141016000Y-130856000D01*
X141016000Y-130856000D01*
G37*
G36*
X146992000Y-130128000D02*
X146092000Y-130128000D01*
X146092000Y-129328000D01*
X146992000Y-129328000D01*
X146992000Y-130128000D01*
X146992000Y-130128000D01*
G37*
G36*
X131730000Y-129788000D02*
X130930000Y-129788000D01*
X130930000Y-129038000D01*
X131730000Y-129038000D01*
X131730000Y-129788000D01*
X131730000Y-129788000D01*
G37*
G36*
X133230000Y-129788000D02*
X132430000Y-129788000D01*
X132430000Y-129038000D01*
X133230000Y-129038000D01*
X133230000Y-129788000D01*
X133230000Y-129788000D01*
G37*
G36*
X130182000Y-129661000D02*
X129382000Y-129661000D01*
X129382000Y-128911000D01*
X130182000Y-128911000D01*
X130182000Y-129661000D01*
X130182000Y-129661000D01*
G37*
G36*
X128682000Y-129661000D02*
X127882000Y-129661000D01*
X127882000Y-128911000D01*
X128682000Y-128911000D01*
X128682000Y-129661000D01*
X128682000Y-129661000D01*
G37*
G36*
X121038000Y-129661000D02*
X120238000Y-129661000D01*
X120238000Y-128911000D01*
X121038000Y-128911000D01*
X121038000Y-129661000D01*
X121038000Y-129661000D01*
G37*
G36*
X119538000Y-129661000D02*
X118738000Y-129661000D01*
X118738000Y-128911000D01*
X119538000Y-128911000D01*
X119538000Y-129661000D01*
X119538000Y-129661000D01*
G37*
G36*
X141016000Y-129586000D02*
X139466000Y-129586000D01*
X139466000Y-128986000D01*
X141016000Y-128986000D01*
X141016000Y-129586000D01*
X141016000Y-129586000D01*
G37*
G36*
X135616000Y-129586000D02*
X134066000Y-129586000D01*
X134066000Y-128986000D01*
X135616000Y-128986000D01*
X135616000Y-129586000D01*
X135616000Y-129586000D01*
G37*
G36*
X97520000Y-129482000D02*
X97020000Y-129482000D01*
X97020000Y-128582000D01*
X97520000Y-128582000D01*
X97520000Y-129482000D01*
X97520000Y-129482000D01*
G37*
G36*
X125968000Y-129482000D02*
X125468000Y-129482000D01*
X125468000Y-128582000D01*
X125968000Y-128582000D01*
X125968000Y-129482000D01*
X125968000Y-129482000D01*
G37*
G36*
X124468000Y-129482000D02*
X123968000Y-129482000D01*
X123968000Y-128582000D01*
X124468000Y-128582000D01*
X124468000Y-129482000D01*
X124468000Y-129482000D01*
G37*
G36*
X96020000Y-129482000D02*
X95520000Y-129482000D01*
X95520000Y-128582000D01*
X96020000Y-128582000D01*
X96020000Y-129482000D01*
X96020000Y-129482000D01*
G37*
G36*
X91802000Y-129432000D02*
X91002000Y-129432000D01*
X91002000Y-128632000D01*
X91802000Y-128632000D01*
X91802000Y-129432000D01*
X91802000Y-129432000D01*
G37*
G36*
X93402000Y-129432000D02*
X92602000Y-129432000D01*
X92602000Y-128632000D01*
X93402000Y-128632000D01*
X93402000Y-129432000D01*
X93402000Y-129432000D01*
G37*
G36*
X144992000Y-129178000D02*
X144092000Y-129178000D01*
X144092000Y-128378000D01*
X144992000Y-128378000D01*
X144992000Y-129178000D01*
X144992000Y-129178000D01*
G37*
G36*
X105232989Y-128508195D02*
X104232989Y-128508195D01*
X104232989Y-127608195D01*
X105232989Y-127608195D01*
X105232989Y-128508195D01*
X105232989Y-128508195D01*
G37*
G36*
X103332989Y-128508195D02*
X102332989Y-128508195D01*
X102332989Y-127608195D01*
X103332989Y-127608195D01*
X103332989Y-128508195D01*
X103332989Y-128508195D01*
G37*
G36*
X135616000Y-128316000D02*
X134066000Y-128316000D01*
X134066000Y-127716000D01*
X135616000Y-127716000D01*
X135616000Y-128316000D01*
X135616000Y-128316000D01*
G37*
G36*
X141016000Y-128316000D02*
X139466000Y-128316000D01*
X139466000Y-127716000D01*
X141016000Y-127716000D01*
X141016000Y-128316000D01*
X141016000Y-128316000D01*
G37*
G36*
X146992000Y-128228000D02*
X146092000Y-128228000D01*
X146092000Y-127428000D01*
X146992000Y-127428000D01*
X146992000Y-128228000D01*
X146992000Y-128228000D01*
G37*
G36*
X101744989Y-128158195D02*
X100994989Y-128158195D01*
X100994989Y-127358195D01*
X101744989Y-127358195D01*
X101744989Y-128158195D01*
X101744989Y-128158195D01*
G37*
G36*
X150560000Y-128010000D02*
X148860000Y-128010000D01*
X148860000Y-126310000D01*
X150560000Y-126310000D01*
X150560000Y-128010000D01*
X150560000Y-128010000D01*
G37*
G36*
X133092000Y-127989000D02*
X132592000Y-127989000D01*
X132592000Y-127389000D01*
X133092000Y-127389000D01*
X133092000Y-127989000D01*
X133092000Y-127989000D01*
G37*
G36*
X125968000Y-127958000D02*
X125468000Y-127958000D01*
X125468000Y-127058000D01*
X125968000Y-127058000D01*
X125968000Y-127958000D01*
X125968000Y-127958000D01*
G37*
G36*
X124468000Y-127958000D02*
X123968000Y-127958000D01*
X123968000Y-127058000D01*
X124468000Y-127058000D01*
X124468000Y-127958000D01*
X124468000Y-127958000D01*
G37*
G36*
X97520000Y-127831000D02*
X97020000Y-127831000D01*
X97020000Y-126931000D01*
X97520000Y-126931000D01*
X97520000Y-127831000D01*
X97520000Y-127831000D01*
G37*
G36*
X96020000Y-127831000D02*
X95520000Y-127831000D01*
X95520000Y-126931000D01*
X96020000Y-126931000D01*
X96020000Y-127831000D01*
X96020000Y-127831000D01*
G37*
G36*
X100326000Y-127808000D02*
X99826000Y-127808000D01*
X99826000Y-127208000D01*
X100326000Y-127208000D01*
X100326000Y-127808000D01*
X100326000Y-127808000D01*
G37*
G36*
X93402000Y-127781000D02*
X92602000Y-127781000D01*
X92602000Y-126981000D01*
X93402000Y-126981000D01*
X93402000Y-127781000D01*
X93402000Y-127781000D01*
G37*
G36*
X91802000Y-127781000D02*
X91002000Y-127781000D01*
X91002000Y-126981000D01*
X91802000Y-126981000D01*
X91802000Y-127781000D01*
X91802000Y-127781000D01*
G37*
G36*
X118485000Y-127769000D02*
X117735000Y-127769000D01*
X117735000Y-126969000D01*
X118485000Y-126969000D01*
X118485000Y-127769000D01*
X118485000Y-127769000D01*
G37*
G36*
X120592000Y-127238000D02*
X119692000Y-127238000D01*
X119692000Y-126738000D01*
X120592000Y-126738000D01*
X120592000Y-127238000D01*
X120592000Y-127238000D01*
G37*
G36*
X122116000Y-127238000D02*
X121216000Y-127238000D01*
X121216000Y-126738000D01*
X122116000Y-126738000D01*
X122116000Y-127238000D01*
X122116000Y-127238000D01*
G37*
G36*
X128999500Y-127057500D02*
X128199500Y-127057500D01*
X128199500Y-126307500D01*
X128999500Y-126307500D01*
X128999500Y-127057500D01*
X128999500Y-127057500D01*
G37*
G36*
X130499500Y-127057500D02*
X129699500Y-127057500D01*
X129699500Y-126307500D01*
X130499500Y-126307500D01*
X130499500Y-127057500D01*
X130499500Y-127057500D01*
G37*
G36*
X135616000Y-127046000D02*
X134066000Y-127046000D01*
X134066000Y-126446000D01*
X135616000Y-126446000D01*
X135616000Y-127046000D01*
X135616000Y-127046000D01*
G37*
G36*
X141016000Y-127046000D02*
X139466000Y-127046000D01*
X139466000Y-126446000D01*
X141016000Y-126446000D01*
X141016000Y-127046000D01*
X141016000Y-127046000D01*
G37*
G36*
X133092000Y-126889000D02*
X132592000Y-126889000D01*
X132592000Y-126289000D01*
X133092000Y-126289000D01*
X133092000Y-126889000D01*
X133092000Y-126889000D01*
G37*
G36*
X106420000Y-126868000D02*
X105670000Y-126868000D01*
X105670000Y-126068000D01*
X106420000Y-126068000D01*
X106420000Y-126868000D01*
X106420000Y-126868000D01*
G37*
G36*
X100326000Y-126708000D02*
X99826000Y-126708000D01*
X99826000Y-126108000D01*
X100326000Y-126108000D01*
X100326000Y-126708000D01*
X100326000Y-126708000D01*
G37*
G36*
X101744989Y-126658195D02*
X100994989Y-126658195D01*
X100994989Y-125858195D01*
X101744989Y-125858195D01*
X101744989Y-126658195D01*
X101744989Y-126658195D01*
G37*
G36*
X147060000Y-126499000D02*
X146310000Y-126499000D01*
X146310000Y-125699000D01*
X147060000Y-125699000D01*
X147060000Y-126499000D01*
X147060000Y-126499000D01*
G37*
G36*
X124456000Y-126434000D02*
X123956000Y-126434000D01*
X123956000Y-125534000D01*
X124456000Y-125534000D01*
X124456000Y-126434000D01*
X124456000Y-126434000D01*
G37*
G36*
X125956000Y-126434000D02*
X125456000Y-126434000D01*
X125456000Y-125534000D01*
X125956000Y-125534000D01*
X125956000Y-126434000D01*
X125956000Y-126434000D01*
G37*
G36*
X103332989Y-126408195D02*
X102332989Y-126408195D01*
X102332989Y-125508195D01*
X103332989Y-125508195D01*
X103332989Y-126408195D01*
X103332989Y-126408195D01*
G37*
G36*
X105232989Y-126408195D02*
X104232989Y-126408195D01*
X104232989Y-125508195D01*
X105232989Y-125508195D01*
X105232989Y-126408195D01*
X105232989Y-126408195D01*
G37*
G36*
X143010000Y-126307000D02*
X142510000Y-126307000D01*
X142510000Y-125407000D01*
X143010000Y-125407000D01*
X143010000Y-126307000D01*
X143010000Y-126307000D01*
G37*
G36*
X144510000Y-126307000D02*
X144010000Y-126307000D01*
X144010000Y-125407000D01*
X144510000Y-125407000D01*
X144510000Y-126307000D01*
X144510000Y-126307000D01*
G37*
G36*
X118485000Y-126269000D02*
X117735000Y-126269000D01*
X117735000Y-125469000D01*
X118485000Y-125469000D01*
X118485000Y-126269000D01*
X118485000Y-126269000D01*
G37*
G36*
X96020000Y-126180000D02*
X95520000Y-126180000D01*
X95520000Y-125280000D01*
X96020000Y-125280000D01*
X96020000Y-126180000D01*
X96020000Y-126180000D01*
G37*
G36*
X97520000Y-126180000D02*
X97020000Y-126180000D01*
X97020000Y-125280000D01*
X97520000Y-125280000D01*
X97520000Y-126180000D01*
X97520000Y-126180000D01*
G37*
G36*
X115914000Y-126150000D02*
X108114000Y-126150000D01*
X108114000Y-125300000D01*
X115914000Y-125300000D01*
X115914000Y-126150000D01*
X115914000Y-126150000D01*
G37*
G36*
X93402000Y-126130000D02*
X92602000Y-126130000D01*
X92602000Y-125330000D01*
X93402000Y-125330000D01*
X93402000Y-126130000D01*
X93402000Y-126130000D01*
G37*
G36*
X91802000Y-126130000D02*
X91002000Y-126130000D01*
X91002000Y-125330000D01*
X91802000Y-125330000D01*
X91802000Y-126130000D01*
X91802000Y-126130000D01*
G37*
G36*
X120592000Y-125738000D02*
X119692000Y-125738000D01*
X119692000Y-125238000D01*
X120592000Y-125238000D01*
X120592000Y-125738000D01*
X120592000Y-125738000D01*
G37*
G36*
X122116000Y-125738000D02*
X121216000Y-125738000D01*
X121216000Y-125238000D01*
X122116000Y-125238000D01*
X122116000Y-125738000D01*
X122116000Y-125738000D01*
G37*
G36*
X130499500Y-125470000D02*
X129699500Y-125470000D01*
X129699500Y-124720000D01*
X130499500Y-124720000D01*
X130499500Y-125470000D01*
X130499500Y-125470000D01*
G37*
G36*
X149876630Y-123782299D02*
X150036855Y-123830903D01*
X150184520Y-123909831D01*
X150313949Y-124016051D01*
X150420169Y-124145480D01*
X150499097Y-124293145D01*
X150547701Y-124453370D01*
X150564112Y-124620000D01*
X150547701Y-124786630D01*
X150499097Y-124946855D01*
X150420169Y-125094520D01*
X150313949Y-125223949D01*
X150184520Y-125330169D01*
X150036855Y-125409097D01*
X149876630Y-125457701D01*
X149751752Y-125470000D01*
X149668248Y-125470000D01*
X149543370Y-125457701D01*
X149383145Y-125409097D01*
X149235480Y-125330169D01*
X149106051Y-125223949D01*
X148999831Y-125094520D01*
X148920903Y-124946855D01*
X148872299Y-124786630D01*
X148855888Y-124620000D01*
X148872299Y-124453370D01*
X148920903Y-124293145D01*
X148999831Y-124145480D01*
X149106051Y-124016051D01*
X149235480Y-123909831D01*
X149383145Y-123830903D01*
X149543370Y-123782299D01*
X149668248Y-123770000D01*
X149751752Y-123770000D01*
X149876630Y-123782299D01*
X149876630Y-123782299D01*
G37*
G36*
X128999500Y-125470000D02*
X128199500Y-125470000D01*
X128199500Y-124720000D01*
X128999500Y-124720000D01*
X128999500Y-125470000D01*
X128999500Y-125470000D01*
G37*
G36*
X106420000Y-125368000D02*
X105670000Y-125368000D01*
X105670000Y-124568000D01*
X106420000Y-124568000D01*
X106420000Y-125368000D01*
X106420000Y-125368000D01*
G37*
G36*
X133762000Y-125343000D02*
X132962000Y-125343000D01*
X132962000Y-124593000D01*
X133762000Y-124593000D01*
X133762000Y-125343000D01*
X133762000Y-125343000D01*
G37*
G36*
X135262000Y-125343000D02*
X134462000Y-125343000D01*
X134462000Y-124593000D01*
X135262000Y-124593000D01*
X135262000Y-125343000D01*
X135262000Y-125343000D01*
G37*
G36*
X141366000Y-125204500D02*
X140966000Y-125204500D01*
X140966000Y-124604500D01*
X141366000Y-124604500D01*
X141366000Y-125204500D01*
X141366000Y-125204500D01*
G37*
G36*
X140466000Y-125204500D02*
X140066000Y-125204500D01*
X140066000Y-124604500D01*
X140466000Y-124604500D01*
X140466000Y-125204500D01*
X140466000Y-125204500D01*
G37*
G36*
X147060000Y-124999000D02*
X146310000Y-124999000D01*
X146310000Y-124199000D01*
X147060000Y-124199000D01*
X147060000Y-124999000D01*
X147060000Y-124999000D01*
G37*
G36*
X125968000Y-124910000D02*
X125468000Y-124910000D01*
X125468000Y-124010000D01*
X125968000Y-124010000D01*
X125968000Y-124910000D01*
X125968000Y-124910000D01*
G37*
G36*
X124468000Y-124910000D02*
X123968000Y-124910000D01*
X123968000Y-124010000D01*
X124468000Y-124010000D01*
X124468000Y-124910000D01*
X124468000Y-124910000D01*
G37*
G36*
X143223500Y-124644500D02*
X142423500Y-124644500D01*
X142423500Y-123894500D01*
X143223500Y-123894500D01*
X143223500Y-124644500D01*
X143223500Y-124644500D01*
G37*
G36*
X144723500Y-124644500D02*
X143923500Y-124644500D01*
X143923500Y-123894500D01*
X144723500Y-123894500D01*
X144723500Y-124644500D01*
X144723500Y-124644500D01*
G37*
G36*
X108781000Y-124190000D02*
X107881000Y-124190000D01*
X107881000Y-123690000D01*
X108781000Y-123690000D01*
X108781000Y-124190000D01*
X108781000Y-124190000D01*
G37*
G36*
X114053000Y-124073000D02*
X113253000Y-124073000D01*
X113253000Y-123323000D01*
X114053000Y-123323000D01*
X114053000Y-124073000D01*
X114053000Y-124073000D01*
G37*
G36*
X112553000Y-124073000D02*
X111753000Y-124073000D01*
X111753000Y-123323000D01*
X112553000Y-123323000D01*
X112553000Y-124073000D01*
X112553000Y-124073000D01*
G37*
G36*
X133791000Y-123924000D02*
X131791000Y-123924000D01*
X131791000Y-120424000D01*
X133791000Y-120424000D01*
X133791000Y-123924000D01*
X133791000Y-123924000D01*
G37*
G36*
X130591000Y-123924000D02*
X128591000Y-123924000D01*
X128591000Y-120424000D01*
X130591000Y-120424000D01*
X130591000Y-123924000D01*
X130591000Y-123924000D01*
G37*
G36*
X116220000Y-123871000D02*
X115820000Y-123871000D01*
X115820000Y-123271000D01*
X116220000Y-123271000D01*
X116220000Y-123871000D01*
X116220000Y-123871000D01*
G37*
G36*
X115320000Y-123871000D02*
X114920000Y-123871000D01*
X114920000Y-123271000D01*
X115320000Y-123271000D01*
X115320000Y-123871000D01*
X115320000Y-123871000D01*
G37*
G36*
X95827000Y-123428000D02*
X94927000Y-123428000D01*
X94927000Y-122928000D01*
X95827000Y-122928000D01*
X95827000Y-123428000D01*
X95827000Y-123428000D01*
G37*
G36*
X98875000Y-123428000D02*
X97975000Y-123428000D01*
X97975000Y-122928000D01*
X98875000Y-122928000D01*
X98875000Y-123428000D01*
X98875000Y-123428000D01*
G37*
G36*
X97351000Y-123428000D02*
X96451000Y-123428000D01*
X96451000Y-122928000D01*
X97351000Y-122928000D01*
X97351000Y-123428000D01*
X97351000Y-123428000D01*
G37*
G36*
X94303000Y-123428000D02*
X93403000Y-123428000D01*
X93403000Y-122928000D01*
X94303000Y-122928000D01*
X94303000Y-123428000D01*
X94303000Y-123428000D01*
G37*
G36*
X92779000Y-123428000D02*
X91879000Y-123428000D01*
X91879000Y-122928000D01*
X92779000Y-122928000D01*
X92779000Y-123428000D01*
X92779000Y-123428000D01*
G37*
G36*
X100842000Y-123313000D02*
X100242000Y-123313000D01*
X100242000Y-122813000D01*
X100842000Y-122813000D01*
X100842000Y-123313000D01*
X100842000Y-123313000D01*
G37*
G36*
X101942000Y-123313000D02*
X101342000Y-123313000D01*
X101342000Y-122813000D01*
X101942000Y-122813000D01*
X101942000Y-123313000D01*
X101942000Y-123313000D01*
G37*
G36*
X145399000Y-122878000D02*
X144899000Y-122878000D01*
X144899000Y-121978000D01*
X145399000Y-121978000D01*
X145399000Y-122878000D01*
X145399000Y-122878000D01*
G37*
G36*
X143899000Y-122878000D02*
X143399000Y-122878000D01*
X143399000Y-121978000D01*
X143899000Y-121978000D01*
X143899000Y-122878000D01*
X143899000Y-122878000D01*
G37*
G36*
X142371000Y-122866000D02*
X140921000Y-122866000D01*
X140921000Y-120466000D01*
X142371000Y-120466000D01*
X142371000Y-122866000D01*
X142371000Y-122866000D01*
G37*
G36*
X137971000Y-122866000D02*
X136521000Y-122866000D01*
X136521000Y-120466000D01*
X137971000Y-120466000D01*
X137971000Y-122866000D01*
X137971000Y-122866000D01*
G37*
G36*
X108781000Y-122690000D02*
X107881000Y-122690000D01*
X107881000Y-122190000D01*
X108781000Y-122190000D01*
X108781000Y-122690000D01*
X108781000Y-122690000D01*
G37*
G36*
X100592000Y-121989000D02*
X100092000Y-121989000D01*
X100092000Y-121089000D01*
X100592000Y-121089000D01*
X100592000Y-121989000D01*
X100592000Y-121989000D01*
G37*
G36*
X102092000Y-121989000D02*
X101592000Y-121989000D01*
X101592000Y-121089000D01*
X102092000Y-121089000D01*
X102092000Y-121989000D01*
X102092000Y-121989000D01*
G37*
G36*
X92779000Y-121928000D02*
X91879000Y-121928000D01*
X91879000Y-121428000D01*
X92779000Y-121428000D01*
X92779000Y-121928000D01*
X92779000Y-121928000D01*
G37*
G36*
X98875000Y-121928000D02*
X97975000Y-121928000D01*
X97975000Y-121428000D01*
X98875000Y-121428000D01*
X98875000Y-121928000D01*
X98875000Y-121928000D01*
G37*
G36*
X97351000Y-121928000D02*
X96451000Y-121928000D01*
X96451000Y-121428000D01*
X97351000Y-121428000D01*
X97351000Y-121928000D01*
X97351000Y-121928000D01*
G37*
G36*
X95827000Y-121928000D02*
X94927000Y-121928000D01*
X94927000Y-121428000D01*
X95827000Y-121428000D01*
X95827000Y-121928000D01*
X95827000Y-121928000D01*
G37*
G36*
X94303000Y-121928000D02*
X93403000Y-121928000D01*
X93403000Y-121428000D01*
X94303000Y-121428000D01*
X94303000Y-121928000D01*
X94303000Y-121928000D01*
G37*
G36*
X124783000Y-121269000D02*
X123883000Y-121269000D01*
X123883000Y-120769000D01*
X124783000Y-120769000D01*
X124783000Y-121269000D01*
X124783000Y-121269000D01*
G37*
G36*
X121862000Y-121269000D02*
X120962000Y-121269000D01*
X120962000Y-120769000D01*
X121862000Y-120769000D01*
X121862000Y-121269000D01*
X121862000Y-121269000D01*
G37*
G36*
X120138000Y-121246000D02*
X119638000Y-121246000D01*
X119638000Y-120646000D01*
X120138000Y-120646000D01*
X120138000Y-121246000D01*
X120138000Y-121246000D01*
G37*
G36*
X146996500Y-121228500D02*
X146246500Y-121228500D01*
X146246500Y-120428500D01*
X146996500Y-120428500D01*
X146996500Y-121228500D01*
X146996500Y-121228500D01*
G37*
G36*
X123186000Y-121119000D02*
X122686000Y-121119000D01*
X122686000Y-120519000D01*
X123186000Y-120519000D01*
X123186000Y-121119000D01*
X123186000Y-121119000D01*
G37*
G36*
X125980000Y-121119000D02*
X125480000Y-121119000D01*
X125480000Y-120519000D01*
X125980000Y-120519000D01*
X125980000Y-121119000D01*
X125980000Y-121119000D01*
G37*
G36*
X145357000Y-121078500D02*
X144457000Y-121078500D01*
X144457000Y-120578500D01*
X145357000Y-120578500D01*
X145357000Y-121078500D01*
X145357000Y-121078500D01*
G37*
G36*
X135641500Y-120888000D02*
X134741500Y-120888000D01*
X134741500Y-120388000D01*
X135641500Y-120388000D01*
X135641500Y-120888000D01*
X135641500Y-120888000D01*
G37*
G36*
X120138000Y-120146000D02*
X119638000Y-120146000D01*
X119638000Y-119546000D01*
X120138000Y-119546000D01*
X120138000Y-120146000D01*
X120138000Y-120146000D01*
G37*
G36*
X117610000Y-120084000D02*
X117110000Y-120084000D01*
X117110000Y-119184000D01*
X117610000Y-119184000D01*
X117610000Y-120084000D01*
X117610000Y-120084000D01*
G37*
G36*
X119110000Y-120084000D02*
X118610000Y-120084000D01*
X118610000Y-119184000D01*
X119110000Y-119184000D01*
X119110000Y-120084000D01*
X119110000Y-120084000D01*
G37*
G36*
X123186000Y-120019000D02*
X122686000Y-120019000D01*
X122686000Y-119419000D01*
X123186000Y-119419000D01*
X123186000Y-120019000D01*
X123186000Y-120019000D01*
G37*
G36*
X125980000Y-120019000D02*
X125480000Y-120019000D01*
X125480000Y-119419000D01*
X125980000Y-119419000D01*
X125980000Y-120019000D01*
X125980000Y-120019000D01*
G37*
G36*
X133334000Y-119830000D02*
X132834000Y-119830000D01*
X132834000Y-118930000D01*
X133334000Y-118930000D01*
X133334000Y-119830000D01*
X133334000Y-119830000D01*
G37*
G36*
X131834000Y-119830000D02*
X131334000Y-119830000D01*
X131334000Y-118930000D01*
X131834000Y-118930000D01*
X131834000Y-119830000D01*
X131834000Y-119830000D01*
G37*
G36*
X124783000Y-119769000D02*
X123883000Y-119769000D01*
X123883000Y-119269000D01*
X124783000Y-119269000D01*
X124783000Y-119769000D01*
X124783000Y-119769000D01*
G37*
G36*
X121862000Y-119769000D02*
X120962000Y-119769000D01*
X120962000Y-119269000D01*
X121862000Y-119269000D01*
X121862000Y-119769000D01*
X121862000Y-119769000D01*
G37*
G36*
X146996500Y-119728500D02*
X146246500Y-119728500D01*
X146246500Y-118928500D01*
X146996500Y-118928500D01*
X146996500Y-119728500D01*
X146996500Y-119728500D01*
G37*
G36*
X145357000Y-119578500D02*
X144457000Y-119578500D01*
X144457000Y-119078500D01*
X145357000Y-119078500D01*
X145357000Y-119578500D01*
X145357000Y-119578500D01*
G37*
G36*
X135641500Y-119388000D02*
X134741500Y-119388000D01*
X134741500Y-118888000D01*
X135641500Y-118888000D01*
X135641500Y-119388000D01*
X135641500Y-119388000D01*
G37*
G36*
X119396630Y-116162299D02*
X119556855Y-116210903D01*
X119704520Y-116289831D01*
X119833949Y-116396051D01*
X119940169Y-116525480D01*
X120019097Y-116673145D01*
X120067701Y-116833370D01*
X120084112Y-117000000D01*
X120067701Y-117166630D01*
X120019097Y-117326855D01*
X119940169Y-117474520D01*
X119833949Y-117603949D01*
X119704520Y-117710169D01*
X119556855Y-117789097D01*
X119396630Y-117837701D01*
X119271752Y-117850000D01*
X119188248Y-117850000D01*
X119063370Y-117837701D01*
X118903145Y-117789097D01*
X118755480Y-117710169D01*
X118626051Y-117603949D01*
X118519831Y-117474520D01*
X118440903Y-117326855D01*
X118392299Y-117166630D01*
X118375888Y-117000000D01*
X118392299Y-116833370D01*
X118440903Y-116673145D01*
X118519831Y-116525480D01*
X118626051Y-116396051D01*
X118755480Y-116289831D01*
X118903145Y-116210903D01*
X119063370Y-116162299D01*
X119188248Y-116150000D01*
X119271752Y-116150000D01*
X119396630Y-116162299D01*
X119396630Y-116162299D01*
G37*
G36*
X144796630Y-116162299D02*
X144956855Y-116210903D01*
X145104520Y-116289831D01*
X145233949Y-116396051D01*
X145340169Y-116525480D01*
X145419097Y-116673145D01*
X145467701Y-116833370D01*
X145484112Y-117000000D01*
X145467701Y-117166630D01*
X145419097Y-117326855D01*
X145340169Y-117474520D01*
X145233949Y-117603949D01*
X145104520Y-117710169D01*
X144956855Y-117789097D01*
X144796630Y-117837701D01*
X144671752Y-117850000D01*
X144588248Y-117850000D01*
X144463370Y-117837701D01*
X144303145Y-117789097D01*
X144155480Y-117710169D01*
X144026051Y-117603949D01*
X143919831Y-117474520D01*
X143840903Y-117326855D01*
X143792299Y-117166630D01*
X143775888Y-117000000D01*
X143792299Y-116833370D01*
X143840903Y-116673145D01*
X143919831Y-116525480D01*
X144026051Y-116396051D01*
X144155480Y-116289831D01*
X144303145Y-116210903D01*
X144463370Y-116162299D01*
X144588248Y-116150000D01*
X144671752Y-116150000D01*
X144796630Y-116162299D01*
X144796630Y-116162299D01*
G37*
G36*
X132096630Y-116162299D02*
X132256855Y-116210903D01*
X132404520Y-116289831D01*
X132533949Y-116396051D01*
X132640169Y-116525480D01*
X132719097Y-116673145D01*
X132767701Y-116833370D01*
X132784112Y-117000000D01*
X132767701Y-117166630D01*
X132719097Y-117326855D01*
X132640169Y-117474520D01*
X132533949Y-117603949D01*
X132404520Y-117710169D01*
X132256855Y-117789097D01*
X132096630Y-117837701D01*
X131971752Y-117850000D01*
X131888248Y-117850000D01*
X131763370Y-117837701D01*
X131603145Y-117789097D01*
X131455480Y-117710169D01*
X131326051Y-117603949D01*
X131219831Y-117474520D01*
X131140903Y-117326855D01*
X131092299Y-117166630D01*
X131075888Y-117000000D01*
X131092299Y-116833370D01*
X131140903Y-116673145D01*
X131219831Y-116525480D01*
X131326051Y-116396051D01*
X131455480Y-116289831D01*
X131603145Y-116210903D01*
X131763370Y-116162299D01*
X131888248Y-116150000D01*
X131971752Y-116150000D01*
X132096630Y-116162299D01*
X132096630Y-116162299D01*
G37*
G36*
X137176630Y-116162299D02*
X137336855Y-116210903D01*
X137484520Y-116289831D01*
X137613949Y-116396051D01*
X137720169Y-116525480D01*
X137799097Y-116673145D01*
X137847701Y-116833370D01*
X137864112Y-117000000D01*
X137847701Y-117166630D01*
X137799097Y-117326855D01*
X137720169Y-117474520D01*
X137613949Y-117603949D01*
X137484520Y-117710169D01*
X137336855Y-117789097D01*
X137176630Y-117837701D01*
X137051752Y-117850000D01*
X136968248Y-117850000D01*
X136843370Y-117837701D01*
X136683145Y-117789097D01*
X136535480Y-117710169D01*
X136406051Y-117603949D01*
X136299831Y-117474520D01*
X136220903Y-117326855D01*
X136172299Y-117166630D01*
X136155888Y-117000000D01*
X136172299Y-116833370D01*
X136220903Y-116673145D01*
X136299831Y-116525480D01*
X136406051Y-116396051D01*
X136535480Y-116289831D01*
X136683145Y-116210903D01*
X136843370Y-116162299D01*
X136968248Y-116150000D01*
X137051752Y-116150000D01*
X137176630Y-116162299D01*
X137176630Y-116162299D01*
G37*
G36*
X134636630Y-116162299D02*
X134796855Y-116210903D01*
X134944520Y-116289831D01*
X135073949Y-116396051D01*
X135180169Y-116525480D01*
X135259097Y-116673145D01*
X135307701Y-116833370D01*
X135324112Y-117000000D01*
X135307701Y-117166630D01*
X135259097Y-117326855D01*
X135180169Y-117474520D01*
X135073949Y-117603949D01*
X134944520Y-117710169D01*
X134796855Y-117789097D01*
X134636630Y-117837701D01*
X134511752Y-117850000D01*
X134428248Y-117850000D01*
X134303370Y-117837701D01*
X134143145Y-117789097D01*
X133995480Y-117710169D01*
X133866051Y-117603949D01*
X133759831Y-117474520D01*
X133680903Y-117326855D01*
X133632299Y-117166630D01*
X133615888Y-117000000D01*
X133632299Y-116833370D01*
X133680903Y-116673145D01*
X133759831Y-116525480D01*
X133866051Y-116396051D01*
X133995480Y-116289831D01*
X134143145Y-116210903D01*
X134303370Y-116162299D01*
X134428248Y-116150000D01*
X134511752Y-116150000D01*
X134636630Y-116162299D01*
X134636630Y-116162299D01*
G37*
G36*
X109236630Y-116162299D02*
X109396855Y-116210903D01*
X109544520Y-116289831D01*
X109673949Y-116396051D01*
X109780169Y-116525480D01*
X109859097Y-116673145D01*
X109907701Y-116833370D01*
X109924112Y-117000000D01*
X109907701Y-117166630D01*
X109859097Y-117326855D01*
X109780169Y-117474520D01*
X109673949Y-117603949D01*
X109544520Y-117710169D01*
X109396855Y-117789097D01*
X109236630Y-117837701D01*
X109111752Y-117850000D01*
X109028248Y-117850000D01*
X108903370Y-117837701D01*
X108743145Y-117789097D01*
X108595480Y-117710169D01*
X108466051Y-117603949D01*
X108359831Y-117474520D01*
X108280903Y-117326855D01*
X108232299Y-117166630D01*
X108215888Y-117000000D01*
X108232299Y-116833370D01*
X108280903Y-116673145D01*
X108359831Y-116525480D01*
X108466051Y-116396051D01*
X108595480Y-116289831D01*
X108743145Y-116210903D01*
X108903370Y-116162299D01*
X109028248Y-116150000D01*
X109111752Y-116150000D01*
X109236630Y-116162299D01*
X109236630Y-116162299D01*
G37*
G36*
X99076630Y-116162299D02*
X99236855Y-116210903D01*
X99384520Y-116289831D01*
X99513949Y-116396051D01*
X99620169Y-116525480D01*
X99699097Y-116673145D01*
X99747701Y-116833370D01*
X99764112Y-117000000D01*
X99747701Y-117166630D01*
X99699097Y-117326855D01*
X99620169Y-117474520D01*
X99513949Y-117603949D01*
X99384520Y-117710169D01*
X99236855Y-117789097D01*
X99076630Y-117837701D01*
X98951752Y-117850000D01*
X98868248Y-117850000D01*
X98743370Y-117837701D01*
X98583145Y-117789097D01*
X98435480Y-117710169D01*
X98306051Y-117603949D01*
X98199831Y-117474520D01*
X98120903Y-117326855D01*
X98072299Y-117166630D01*
X98055888Y-117000000D01*
X98072299Y-116833370D01*
X98120903Y-116673145D01*
X98199831Y-116525480D01*
X98306051Y-116396051D01*
X98435480Y-116289831D01*
X98583145Y-116210903D01*
X98743370Y-116162299D01*
X98868248Y-116150000D01*
X98951752Y-116150000D01*
X99076630Y-116162299D01*
X99076630Y-116162299D01*
G37*
G36*
X101616630Y-116162299D02*
X101776855Y-116210903D01*
X101924520Y-116289831D01*
X102053949Y-116396051D01*
X102160169Y-116525480D01*
X102239097Y-116673145D01*
X102287701Y-116833370D01*
X102304112Y-117000000D01*
X102287701Y-117166630D01*
X102239097Y-117326855D01*
X102160169Y-117474520D01*
X102053949Y-117603949D01*
X101924520Y-117710169D01*
X101776855Y-117789097D01*
X101616630Y-117837701D01*
X101491752Y-117850000D01*
X101408248Y-117850000D01*
X101283370Y-117837701D01*
X101123145Y-117789097D01*
X100975480Y-117710169D01*
X100846051Y-117603949D01*
X100739831Y-117474520D01*
X100660903Y-117326855D01*
X100612299Y-117166630D01*
X100595888Y-117000000D01*
X100612299Y-116833370D01*
X100660903Y-116673145D01*
X100739831Y-116525480D01*
X100846051Y-116396051D01*
X100975480Y-116289831D01*
X101123145Y-116210903D01*
X101283370Y-116162299D01*
X101408248Y-116150000D01*
X101491752Y-116150000D01*
X101616630Y-116162299D01*
X101616630Y-116162299D01*
G37*
G36*
X104156630Y-116162299D02*
X104316855Y-116210903D01*
X104464520Y-116289831D01*
X104593949Y-116396051D01*
X104700169Y-116525480D01*
X104779097Y-116673145D01*
X104827701Y-116833370D01*
X104844112Y-117000000D01*
X104827701Y-117166630D01*
X104779097Y-117326855D01*
X104700169Y-117474520D01*
X104593949Y-117603949D01*
X104464520Y-117710169D01*
X104316855Y-117789097D01*
X104156630Y-117837701D01*
X104031752Y-117850000D01*
X103948248Y-117850000D01*
X103823370Y-117837701D01*
X103663145Y-117789097D01*
X103515480Y-117710169D01*
X103386051Y-117603949D01*
X103279831Y-117474520D01*
X103200903Y-117326855D01*
X103152299Y-117166630D01*
X103135888Y-117000000D01*
X103152299Y-116833370D01*
X103200903Y-116673145D01*
X103279831Y-116525480D01*
X103386051Y-116396051D01*
X103515480Y-116289831D01*
X103663145Y-116210903D01*
X103823370Y-116162299D01*
X103948248Y-116150000D01*
X104031752Y-116150000D01*
X104156630Y-116162299D01*
X104156630Y-116162299D01*
G37*
G36*
X106696630Y-116162299D02*
X106856855Y-116210903D01*
X107004520Y-116289831D01*
X107133949Y-116396051D01*
X107240169Y-116525480D01*
X107319097Y-116673145D01*
X107367701Y-116833370D01*
X107384112Y-117000000D01*
X107367701Y-117166630D01*
X107319097Y-117326855D01*
X107240169Y-117474520D01*
X107133949Y-117603949D01*
X107004520Y-117710169D01*
X106856855Y-117789097D01*
X106696630Y-117837701D01*
X106571752Y-117850000D01*
X106488248Y-117850000D01*
X106363370Y-117837701D01*
X106203145Y-117789097D01*
X106055480Y-117710169D01*
X105926051Y-117603949D01*
X105819831Y-117474520D01*
X105740903Y-117326855D01*
X105692299Y-117166630D01*
X105675888Y-117000000D01*
X105692299Y-116833370D01*
X105740903Y-116673145D01*
X105819831Y-116525480D01*
X105926051Y-116396051D01*
X106055480Y-116289831D01*
X106203145Y-116210903D01*
X106363370Y-116162299D01*
X106488248Y-116150000D01*
X106571752Y-116150000D01*
X106696630Y-116162299D01*
X106696630Y-116162299D01*
G37*
G36*
X142256630Y-116162299D02*
X142416855Y-116210903D01*
X142564520Y-116289831D01*
X142693949Y-116396051D01*
X142800169Y-116525480D01*
X142879097Y-116673145D01*
X142927701Y-116833370D01*
X142944112Y-117000000D01*
X142927701Y-117166630D01*
X142879097Y-117326855D01*
X142800169Y-117474520D01*
X142693949Y-117603949D01*
X142564520Y-117710169D01*
X142416855Y-117789097D01*
X142256630Y-117837701D01*
X142131752Y-117850000D01*
X142048248Y-117850000D01*
X141923370Y-117837701D01*
X141763145Y-117789097D01*
X141615480Y-117710169D01*
X141486051Y-117603949D01*
X141379831Y-117474520D01*
X141300903Y-117326855D01*
X141252299Y-117166630D01*
X141235888Y-117000000D01*
X141252299Y-116833370D01*
X141300903Y-116673145D01*
X141379831Y-116525480D01*
X141486051Y-116396051D01*
X141615480Y-116289831D01*
X141763145Y-116210903D01*
X141923370Y-116162299D01*
X142048248Y-116150000D01*
X142131752Y-116150000D01*
X142256630Y-116162299D01*
X142256630Y-116162299D01*
G37*
G36*
X139716630Y-116162299D02*
X139876855Y-116210903D01*
X140024520Y-116289831D01*
X140153949Y-116396051D01*
X140260169Y-116525480D01*
X140339097Y-116673145D01*
X140387701Y-116833370D01*
X140404112Y-117000000D01*
X140387701Y-117166630D01*
X140339097Y-117326855D01*
X140260169Y-117474520D01*
X140153949Y-117603949D01*
X140024520Y-117710169D01*
X139876855Y-117789097D01*
X139716630Y-117837701D01*
X139591752Y-117850000D01*
X139508248Y-117850000D01*
X139383370Y-117837701D01*
X139223145Y-117789097D01*
X139075480Y-117710169D01*
X138946051Y-117603949D01*
X138839831Y-117474520D01*
X138760903Y-117326855D01*
X138712299Y-117166630D01*
X138695888Y-117000000D01*
X138712299Y-116833370D01*
X138760903Y-116673145D01*
X138839831Y-116525480D01*
X138946051Y-116396051D01*
X139075480Y-116289831D01*
X139223145Y-116210903D01*
X139383370Y-116162299D01*
X139508248Y-116150000D01*
X139591752Y-116150000D01*
X139716630Y-116162299D01*
X139716630Y-116162299D01*
G37*
G36*
X114316630Y-116162299D02*
X114476855Y-116210903D01*
X114624520Y-116289831D01*
X114753949Y-116396051D01*
X114860169Y-116525480D01*
X114939097Y-116673145D01*
X114987701Y-116833370D01*
X115004112Y-117000000D01*
X114987701Y-117166630D01*
X114939097Y-117326855D01*
X114860169Y-117474520D01*
X114753949Y-117603949D01*
X114624520Y-117710169D01*
X114476855Y-117789097D01*
X114316630Y-117837701D01*
X114191752Y-117850000D01*
X114108248Y-117850000D01*
X113983370Y-117837701D01*
X113823145Y-117789097D01*
X113675480Y-117710169D01*
X113546051Y-117603949D01*
X113439831Y-117474520D01*
X113360903Y-117326855D01*
X113312299Y-117166630D01*
X113295888Y-117000000D01*
X113312299Y-116833370D01*
X113360903Y-116673145D01*
X113439831Y-116525480D01*
X113546051Y-116396051D01*
X113675480Y-116289831D01*
X113823145Y-116210903D01*
X113983370Y-116162299D01*
X114108248Y-116150000D01*
X114191752Y-116150000D01*
X114316630Y-116162299D01*
X114316630Y-116162299D01*
G37*
G36*
X124476630Y-116162299D02*
X124636855Y-116210903D01*
X124784520Y-116289831D01*
X124913949Y-116396051D01*
X125020169Y-116525480D01*
X125099097Y-116673145D01*
X125147701Y-116833370D01*
X125164112Y-117000000D01*
X125147701Y-117166630D01*
X125099097Y-117326855D01*
X125020169Y-117474520D01*
X124913949Y-117603949D01*
X124784520Y-117710169D01*
X124636855Y-117789097D01*
X124476630Y-117837701D01*
X124351752Y-117850000D01*
X124268248Y-117850000D01*
X124143370Y-117837701D01*
X123983145Y-117789097D01*
X123835480Y-117710169D01*
X123706051Y-117603949D01*
X123599831Y-117474520D01*
X123520903Y-117326855D01*
X123472299Y-117166630D01*
X123455888Y-117000000D01*
X123472299Y-116833370D01*
X123520903Y-116673145D01*
X123599831Y-116525480D01*
X123706051Y-116396051D01*
X123835480Y-116289831D01*
X123983145Y-116210903D01*
X124143370Y-116162299D01*
X124268248Y-116150000D01*
X124351752Y-116150000D01*
X124476630Y-116162299D01*
X124476630Y-116162299D01*
G37*
G36*
X121936630Y-116162299D02*
X122096855Y-116210903D01*
X122244520Y-116289831D01*
X122373949Y-116396051D01*
X122480169Y-116525480D01*
X122559097Y-116673145D01*
X122607701Y-116833370D01*
X122624112Y-117000000D01*
X122607701Y-117166630D01*
X122559097Y-117326855D01*
X122480169Y-117474520D01*
X122373949Y-117603949D01*
X122244520Y-117710169D01*
X122096855Y-117789097D01*
X121936630Y-117837701D01*
X121811752Y-117850000D01*
X121728248Y-117850000D01*
X121603370Y-117837701D01*
X121443145Y-117789097D01*
X121295480Y-117710169D01*
X121166051Y-117603949D01*
X121059831Y-117474520D01*
X120980903Y-117326855D01*
X120932299Y-117166630D01*
X120915888Y-117000000D01*
X120932299Y-116833370D01*
X120980903Y-116673145D01*
X121059831Y-116525480D01*
X121166051Y-116396051D01*
X121295480Y-116289831D01*
X121443145Y-116210903D01*
X121603370Y-116162299D01*
X121728248Y-116150000D01*
X121811752Y-116150000D01*
X121936630Y-116162299D01*
X121936630Y-116162299D01*
G37*
G36*
X127016630Y-116162299D02*
X127176855Y-116210903D01*
X127324520Y-116289831D01*
X127453949Y-116396051D01*
X127560169Y-116525480D01*
X127639097Y-116673145D01*
X127687701Y-116833370D01*
X127704112Y-117000000D01*
X127687701Y-117166630D01*
X127639097Y-117326855D01*
X127560169Y-117474520D01*
X127453949Y-117603949D01*
X127324520Y-117710169D01*
X127176855Y-117789097D01*
X127016630Y-117837701D01*
X126891752Y-117850000D01*
X126808248Y-117850000D01*
X126683370Y-117837701D01*
X126523145Y-117789097D01*
X126375480Y-117710169D01*
X126246051Y-117603949D01*
X126139831Y-117474520D01*
X126060903Y-117326855D01*
X126012299Y-117166630D01*
X125995888Y-117000000D01*
X126012299Y-116833370D01*
X126060903Y-116673145D01*
X126139831Y-116525480D01*
X126246051Y-116396051D01*
X126375480Y-116289831D01*
X126523145Y-116210903D01*
X126683370Y-116162299D01*
X126808248Y-116150000D01*
X126891752Y-116150000D01*
X127016630Y-116162299D01*
X127016630Y-116162299D01*
G37*
G36*
X116856630Y-116162299D02*
X117016855Y-116210903D01*
X117164520Y-116289831D01*
X117293949Y-116396051D01*
X117400169Y-116525480D01*
X117479097Y-116673145D01*
X117527701Y-116833370D01*
X117544112Y-117000000D01*
X117527701Y-117166630D01*
X117479097Y-117326855D01*
X117400169Y-117474520D01*
X117293949Y-117603949D01*
X117164520Y-117710169D01*
X117016855Y-117789097D01*
X116856630Y-117837701D01*
X116731752Y-117850000D01*
X116648248Y-117850000D01*
X116523370Y-117837701D01*
X116363145Y-117789097D01*
X116215480Y-117710169D01*
X116086051Y-117603949D01*
X115979831Y-117474520D01*
X115900903Y-117326855D01*
X115852299Y-117166630D01*
X115835888Y-117000000D01*
X115852299Y-116833370D01*
X115900903Y-116673145D01*
X115979831Y-116525480D01*
X116086051Y-116396051D01*
X116215480Y-116289831D01*
X116363145Y-116210903D01*
X116523370Y-116162299D01*
X116648248Y-116150000D01*
X116731752Y-116150000D01*
X116856630Y-116162299D01*
X116856630Y-116162299D01*
G37*
G36*
X129556630Y-116162299D02*
X129716855Y-116210903D01*
X129864520Y-116289831D01*
X129993949Y-116396051D01*
X130100169Y-116525480D01*
X130179097Y-116673145D01*
X130227701Y-116833370D01*
X130244112Y-117000000D01*
X130227701Y-117166630D01*
X130179097Y-117326855D01*
X130100169Y-117474520D01*
X129993949Y-117603949D01*
X129864520Y-117710169D01*
X129716855Y-117789097D01*
X129556630Y-117837701D01*
X129431752Y-117850000D01*
X129348248Y-117850000D01*
X129223370Y-117837701D01*
X129063145Y-117789097D01*
X128915480Y-117710169D01*
X128786051Y-117603949D01*
X128679831Y-117474520D01*
X128600903Y-117326855D01*
X128552299Y-117166630D01*
X128535888Y-117000000D01*
X128552299Y-116833370D01*
X128600903Y-116673145D01*
X128679831Y-116525480D01*
X128786051Y-116396051D01*
X128915480Y-116289831D01*
X129063145Y-116210903D01*
X129223370Y-116162299D01*
X129348248Y-116150000D01*
X129431752Y-116150000D01*
X129556630Y-116162299D01*
X129556630Y-116162299D01*
G37*
G36*
X111776630Y-116162299D02*
X111936855Y-116210903D01*
X112084520Y-116289831D01*
X112213949Y-116396051D01*
X112320169Y-116525480D01*
X112399097Y-116673145D01*
X112447701Y-116833370D01*
X112464112Y-117000000D01*
X112447701Y-117166630D01*
X112399097Y-117326855D01*
X112320169Y-117474520D01*
X112213949Y-117603949D01*
X112084520Y-117710169D01*
X111936855Y-117789097D01*
X111776630Y-117837701D01*
X111651752Y-117850000D01*
X111568248Y-117850000D01*
X111443370Y-117837701D01*
X111283145Y-117789097D01*
X111135480Y-117710169D01*
X111006051Y-117603949D01*
X110899831Y-117474520D01*
X110820903Y-117326855D01*
X110772299Y-117166630D01*
X110755888Y-117000000D01*
X110772299Y-116833370D01*
X110820903Y-116673145D01*
X110899831Y-116525480D01*
X111006051Y-116396051D01*
X111135480Y-116289831D01*
X111283145Y-116210903D01*
X111443370Y-116162299D01*
X111568248Y-116150000D01*
X111651752Y-116150000D01*
X111776630Y-116162299D01*
X111776630Y-116162299D01*
G37*
G36*
X97220000Y-117620000D02*
X95520000Y-117620000D01*
X95520000Y-115920000D01*
X97220000Y-115920000D01*
X97220000Y-117620000D01*
X97220000Y-117620000D01*
G37*
G36*
X132096630Y-113622299D02*
X132256855Y-113670903D01*
X132404520Y-113749831D01*
X132533949Y-113856051D01*
X132640169Y-113985480D01*
X132719097Y-114133145D01*
X132767701Y-114293370D01*
X132784112Y-114460000D01*
X132767701Y-114626630D01*
X132719097Y-114786855D01*
X132640169Y-114934520D01*
X132533949Y-115063949D01*
X132404520Y-115170169D01*
X132256855Y-115249097D01*
X132096630Y-115297701D01*
X131971752Y-115310000D01*
X131888248Y-115310000D01*
X131763370Y-115297701D01*
X131603145Y-115249097D01*
X131455480Y-115170169D01*
X131326051Y-115063949D01*
X131219831Y-114934520D01*
X131140903Y-114786855D01*
X131092299Y-114626630D01*
X131075888Y-114460000D01*
X131092299Y-114293370D01*
X131140903Y-114133145D01*
X131219831Y-113985480D01*
X131326051Y-113856051D01*
X131455480Y-113749831D01*
X131603145Y-113670903D01*
X131763370Y-113622299D01*
X131888248Y-113610000D01*
X131971752Y-113610000D01*
X132096630Y-113622299D01*
X132096630Y-113622299D01*
G37*
G36*
X144796630Y-113622299D02*
X144956855Y-113670903D01*
X145104520Y-113749831D01*
X145233949Y-113856051D01*
X145340169Y-113985480D01*
X145419097Y-114133145D01*
X145467701Y-114293370D01*
X145484112Y-114460000D01*
X145467701Y-114626630D01*
X145419097Y-114786855D01*
X145340169Y-114934520D01*
X145233949Y-115063949D01*
X145104520Y-115170169D01*
X144956855Y-115249097D01*
X144796630Y-115297701D01*
X144671752Y-115310000D01*
X144588248Y-115310000D01*
X144463370Y-115297701D01*
X144303145Y-115249097D01*
X144155480Y-115170169D01*
X144026051Y-115063949D01*
X143919831Y-114934520D01*
X143840903Y-114786855D01*
X143792299Y-114626630D01*
X143775888Y-114460000D01*
X143792299Y-114293370D01*
X143840903Y-114133145D01*
X143919831Y-113985480D01*
X144026051Y-113856051D01*
X144155480Y-113749831D01*
X144303145Y-113670903D01*
X144463370Y-113622299D01*
X144588248Y-113610000D01*
X144671752Y-113610000D01*
X144796630Y-113622299D01*
X144796630Y-113622299D01*
G37*
G36*
X142256630Y-113622299D02*
X142416855Y-113670903D01*
X142564520Y-113749831D01*
X142693949Y-113856051D01*
X142800169Y-113985480D01*
X142879097Y-114133145D01*
X142927701Y-114293370D01*
X142944112Y-114460000D01*
X142927701Y-114626630D01*
X142879097Y-114786855D01*
X142800169Y-114934520D01*
X142693949Y-115063949D01*
X142564520Y-115170169D01*
X142416855Y-115249097D01*
X142256630Y-115297701D01*
X142131752Y-115310000D01*
X142048248Y-115310000D01*
X141923370Y-115297701D01*
X141763145Y-115249097D01*
X141615480Y-115170169D01*
X141486051Y-115063949D01*
X141379831Y-114934520D01*
X141300903Y-114786855D01*
X141252299Y-114626630D01*
X141235888Y-114460000D01*
X141252299Y-114293370D01*
X141300903Y-114133145D01*
X141379831Y-113985480D01*
X141486051Y-113856051D01*
X141615480Y-113749831D01*
X141763145Y-113670903D01*
X141923370Y-113622299D01*
X142048248Y-113610000D01*
X142131752Y-113610000D01*
X142256630Y-113622299D01*
X142256630Y-113622299D01*
G37*
G36*
X139716630Y-113622299D02*
X139876855Y-113670903D01*
X140024520Y-113749831D01*
X140153949Y-113856051D01*
X140260169Y-113985480D01*
X140339097Y-114133145D01*
X140387701Y-114293370D01*
X140404112Y-114460000D01*
X140387701Y-114626630D01*
X140339097Y-114786855D01*
X140260169Y-114934520D01*
X140153949Y-115063949D01*
X140024520Y-115170169D01*
X139876855Y-115249097D01*
X139716630Y-115297701D01*
X139591752Y-115310000D01*
X139508248Y-115310000D01*
X139383370Y-115297701D01*
X139223145Y-115249097D01*
X139075480Y-115170169D01*
X138946051Y-115063949D01*
X138839831Y-114934520D01*
X138760903Y-114786855D01*
X138712299Y-114626630D01*
X138695888Y-114460000D01*
X138712299Y-114293370D01*
X138760903Y-114133145D01*
X138839831Y-113985480D01*
X138946051Y-113856051D01*
X139075480Y-113749831D01*
X139223145Y-113670903D01*
X139383370Y-113622299D01*
X139508248Y-113610000D01*
X139591752Y-113610000D01*
X139716630Y-113622299D01*
X139716630Y-113622299D01*
G37*
G36*
X137176630Y-113622299D02*
X137336855Y-113670903D01*
X137484520Y-113749831D01*
X137613949Y-113856051D01*
X137720169Y-113985480D01*
X137799097Y-114133145D01*
X137847701Y-114293370D01*
X137864112Y-114460000D01*
X137847701Y-114626630D01*
X137799097Y-114786855D01*
X137720169Y-114934520D01*
X137613949Y-115063949D01*
X137484520Y-115170169D01*
X137336855Y-115249097D01*
X137176630Y-115297701D01*
X137051752Y-115310000D01*
X136968248Y-115310000D01*
X136843370Y-115297701D01*
X136683145Y-115249097D01*
X136535480Y-115170169D01*
X136406051Y-115063949D01*
X136299831Y-114934520D01*
X136220903Y-114786855D01*
X136172299Y-114626630D01*
X136155888Y-114460000D01*
X136172299Y-114293370D01*
X136220903Y-114133145D01*
X136299831Y-113985480D01*
X136406051Y-113856051D01*
X136535480Y-113749831D01*
X136683145Y-113670903D01*
X136843370Y-113622299D01*
X136968248Y-113610000D01*
X137051752Y-113610000D01*
X137176630Y-113622299D01*
X137176630Y-113622299D01*
G37*
G36*
X121936630Y-113622299D02*
X122096855Y-113670903D01*
X122244520Y-113749831D01*
X122373949Y-113856051D01*
X122480169Y-113985480D01*
X122559097Y-114133145D01*
X122607701Y-114293370D01*
X122624112Y-114460000D01*
X122607701Y-114626630D01*
X122559097Y-114786855D01*
X122480169Y-114934520D01*
X122373949Y-115063949D01*
X122244520Y-115170169D01*
X122096855Y-115249097D01*
X121936630Y-115297701D01*
X121811752Y-115310000D01*
X121728248Y-115310000D01*
X121603370Y-115297701D01*
X121443145Y-115249097D01*
X121295480Y-115170169D01*
X121166051Y-115063949D01*
X121059831Y-114934520D01*
X120980903Y-114786855D01*
X120932299Y-114626630D01*
X120915888Y-114460000D01*
X120932299Y-114293370D01*
X120980903Y-114133145D01*
X121059831Y-113985480D01*
X121166051Y-113856051D01*
X121295480Y-113749831D01*
X121443145Y-113670903D01*
X121603370Y-113622299D01*
X121728248Y-113610000D01*
X121811752Y-113610000D01*
X121936630Y-113622299D01*
X121936630Y-113622299D01*
G37*
G36*
X124476630Y-113622299D02*
X124636855Y-113670903D01*
X124784520Y-113749831D01*
X124913949Y-113856051D01*
X125020169Y-113985480D01*
X125099097Y-114133145D01*
X125147701Y-114293370D01*
X125164112Y-114460000D01*
X125147701Y-114626630D01*
X125099097Y-114786855D01*
X125020169Y-114934520D01*
X124913949Y-115063949D01*
X124784520Y-115170169D01*
X124636855Y-115249097D01*
X124476630Y-115297701D01*
X124351752Y-115310000D01*
X124268248Y-115310000D01*
X124143370Y-115297701D01*
X123983145Y-115249097D01*
X123835480Y-115170169D01*
X123706051Y-115063949D01*
X123599831Y-114934520D01*
X123520903Y-114786855D01*
X123472299Y-114626630D01*
X123455888Y-114460000D01*
X123472299Y-114293370D01*
X123520903Y-114133145D01*
X123599831Y-113985480D01*
X123706051Y-113856051D01*
X123835480Y-113749831D01*
X123983145Y-113670903D01*
X124143370Y-113622299D01*
X124268248Y-113610000D01*
X124351752Y-113610000D01*
X124476630Y-113622299D01*
X124476630Y-113622299D01*
G37*
G36*
X127016630Y-113622299D02*
X127176855Y-113670903D01*
X127324520Y-113749831D01*
X127453949Y-113856051D01*
X127560169Y-113985480D01*
X127639097Y-114133145D01*
X127687701Y-114293370D01*
X127704112Y-114460000D01*
X127687701Y-114626630D01*
X127639097Y-114786855D01*
X127560169Y-114934520D01*
X127453949Y-115063949D01*
X127324520Y-115170169D01*
X127176855Y-115249097D01*
X127016630Y-115297701D01*
X126891752Y-115310000D01*
X126808248Y-115310000D01*
X126683370Y-115297701D01*
X126523145Y-115249097D01*
X126375480Y-115170169D01*
X126246051Y-115063949D01*
X126139831Y-114934520D01*
X126060903Y-114786855D01*
X126012299Y-114626630D01*
X125995888Y-114460000D01*
X126012299Y-114293370D01*
X126060903Y-114133145D01*
X126139831Y-113985480D01*
X126246051Y-113856051D01*
X126375480Y-113749831D01*
X126523145Y-113670903D01*
X126683370Y-113622299D01*
X126808248Y-113610000D01*
X126891752Y-113610000D01*
X127016630Y-113622299D01*
X127016630Y-113622299D01*
G37*
G36*
X129556630Y-113622299D02*
X129716855Y-113670903D01*
X129864520Y-113749831D01*
X129993949Y-113856051D01*
X130100169Y-113985480D01*
X130179097Y-114133145D01*
X130227701Y-114293370D01*
X130244112Y-114460000D01*
X130227701Y-114626630D01*
X130179097Y-114786855D01*
X130100169Y-114934520D01*
X129993949Y-115063949D01*
X129864520Y-115170169D01*
X129716855Y-115249097D01*
X129556630Y-115297701D01*
X129431752Y-115310000D01*
X129348248Y-115310000D01*
X129223370Y-115297701D01*
X129063145Y-115249097D01*
X128915480Y-115170169D01*
X128786051Y-115063949D01*
X128679831Y-114934520D01*
X128600903Y-114786855D01*
X128552299Y-114626630D01*
X128535888Y-114460000D01*
X128552299Y-114293370D01*
X128600903Y-114133145D01*
X128679831Y-113985480D01*
X128786051Y-113856051D01*
X128915480Y-113749831D01*
X129063145Y-113670903D01*
X129223370Y-113622299D01*
X129348248Y-113610000D01*
X129431752Y-113610000D01*
X129556630Y-113622299D01*
X129556630Y-113622299D01*
G37*
G36*
X114316630Y-113622299D02*
X114476855Y-113670903D01*
X114624520Y-113749831D01*
X114753949Y-113856051D01*
X114860169Y-113985480D01*
X114939097Y-114133145D01*
X114987701Y-114293370D01*
X115004112Y-114460000D01*
X114987701Y-114626630D01*
X114939097Y-114786855D01*
X114860169Y-114934520D01*
X114753949Y-115063949D01*
X114624520Y-115170169D01*
X114476855Y-115249097D01*
X114316630Y-115297701D01*
X114191752Y-115310000D01*
X114108248Y-115310000D01*
X113983370Y-115297701D01*
X113823145Y-115249097D01*
X113675480Y-115170169D01*
X113546051Y-115063949D01*
X113439831Y-114934520D01*
X113360903Y-114786855D01*
X113312299Y-114626630D01*
X113295888Y-114460000D01*
X113312299Y-114293370D01*
X113360903Y-114133145D01*
X113439831Y-113985480D01*
X113546051Y-113856051D01*
X113675480Y-113749831D01*
X113823145Y-113670903D01*
X113983370Y-113622299D01*
X114108248Y-113610000D01*
X114191752Y-113610000D01*
X114316630Y-113622299D01*
X114316630Y-113622299D01*
G37*
G36*
X104156630Y-113622299D02*
X104316855Y-113670903D01*
X104464520Y-113749831D01*
X104593949Y-113856051D01*
X104700169Y-113985480D01*
X104779097Y-114133145D01*
X104827701Y-114293370D01*
X104844112Y-114460000D01*
X104827701Y-114626630D01*
X104779097Y-114786855D01*
X104700169Y-114934520D01*
X104593949Y-115063949D01*
X104464520Y-115170169D01*
X104316855Y-115249097D01*
X104156630Y-115297701D01*
X104031752Y-115310000D01*
X103948248Y-115310000D01*
X103823370Y-115297701D01*
X103663145Y-115249097D01*
X103515480Y-115170169D01*
X103386051Y-115063949D01*
X103279831Y-114934520D01*
X103200903Y-114786855D01*
X103152299Y-114626630D01*
X103135888Y-114460000D01*
X103152299Y-114293370D01*
X103200903Y-114133145D01*
X103279831Y-113985480D01*
X103386051Y-113856051D01*
X103515480Y-113749831D01*
X103663145Y-113670903D01*
X103823370Y-113622299D01*
X103948248Y-113610000D01*
X104031752Y-113610000D01*
X104156630Y-113622299D01*
X104156630Y-113622299D01*
G37*
G36*
X109236630Y-113622299D02*
X109396855Y-113670903D01*
X109544520Y-113749831D01*
X109673949Y-113856051D01*
X109780169Y-113985480D01*
X109859097Y-114133145D01*
X109907701Y-114293370D01*
X109924112Y-114460000D01*
X109907701Y-114626630D01*
X109859097Y-114786855D01*
X109780169Y-114934520D01*
X109673949Y-115063949D01*
X109544520Y-115170169D01*
X109396855Y-115249097D01*
X109236630Y-115297701D01*
X109111752Y-115310000D01*
X109028248Y-115310000D01*
X108903370Y-115297701D01*
X108743145Y-115249097D01*
X108595480Y-115170169D01*
X108466051Y-115063949D01*
X108359831Y-114934520D01*
X108280903Y-114786855D01*
X108232299Y-114626630D01*
X108215888Y-114460000D01*
X108232299Y-114293370D01*
X108280903Y-114133145D01*
X108359831Y-113985480D01*
X108466051Y-113856051D01*
X108595480Y-113749831D01*
X108743145Y-113670903D01*
X108903370Y-113622299D01*
X109028248Y-113610000D01*
X109111752Y-113610000D01*
X109236630Y-113622299D01*
X109236630Y-113622299D01*
G37*
G36*
X101616630Y-113622299D02*
X101776855Y-113670903D01*
X101924520Y-113749831D01*
X102053949Y-113856051D01*
X102160169Y-113985480D01*
X102239097Y-114133145D01*
X102287701Y-114293370D01*
X102304112Y-114460000D01*
X102287701Y-114626630D01*
X102239097Y-114786855D01*
X102160169Y-114934520D01*
X102053949Y-115063949D01*
X101924520Y-115170169D01*
X101776855Y-115249097D01*
X101616630Y-115297701D01*
X101491752Y-115310000D01*
X101408248Y-115310000D01*
X101283370Y-115297701D01*
X101123145Y-115249097D01*
X100975480Y-115170169D01*
X100846051Y-115063949D01*
X100739831Y-114934520D01*
X100660903Y-114786855D01*
X100612299Y-114626630D01*
X100595888Y-114460000D01*
X100612299Y-114293370D01*
X100660903Y-114133145D01*
X100739831Y-113985480D01*
X100846051Y-113856051D01*
X100975480Y-113749831D01*
X101123145Y-113670903D01*
X101283370Y-113622299D01*
X101408248Y-113610000D01*
X101491752Y-113610000D01*
X101616630Y-113622299D01*
X101616630Y-113622299D01*
G37*
G36*
X111776630Y-113622299D02*
X111936855Y-113670903D01*
X112084520Y-113749831D01*
X112213949Y-113856051D01*
X112320169Y-113985480D01*
X112399097Y-114133145D01*
X112447701Y-114293370D01*
X112464112Y-114460000D01*
X112447701Y-114626630D01*
X112399097Y-114786855D01*
X112320169Y-114934520D01*
X112213949Y-115063949D01*
X112084520Y-115170169D01*
X111936855Y-115249097D01*
X111776630Y-115297701D01*
X111651752Y-115310000D01*
X111568248Y-115310000D01*
X111443370Y-115297701D01*
X111283145Y-115249097D01*
X111135480Y-115170169D01*
X111006051Y-115063949D01*
X110899831Y-114934520D01*
X110820903Y-114786855D01*
X110772299Y-114626630D01*
X110755888Y-114460000D01*
X110772299Y-114293370D01*
X110820903Y-114133145D01*
X110899831Y-113985480D01*
X111006051Y-113856051D01*
X111135480Y-113749831D01*
X111283145Y-113670903D01*
X111443370Y-113622299D01*
X111568248Y-113610000D01*
X111651752Y-113610000D01*
X111776630Y-113622299D01*
X111776630Y-113622299D01*
G37*
G36*
X99076630Y-113622299D02*
X99236855Y-113670903D01*
X99384520Y-113749831D01*
X99513949Y-113856051D01*
X99620169Y-113985480D01*
X99699097Y-114133145D01*
X99747701Y-114293370D01*
X99764112Y-114460000D01*
X99747701Y-114626630D01*
X99699097Y-114786855D01*
X99620169Y-114934520D01*
X99513949Y-115063949D01*
X99384520Y-115170169D01*
X99236855Y-115249097D01*
X99076630Y-115297701D01*
X98951752Y-115310000D01*
X98868248Y-115310000D01*
X98743370Y-115297701D01*
X98583145Y-115249097D01*
X98435480Y-115170169D01*
X98306051Y-115063949D01*
X98199831Y-114934520D01*
X98120903Y-114786855D01*
X98072299Y-114626630D01*
X98055888Y-114460000D01*
X98072299Y-114293370D01*
X98120903Y-114133145D01*
X98199831Y-113985480D01*
X98306051Y-113856051D01*
X98435480Y-113749831D01*
X98583145Y-113670903D01*
X98743370Y-113622299D01*
X98868248Y-113610000D01*
X98951752Y-113610000D01*
X99076630Y-113622299D01*
X99076630Y-113622299D01*
G37*
G36*
X106696630Y-113622299D02*
X106856855Y-113670903D01*
X107004520Y-113749831D01*
X107133949Y-113856051D01*
X107240169Y-113985480D01*
X107319097Y-114133145D01*
X107367701Y-114293370D01*
X107384112Y-114460000D01*
X107367701Y-114626630D01*
X107319097Y-114786855D01*
X107240169Y-114934520D01*
X107133949Y-115063949D01*
X107004520Y-115170169D01*
X106856855Y-115249097D01*
X106696630Y-115297701D01*
X106571752Y-115310000D01*
X106488248Y-115310000D01*
X106363370Y-115297701D01*
X106203145Y-115249097D01*
X106055480Y-115170169D01*
X105926051Y-115063949D01*
X105819831Y-114934520D01*
X105740903Y-114786855D01*
X105692299Y-114626630D01*
X105675888Y-114460000D01*
X105692299Y-114293370D01*
X105740903Y-114133145D01*
X105819831Y-113985480D01*
X105926051Y-113856051D01*
X106055480Y-113749831D01*
X106203145Y-113670903D01*
X106363370Y-113622299D01*
X106488248Y-113610000D01*
X106571752Y-113610000D01*
X106696630Y-113622299D01*
X106696630Y-113622299D01*
G37*
G36*
X96536630Y-113622299D02*
X96696855Y-113670903D01*
X96844520Y-113749831D01*
X96973949Y-113856051D01*
X97080169Y-113985480D01*
X97159097Y-114133145D01*
X97207701Y-114293370D01*
X97224112Y-114460000D01*
X97207701Y-114626630D01*
X97159097Y-114786855D01*
X97080169Y-114934520D01*
X96973949Y-115063949D01*
X96844520Y-115170169D01*
X96696855Y-115249097D01*
X96536630Y-115297701D01*
X96411752Y-115310000D01*
X96328248Y-115310000D01*
X96203370Y-115297701D01*
X96043145Y-115249097D01*
X95895480Y-115170169D01*
X95766051Y-115063949D01*
X95659831Y-114934520D01*
X95580903Y-114786855D01*
X95532299Y-114626630D01*
X95515888Y-114460000D01*
X95532299Y-114293370D01*
X95580903Y-114133145D01*
X95659831Y-113985480D01*
X95766051Y-113856051D01*
X95895480Y-113749831D01*
X96043145Y-113670903D01*
X96203370Y-113622299D01*
X96328248Y-113610000D01*
X96411752Y-113610000D01*
X96536630Y-113622299D01*
X96536630Y-113622299D01*
G37*
G36*
X119396630Y-113622299D02*
X119556855Y-113670903D01*
X119704520Y-113749831D01*
X119833949Y-113856051D01*
X119940169Y-113985480D01*
X120019097Y-114133145D01*
X120067701Y-114293370D01*
X120084112Y-114460000D01*
X120067701Y-114626630D01*
X120019097Y-114786855D01*
X119940169Y-114934520D01*
X119833949Y-115063949D01*
X119704520Y-115170169D01*
X119556855Y-115249097D01*
X119396630Y-115297701D01*
X119271752Y-115310000D01*
X119188248Y-115310000D01*
X119063370Y-115297701D01*
X118903145Y-115249097D01*
X118755480Y-115170169D01*
X118626051Y-115063949D01*
X118519831Y-114934520D01*
X118440903Y-114786855D01*
X118392299Y-114626630D01*
X118375888Y-114460000D01*
X118392299Y-114293370D01*
X118440903Y-114133145D01*
X118519831Y-113985480D01*
X118626051Y-113856051D01*
X118755480Y-113749831D01*
X118903145Y-113670903D01*
X119063370Y-113622299D01*
X119188248Y-113610000D01*
X119271752Y-113610000D01*
X119396630Y-113622299D01*
X119396630Y-113622299D01*
G37*
G36*
X134636630Y-113622299D02*
X134796855Y-113670903D01*
X134944520Y-113749831D01*
X135073949Y-113856051D01*
X135180169Y-113985480D01*
X135259097Y-114133145D01*
X135307701Y-114293370D01*
X135324112Y-114460000D01*
X135307701Y-114626630D01*
X135259097Y-114786855D01*
X135180169Y-114934520D01*
X135073949Y-115063949D01*
X134944520Y-115170169D01*
X134796855Y-115249097D01*
X134636630Y-115297701D01*
X134511752Y-115310000D01*
X134428248Y-115310000D01*
X134303370Y-115297701D01*
X134143145Y-115249097D01*
X133995480Y-115170169D01*
X133866051Y-115063949D01*
X133759831Y-114934520D01*
X133680903Y-114786855D01*
X133632299Y-114626630D01*
X133615888Y-114460000D01*
X133632299Y-114293370D01*
X133680903Y-114133145D01*
X133759831Y-113985480D01*
X133866051Y-113856051D01*
X133995480Y-113749831D01*
X134143145Y-113670903D01*
X134303370Y-113622299D01*
X134428248Y-113610000D01*
X134511752Y-113610000D01*
X134636630Y-113622299D01*
X134636630Y-113622299D01*
G37*
G36*
X116856630Y-113622299D02*
X117016855Y-113670903D01*
X117164520Y-113749831D01*
X117293949Y-113856051D01*
X117400169Y-113985480D01*
X117479097Y-114133145D01*
X117527701Y-114293370D01*
X117544112Y-114460000D01*
X117527701Y-114626630D01*
X117479097Y-114786855D01*
X117400169Y-114934520D01*
X117293949Y-115063949D01*
X117164520Y-115170169D01*
X117016855Y-115249097D01*
X116856630Y-115297701D01*
X116731752Y-115310000D01*
X116648248Y-115310000D01*
X116523370Y-115297701D01*
X116363145Y-115249097D01*
X116215480Y-115170169D01*
X116086051Y-115063949D01*
X115979831Y-114934520D01*
X115900903Y-114786855D01*
X115852299Y-114626630D01*
X115835888Y-114460000D01*
X115852299Y-114293370D01*
X115900903Y-114133145D01*
X115979831Y-113985480D01*
X116086051Y-113856051D01*
X116215480Y-113749831D01*
X116363145Y-113670903D01*
X116523370Y-113622299D01*
X116648248Y-113610000D01*
X116731752Y-113610000D01*
X116856630Y-113622299D01*
X116856630Y-113622299D01*
G37*
M02*
